<svg xmlns="http://www.w3.org/2000/svg" width="11.124" height="23.982" viewBox="0 0 11.124 23.982">
  <path id="Adult_s_" data-name="Adult&apos;s " d="M177.062,36.131a2.073,2.073,0,1,0-2.248-2.065A2.155,2.155,0,0,0,177.062,36.131Zm2.254.465h-4.508A2.761,2.761,0,0,0,172,39.276v6.29a.934.934,0,0,0,1.868,0V39.752h.362V53.729a1.3,1.3,0,0,0,2.591,0V46.453h.482v7.282l.008.09a1.3,1.3,0,0,0,2.584-.1V39.752h.3v5.814a.966.966,0,0,0,1.928,0v-6.29A2.769,2.769,0,0,0,179.316,36.6Z" transform="translate(-171.5 -31.5)" fill="none" stroke="#3b85c1" stroke-width="1"/>
</svg>
