<svg id="Airport_Services" data-name="Airport Services" xmlns="http://www.w3.org/2000/svg" xmlns:xlink="http://www.w3.org/1999/xlink" width="29.477" height="29.156" viewBox="0 0 29.477 29.156">
  <defs>
    <clipPath id="clip-path">
      <rect id="Rectangle_19228" data-name="Rectangle 19228" width="29.476" height="29.156" fill="#264787"/>
    </clipPath>
  </defs>
  <g id="Group_45941" data-name="Group 45941" transform="translate(0 -0.001)" clip-path="url(#clip-path)">
    <path id="Path_71885" data-name="Path 71885" d="M26.477,168.2c-.549,1.61-1.4,2.342-2.788,2.4a2.767,2.767,0,0,1-1.912-.658,2.99,2.99,0,0,1-1.014-1.724H8.73a2.831,2.831,0,0,1-2.957,2.368,2.811,2.811,0,0,1-2.763-2.341c-.317-.048-.634-.069-.936-.146A2.737,2.737,0,0,1,.01,165.492C0,164.3,0,163.106.01,161.914a2.692,2.692,0,0,1,.831-1.93l1.338-1.338c.753-.753,1.514-1.5,2.255-2.261a2.987,2.987,0,0,1,2.275-.944c.877.008,1.754,0,2.632,0H9.68c.09-.287.168-.559.262-.826a2.2,2.2,0,0,1,.227-.509,1.137,1.137,0,0,1,.976-.52c.581,0,1.163-.007,1.744,0a1.2,1.2,0,0,1,1.181.857c.109.315.2.637.307.981.109.006.213.015.318.016.867,0,1.735.012,2.6,0a3.091,3.091,0,0,1,2.378.983c1.19,1.221,2.41,2.412,3.611,3.623a2.348,2.348,0,0,0,1.161.661c.938.221,1.871.466,2.806.7a2.759,2.759,0,0,1,2.191,2.385,5.962,5.962,0,0,1,.026.915,7.873,7.873,0,0,1-.049,1.149,2.749,2.749,0,0,1-2.646,2.346c-.1,0-.2,0-.3,0m-23.47-.972a2.82,2.82,0,0,1,2.873-2.364,2.819,2.819,0,0,1,2.845,2.376h12.03a2.91,2.91,0,0,1,5.72-.008,1.778,1.778,0,0,0,2-2.043c-.149,0-.305,0-.462,0a3.839,3.839,0,0,1-.5-.015.464.464,0,0,1-.411-.467.47.47,0,0,1,.446-.465c.107-.011.217,0,.325,0H28.5a1.776,1.776,0,0,0-1.356-1.878c-.942-.248-1.886-.49-2.834-.71a3.433,3.433,0,0,1-1.722-.968c-1.2-1.224-2.426-2.424-3.631-3.644a2.116,2.116,0,0,0-1.588-.653q-5.337.008-10.673,0a2.1,2.1,0,0,0-1.587.653c-.923.944-1.865,1.87-2.8,2.8-.279.279-.561.554-.835.837a1.742,1.742,0,0,0-.518,1.249c0,1.183,0,2.365,0,3.548a1.808,1.808,0,0,0,2.047,1.754m20.618-1.439a1.938,1.938,0,1,0,1.926,1.948,1.948,1.948,0,0,0-1.926-1.948m-17.752,0a1.938,1.938,0,1,0,1.93,1.944,1.951,1.951,0,0,0-1.93-1.944m4.814-10.384h2.692c-.069-.231-.13-.437-.193-.643a.313.313,0,0,0-.33-.237H11.2a.31.31,0,0,0-.325.244c-.061.206-.125.411-.194.635" transform="translate(0 -141.449)" fill="#264787"/>
    <path id="Path_71886" data-name="Path 71886" d="M105.241,3.785h9.6c1.162,0,2.325.014,3.487,0a2.607,2.607,0,0,1,2.031.846c.51.535,1.053,1.038,1.563,1.573a2.273,2.273,0,0,1,.535,2.51,2.39,2.39,0,0,1-2.071,1.621,5.347,5.347,0,0,1-.62.026c-1.321,0-2.642,0-3.962,0a.63.63,0,0,0-.493.2,5.913,5.913,0,0,1-3.572,1.728,7.9,7.9,0,0,1-.883.058.463.463,0,0,1-.442-.726c.159-.317.336-.624.5-.937.045-.085.084-.173.148-.3-.147-.006-.26-.014-.372-.014q-1.922,0-3.844,0a5.756,5.756,0,0,1-2.068-.272,4.895,4.895,0,0,1-3.307-4.034,5.184,5.184,0,0,1-.045-.826q-.006-2.247,0-4.495a2.183,2.183,0,0,1,.013-.295.462.462,0,0,1,.693-.381c.107.048.208.112.311.17.317.179.637.353.951.538a3.381,3.381,0,0,1,1.636,2.183c.065.267.13.533.2.838M102.387,1.3c0,.07-.01.118-.01.166,0,1.32,0,2.641,0,3.961a3.9,3.9,0,0,0,.063.676,3.985,3.985,0,0,0,3.846,3.306c1.7.029,3.409.005,5.114.009a.291.291,0,0,0,.3-.178c.136-.273.3-.534.431-.808a.621.621,0,0,1,.636-.376c1.074.013,2.148,0,3.222.005.049,0,.1,0,.148,0a.469.469,0,0,1,.456.67,4.078,4.078,0,0,1-.2.4l-.135.273c.088.006.145.013.2.013,1.212,0,2.424.008,3.636,0a1.543,1.543,0,0,0,1.512-1.952c-.091-.3-.116-.323-.429-.324-1.143,0-2.286.007-3.429,0a2.944,2.944,0,0,1-2.828-2.146c-.025-.083-.052-.165-.086-.27H105c-.416,0-.539-.1-.635-.5s-.179-.828-.3-1.232A2.7,2.7,0,0,0,102.387,1.3m18.125,4.877.028-.064c-.31-.3-.625-.6-.928-.9a1.6,1.6,0,0,0-1.193-.491c-.778,0-1.556,0-2.334,0-.074,0-.147.014-.226.022a.54.54,0,0,0,.013.107,1.693,1.693,0,0,0,.08.19,1.93,1.93,0,0,0,1.758,1.145c.9.021,1.792.008,2.688.008a.88.88,0,0,0,.114-.015M111.672,11.3c1.121.093,3.349-1.31,3.636-2.3-.763,0-1.52,0-2.277,0-.155,0-.194.112-.249.214q-.512.948-1.022,1.9c-.032.06-.058.123-.088.188" transform="translate(-93.416 0)" fill="#264787"/>
    <path id="Path_71887" data-name="Path 71887" d="M6.783,49.961H4.152a1.745,1.745,0,0,1-.265-.009.468.468,0,0,1-.4-.442.456.456,0,0,1,.361-.476,1.117,1.117,0,0,1,.263-.022q2.69,0,5.38,0a1.02,1.02,0,0,1,.263.026.445.445,0,0,1,.344.485.455.455,0,0,1-.384.426,1.511,1.511,0,0,1-.265.011H6.783" transform="translate(-3.206 -45.139)" fill="#3b85c1"/>
    <path id="Path_71888" data-name="Path 71888" d="M6.8,96.194c-.867,0-1.734,0-2.6,0a1.572,1.572,0,0,1-.351-.03.441.441,0,0,1-.348-.481.45.45,0,0,1,.414-.427,2.159,2.159,0,0,1,.236,0h5.32a1.971,1.971,0,0,1,.236.005.449.449,0,0,1,.4.407.44.44,0,0,1-.326.5,1.4,1.4,0,0,1-.351.035c-.877,0-1.754,0-2.63,0" transform="translate(-3.226 -87.722)" fill="#3b85c1"/>
    <path id="Path_71889" data-name="Path 71889" d="M30.2,72.1q.856,0,1.712,0a1.26,1.26,0,0,1,.264.016.45.45,0,0,1,.357.417.435.435,0,0,1-.313.476,1.1,1.1,0,0,1-.319.04q-1.712,0-3.423,0a1.084,1.084,0,0,1-.263-.025.466.466,0,0,1,.067-.92,2,2,0,0,1,.236-.005H30.2" transform="translate(-25.645 -66.399)" fill="#3b85c1"/>
    <path id="Path_71890" data-name="Path 71890" d="M42.966,208.649H34.72c-.089,0-.178,0-.266,0a.835.835,0,0,1-.779-.538.808.808,0,0,1,.189-.925c.483-.492.974-.977,1.461-1.465s.965-.958,1.44-1.443a1.37,1.37,0,0,1,1.031-.427q5.187,0,10.373,0a1.387,1.387,0,0,1,1.031.429q1.407,1.414,2.821,2.821a.932.932,0,0,1,.332.757.86.86,0,0,1-.788.789c-.1.01-.2.005-.3.005h-8.3m1.019-.965h7.258c-.05-.062-.076-.1-.109-.133q-1.3-1.3-2.59-2.6a.512.512,0,0,0-.394-.158c-1.311,0-2.622,0-3.933,0a2.212,2.212,0,0,0-.233.025Zm-.979-2.862H39.9v2.855h3.108Zm-4.073,2.869c0-.977,0-1.925,0-2.891-.381,0-.716.01-1.05,0a.64.64,0,0,0-.521.213c-.823.835-1.656,1.661-2.484,2.491-.052.052-.1.112-.162.191Z" transform="translate(-30.95 -187.741)" fill="#264787"/>
    <path id="Path_71891" data-name="Path 71891" d="M152.061,281.854h-1.114v1.106a3.1,3.1,0,0,1-1.193.032v-1.135l.014-.014h1.128V280.7h1.185c.009.381.01.759,0,1.138Z" transform="translate(-137.92 -258.518)" fill="#3b85c1"/>
    <path id="Path_71892" data-name="Path 71892" d="M193.856,281.816v-1.138h1.164v1.146h1.149l.013.014V283c-.392.02-.768.018-1.183,0v-1.161h-1.124Z" transform="translate(-178.538 -258.5)" fill="#3b85c1"/>
    <path id="Path_71893" data-name="Path 71893" d="M123.02,281.545h-1.128v1.149h-1.166v-1.162h1.115V280.38a10.516,10.516,0,0,1,1.192-.009v1.159Z" transform="translate(-111.187 -258.206)" fill="#3b85c1"/>
    <path id="Path_71894" data-name="Path 71894" d="M223.12,281.537v-1.156c.392-.026.767-.012,1.172-.008v1.155h1.142V282.7h-1.152v-1.149h-1.149Z" transform="translate(-205.49 -258.212)" fill="#3b85c1"/>
    <path id="Path_71895" data-name="Path 71895" d="M178.976,295.08h1.16l.019.021v1.161a11.9,11.9,0,0,1-1.2,0V295.1Z" transform="translate(-164.818 -271.763)" fill="#3b85c1"/>
    <path id="Path_71896" data-name="Path 71896" d="M284.052,318.969a1.255,1.255,0,0,1-1.282-1.264,1.271,1.271,0,1,1,1.282,1.264m.32-1.282a.352.352,0,0,0-.33-.319.332.332,0,1,0,.33.319" transform="translate(-260.426 -291.419)" fill="#3b85c1"/>
    <path id="Path_71897" data-name="Path 71897" d="M60.612,317.681a1.272,1.272,0,1,1-2.544.013,1.286,1.286,0,0,1,1.254-1.277,1.273,1.273,0,0,1,1.29,1.264m-1.271.345a.332.332,0,1,0,0-.664.354.354,0,0,0-.335.315.348.348,0,0,0,.331.349" transform="translate(-53.48 -291.414)" fill="#3b85c1"/>
    <path id="Path_71898" data-name="Path 71898" d="M176.146,69.071c.157,0,.315-.007.471,0a.47.47,0,0,1,.462.446.45.45,0,0,1-.4.473,7.19,7.19,0,0,1-1.115,0,.433.433,0,0,1-.382-.506.46.46,0,0,1,.462-.409c.167-.008.334,0,.5,0" transform="translate(-161.338 -63.611)" fill="#3b85c1"/>
    <path id="Path_71899" data-name="Path 71899" d="M143.572,69.075c.157,0,.314-.006.471,0a.451.451,0,0,1,.468.431.431.431,0,0,1-.4.491,7.144,7.144,0,0,1-1.086,0,.444.444,0,0,1-.4-.494.466.466,0,0,1,.478-.427c.157-.007.314,0,.471,0" transform="translate(-131.352 -63.615)" fill="#3b85c1"/>
    <path id="Path_71900" data-name="Path 71900" d="M208.56,70c-.147,0-.3.011-.441,0a.485.485,0,0,1-.486-.489.477.477,0,0,1,.519-.45c.294-.005.589-.006.883,0a.467.467,0,0,1,.055.933,4.827,4.827,0,0,1-.529,0v0" transform="translate(-191.226 -63.6)" fill="#3b85c1"/>
    <path id="Path_71901" data-name="Path 71901" d="M241.223,69.073c.157,0,.314-.006.471,0a.47.47,0,0,1,.478.429.452.452,0,0,1-.407.493,7.2,7.2,0,0,1-1.086,0,.432.432,0,0,1-.4-.493.456.456,0,0,1,.472-.428c.157-.007.314,0,.471,0" transform="translate(-221.292 -63.613)" fill="#3b85c1"/>
  </g>
</svg>
