<svg xmlns="http://www.w3.org/2000/svg" width="22.622" height="21.981" viewBox="0 0 22.622 21.981">
  <g id="c056de50c99a38dfee99d5d37c309792" transform="translate(0.5 0.5)">
    <path id="Path_71845" data-name="Path 71845" d="M23.622,42.611H2A10.82,10.82,0,0,1,12.811,31.8a4,4,0,0,1,.663.035A10.78,10.78,0,0,1,23.622,42.611Z" transform="translate(-2 -21.826)" fill="none" stroke="#fff" stroke-linecap="round" stroke-linejoin="round" stroke-width="1"/>
    <path id="Path_71846" data-name="Path 71846" d="M21.377,42.676c-.139-.279.07-.628.1-.942a1.512,1.512,0,0,0-.453-1.046c-.174-.244-.453-.523-.732-.418a.952.952,0,0,0-.418.314,1.593,1.593,0,0,1-2.232-.14c-.07-.1-.139-.174-.209-.279l-.209-.418a1.365,1.365,0,0,0-.349-.279A1.708,1.708,0,0,1,16.39,37.9a5.106,5.106,0,0,1,.628-1.569.555.555,0,0,1,.314-.314c.139-.035.314.07.453.14a1.73,1.73,0,0,0,2.2-.453.42.42,0,0,1,.174-.174c.14-.07.279.07.418.139a1.936,1.936,0,0,0,1.465.174c.1-.035.174-.035.279-.07M3.8,39.049a.854.854,0,0,0,.7-.174,4.952,4.952,0,0,1,.453-.418,1.148,1.148,0,0,1,1.116-.07,1.786,1.786,0,0,1,.8.8,1.486,1.486,0,0,0,.523.7c.279.174.7.1.976.314a1.239,1.239,0,0,1,.384.558,5.287,5.287,0,0,1,.558,1.918M14.646,31.9a.9.9,0,0,1-.384.907,1.958,1.958,0,0,1-1.081.314,2.149,2.149,0,0,0-.942.035c-.523.244-.558,1.046-1.046,1.29a2.017,2.017,0,0,0-.488.174c-.488.244-.488.942-.837,1.36a1.507,1.507,0,0,1-1.255.314,3.409,3.409,0,0,0-1.325-.035c-.418.139-.8.593-.628,1.011s.7.453,1.116.418A1.616,1.616,0,0,1,9,37.864c.384.349.279,1.046.7,1.36a1.133,1.133,0,0,0,1.151,0A2.651,2.651,0,0,1,12,38.84c1.011.035,1.43,1.465,2.441,1.744.384.139.837.035,1.221.174a1.47,1.47,0,0,1,.663,1.953" transform="translate(-3.172 -21.891)" fill="none" stroke="#fff" stroke-linecap="round" stroke-linejoin="round" stroke-width="1"/>
    <path id="Path_71847" data-name="Path 71847" d="M23.622,62.8H2" transform="translate(-2 -42.015)" fill="none" stroke="#fff" stroke-linecap="round" stroke-linejoin="round" stroke-width="1"/>
    <path id="Path_71848" data-name="Path 71848" d="M10.352,15.13c-.418-.035-.872-.1-1.29-.174L3.97,13.491l-.07-1.6,15.972-.593a3.6,3.6,0,0,1,2.3.7l.453.349s1.988.174,1.744,1.395S22.1,15.2,22.1,15.2H14.432" transform="translate(-3.237 -8.469)" fill="none" stroke="#3b85c1" stroke-linecap="round" stroke-linejoin="round" stroke-width="1"/>
    <path id="Path_71849" data-name="Path 71849" d="M2.988,6.618,2.5,3.2H4.139L6.127,6.513" transform="translate(-2.326 -3.2)" fill="none" stroke="#3b85c1" stroke-linecap="round" stroke-linejoin="round" stroke-width="1"/>
    <path id="Path_71850" data-name="Path 71850" d="M19.934,17.5,15.4,21.162l2.65.174L24.4,17.918" transform="translate(-10.727 -12.513)" fill="none" stroke="#3b85c1" stroke-linecap="round" stroke-linejoin="round" stroke-width="1"/>
  </g>
</svg>
