<svg id="bc0c3c51967f06bb39bfb31ea79f076c" xmlns="http://www.w3.org/2000/svg" width="21.406" height="18.397" viewBox="0 0 21.406 18.397">
  <path id="Path_71920" data-name="Path 71920" d="M21.072,44.186H.334a.334.334,0,0,1-.278-.52L3.4,38.649a.335.335,0,1,1,.557.371l-3,4.5H20.447l-3-4.5a.335.335,0,1,1,.557-.371l3.345,5.017a.335.335,0,0,1-.278.52Z" transform="translate(0 -27.127)" fill="#fff"/>
  <path id="Path_71921" data-name="Path 71921" d="M21.072,55.507H.334A.334.334,0,0,1,0,55.172V53.834A.334.334,0,0,1,.334,53.5H21.072a.334.334,0,0,1,.334.334v1.338A.334.334,0,0,1,21.072,55.507Zm-20.4-.669H20.737v-.669H.669Z" transform="translate(0 -37.11)" fill="#fff"/>
  <path id="Path_71922" data-name="Path 71922" d="M9.184,44.186a.335.335,0,0,1-.3-.479l1.754-3.679a.334.334,0,1,1,.6.288L9.486,44A.334.334,0,0,1,9.184,44.186Zm3.44-1.672a.335.335,0,0,1-.322-.426l.48-1.672a.334.334,0,1,1,.643.184l-.48,1.672A.334.334,0,0,1,12.624,42.514ZM24,44.186a.334.334,0,0,1-.3-.19l-.638-1.339a.334.334,0,1,1,.6-.288l.638,1.339a.334.334,0,0,1-.3.478Zm-1.276-2.677a.334.334,0,0,1-.3-.19l-1.115-2.34a.334.334,0,0,1,.6-.288l1.115,2.34a.334.334,0,0,1-.3.478Zm-2.164,1.005a.334.334,0,0,1-.321-.242l-.48-1.672a.334.334,0,1,1,.643-.184l.48,1.672a.335.335,0,0,1-.322.426Z" transform="translate(-5.889 -27.127)" fill="#fff"/>
  <path id="Path_71923" data-name="Path 71923" d="M9.929,43.169H7.667a.334.334,0,0,1,0-.669H9.929a.334.334,0,0,1,0,.669ZM25.06,45.51H22.355a.334.334,0,0,1,0-.669H25.06a.334.334,0,0,1,0,.669Zm-.892-1.338H21.717a.334.334,0,0,1,0-.669h2.452a.334.334,0,1,1,0,.669ZM14.914,43.5H12.094a.334.334,0,0,1,0-.669h2.821a.334.334,0,0,1,0,.669Zm4.159,0h-2.79a.334.334,0,0,1,0-.669h2.79a.334.334,0,0,1,0,.669Zm.479,1.672H11.614a.334.334,0,0,1,0-.669h7.938a.334.334,0,0,1,0,.669Z" transform="translate(-4.88 -29.789)" fill="#fff"/>
  <path id="Path_71924" data-name="Path 71924" d="M21.352,18.882a.334.334,0,0,1-.22-.083C20.922,18.616,16,14.253,16,9.852a5.352,5.352,0,1,1,10.7,0c0,4.4-4.922,8.764-5.131,8.948A.334.334,0,0,1,21.352,18.882Zm0-13.713a4.688,4.688,0,0,0-4.683,4.683c0,3.59,3.727,7.34,4.683,8.242.955-.9,4.683-4.652,4.683-8.242A4.688,4.688,0,0,0,21.352,5.169Z" transform="translate(-10.648 -4.5)" fill="#fff"/>
  <path id="Path_71925" data-name="Path 71925" d="M15.16,39.169H10.334a.334.334,0,0,1,0-.669H15.16a.334.334,0,0,1,0,.669Zm9.222,0H19.557a.334.334,0,0,1,0-.669h4.826a.334.334,0,0,1,0,.669Z" transform="translate(-6.655 -27.127)" fill="#fff"/>
  <g id="Group_45998" data-name="Group 45998" transform="translate(7.024 3.679)">
    <path id="Path_71926" data-name="Path 71926" d="M22.672,21.507H21.334A.334.334,0,0,1,21,21.172V19.834a.334.334,0,0,1,.334-.334h1.338a.334.334,0,0,1,.334.334v1.338A.334.334,0,0,1,22.672,21.507Zm-1-.669h.669v-.669h-.669Z" transform="translate(-21 -18.162)" fill="#3b85c1"/>
    <path id="Path_71927" data-name="Path 71927" d="M26.672,17.507H25.334A.334.334,0,0,1,25,17.172V15.834a.334.334,0,0,1,.334-.334h1.338a.334.334,0,0,1,.334.334v1.338A.334.334,0,0,1,26.672,17.507Zm-1-.669h.669v-.669h-.669Zm3.679.669H28.01a.334.334,0,0,1-.334-.334V15.834a.334.334,0,0,1,.334-.334h1.338a.334.334,0,0,1,.334.334v1.338A.334.334,0,0,1,29.348,17.507Zm-1-.669h.669v-.669h-.669Z" transform="translate(-23.662 -15.5)" fill="#3b85c1"/>
    <path id="Path_71928" data-name="Path 71928" d="M30.672,21.507H29.334A.334.334,0,0,1,29,21.172V19.834a.334.334,0,0,1,.334-.334h1.338a.334.334,0,0,1,.334.334v1.338A.334.334,0,0,1,30.672,21.507Zm-1-.669h.669v-.669h-.669Zm3.679.669H32.01a.334.334,0,0,1-.334-.334V19.834a.334.334,0,0,1,.334-.334h1.338a.334.334,0,0,1,.334.334v1.338A.334.334,0,0,1,33.348,21.507Zm-1-.669h.669v-.669h-.669Z" transform="translate(-26.324 -18.162)" fill="#3b85c1"/>
  </g>
</svg>
