<svg id="Get_A_Helicopter" data-name="Get A Helicopter" xmlns="http://www.w3.org/2000/svg" width="30.609" height="21.02" viewBox="0 0 30.609 21.02">
  <g id="Layer_2" data-name="Layer 2" transform="translate(0 0)">
    <g id="Layer_1" data-name="Layer 1">
      <path id="Path_71814" data-name="Path 71814" d="M48.967,43.772a.892.892,0,0,1-.3-.322,6.7,6.7,0,0,1-5.709,3.2H39.54a5.285,5.285,0,0,0,4.75,2.973h3.148a5.184,5.184,0,0,0,5.1-4.082A9.874,9.874,0,0,1,48.967,43.772Z" transform="translate(-25.709 -29.124)" fill="#4b4668" opacity="0.1"/>
      <path id="Path_71815" data-name="Path 71815" d="M43.874,53.633H40.027a.527.527,0,0,1,0-1.053h3.848a.527.527,0,1,1,0,1.053Z" transform="translate(-25.685 -35.063)" fill="#97e9ff"/>
      <path id="Path_71816" data-name="Path 71816" d="M64,30.08A5.422,5.422,0,0,0,69.422,35.5,5.422,5.422,0,0,0,64,30.08Z" transform="translate(-41.614 -20.431)" fill="#97e9ff"/>
      <path id="Path_71817" data-name="Path 71817" d="M25.44,35.275H22.159a5.816,5.816,0,0,1-5.814-5.7L5.911,27.221a.527.527,0,0,1-.411-.514v-2.1a.527.527,0,0,1,.527-.527H16.809a.532.532,0,0,1,.061,0h4.545V21.107a.527.527,0,0,1,1.053,0v2.971H25.44a5.6,5.6,0,0,1,0,11.2ZM17.4,29.155v.318a4.77,4.77,0,0,0,4.762,4.748H25.44a4.545,4.545,0,0,0,0-9.09H17.4ZM6.553,26.286l9.79,2.211V25.135H6.553Z" transform="translate(-3.578 -14.256)" fill="#264787"/>
      <path id="Path_71818" data-name="Path 71818" d="M36.658,22.679a.6.6,0,0,1-.224-.044,1.155,1.155,0,0,1-.521-.537,5.026,5.026,0,0,1-.368-.8,7.09,7.09,0,0,1-.428-2.363.527.527,0,0,1,1.007-.215,21.741,21.741,0,0,1,.956,2.434,4.27,4.27,0,0,1,.157.675.811.811,0,0,1-.166.677A.572.572,0,0,1,36.658,22.679Zm-3.987-6.888a49.944,49.944,0,0,1-7.251-.465,12.46,12.46,0,0,1-2.276-.526C22.86,14.7,22,14.38,22,13.691a.978.978,0,0,1,.55-.83,4.072,4.072,0,0,1,.984-.406,19.6,19.6,0,0,1,3.17-.568.527.527,0,1,1,.117,1.047,11.933,11.933,0,0,0-3.6.758,9.832,9.832,0,0,0,2.8.658,51.348,51.348,0,0,0,6.648.389,51.348,51.348,0,0,0,6.648-.389,9.816,9.816,0,0,0,2.8-.659,9.815,9.815,0,0,0-2.8-.659,51.348,51.348,0,0,0-6.648-.389c-.837,0-1.681.016-2.508.049a.527.527,0,1,1-.041-1.053c.841-.033,1.7-.049,2.549-.049a49.945,49.945,0,0,1,7.251.465,12.459,12.459,0,0,1,2.276.526c.283.1,1.143.42,1.143,1.109S42.481,14.7,42.2,14.8a12.459,12.459,0,0,1-2.276.526A49.945,49.945,0,0,1,32.671,15.791Z" transform="translate(-14.307 -8.41)" fill="#264787"/>
      <ellipse id="Ellipse_393" data-name="Ellipse 393" cx="1.749" cy="1.749" rx="1.749" ry="1.749" transform="translate(0.7 9.649)" fill="#fff"/>
      <ellipse id="Ellipse_394" data-name="Ellipse 394" cx="1.749" cy="1.749" rx="1.749" ry="1.749" transform="translate(0 8.6)" fill="#97e9ff"/>
      <path id="Ellipse_395" data-name="Ellipse 395" d="M.776-1.5A2.276,2.276,0,1,1-1.5.776,2.278,2.278,0,0,1,.776-1.5Zm0,3.5A1.222,1.222,0,1,0-.447.776,1.224,1.224,0,0,0,.776,2Z" transform="translate(1.673 10.622)" fill="#264787"/>
      <g id="Group_45926" data-name="Group 45926" transform="translate(5.623 17.668)" opacity="0.2">
        <path id="Path_71819" data-name="Path 71819" d="M18.356,54.054H16.607a.527.527,0,1,1,0-1.053h1.749a.527.527,0,0,1,0,1.053Z" transform="translate(-16.08 -53)" fill="#4b4668"/>
      </g>
      <g id="Group_45927" data-name="Group 45927" transform="translate(11.838)" opacity="0.2">
        <path id="Path_71820" data-name="Path 71820" d="M36.126,3.544H34.377a.527.527,0,1,1,0-1.053h1.749a.527.527,0,0,1,0,1.053Z" transform="translate(-33.85 -2.49)" fill="#4b4668"/>
      </g>
      <path id="Ellipse_396" data-name="Ellipse 396" d="M-.1-1.5A1.4,1.4,0,0,1,1.3-.1,1.4,1.4,0,0,1-.1,1.3,1.4,1.4,0,0,1-1.5-.1,1.4,1.4,0,0,1-.1-1.5ZM-.1.249A.348.348,0,0,0,.249-.1.348.348,0,0,0-.1-.447.348.348,0,0,0-.447-.1.348.348,0,0,0-.1.249Z" transform="translate(29.306 9.923)" fill="#97e9ff" opacity="0.5"/>
    </g>
  </g>
</svg>
