<svg id="Get_A_Ride" data-name="Get A Ride" xmlns="http://www.w3.org/2000/svg" width="29.518" height="25.367" viewBox="0 0 29.518 25.367">
  <g id="bc0c3c51967f06bb39bfb31ea79f076c" transform="translate(0 -0.001)">
    <path id="Path_71920" data-name="Path 71920" d="M29.057,46.341H.461a.461.461,0,0,1-.384-.717L4.69,38.706a.461.461,0,0,1,.767.512l-4.134,6.2H28.2l-4.134-6.2a.461.461,0,1,1,.767-.512l4.612,6.918a.461.461,0,0,1-.384.717Z" transform="translate(0 -22.818)" fill="#264787"/>
    <path id="Path_71921" data-name="Path 71921" d="M29.057,56.267H.461A.461.461,0,0,1,0,55.806V53.961A.461.461,0,0,1,.461,53.5h28.6a.461.461,0,0,1,.461.461v1.845A.461.461,0,0,1,29.057,56.267ZM.922,55.345H28.6v-.922H.922Z" transform="translate(0 -30.9)" fill="#264787"/>
    <path id="Path_71922" data-name="Path 71922" d="M9.31,46.341a.462.462,0,0,1-.416-.66l2.418-5.073a.461.461,0,0,1,.833.4L9.727,46.078A.46.46,0,0,1,9.31,46.341Zm4.744-2.306a.462.462,0,0,1-.444-.588l.661-2.306a.461.461,0,1,1,.886.254L14.5,43.7A.46.46,0,0,1,14.054,44.035Zm15.689,2.306a.461.461,0,0,1-.416-.262l-.88-1.846a.461.461,0,0,1,.833-.4l.88,1.846a.461.461,0,0,1-.416.66Zm-1.76-3.692a.461.461,0,0,1-.416-.262L26.029,39.16a.461.461,0,1,1,.833-.4L28.4,41.989a.461.461,0,0,1-.416.66ZM25,44.035a.461.461,0,0,1-.443-.334L23.9,41.394a.461.461,0,1,1,.886-.254l.661,2.306a.462.462,0,0,1-.444.588Z" transform="translate(-4.768 -22.818)" fill="#264787"/>
    <path id="Path_71923" data-name="Path 71923" d="M10.913,43.422H7.794a.461.461,0,0,1,0-.922h3.118a.461.461,0,0,1,0,.922Zm20.865,3.229H28.047a.461.461,0,0,1,0-.922h3.731a.461.461,0,0,1,0,.922Zm-1.23-1.845H27.167a.461.461,0,1,1,0-.922h3.381a.461.461,0,1,1,0,.922Zm-12.761-.922H13.9a.461.461,0,0,1,0-.922h3.89a.461.461,0,0,1,0,.922Zm5.735,0H19.675a.461.461,0,0,1,0-.922h3.847a.461.461,0,0,1,0,.922Zm.661,2.306H13.237a.461.461,0,0,1,0-.922H24.183a.461.461,0,1,1,0,.922Z" transform="translate(-3.951 -24.974)" fill="#264787"/>
    <path id="Path_71924" data-name="Path 71924" d="M23.38,24.333a.46.46,0,0,1-.3-.114C22.787,23.965,16,17.949,16,11.88a7.38,7.38,0,1,1,14.759,0c0,6.069-6.787,12.085-7.076,12.339A.46.46,0,0,1,23.38,24.333Zm0-18.91a6.464,6.464,0,0,0-6.457,6.457c0,4.951,5.14,10.121,6.457,11.365C24.7,22,29.837,16.83,29.837,11.88A6.464,6.464,0,0,0,23.38,5.422Z" transform="translate(-8.62 -4.5)" fill="#264787"/>
    <path id="Path_71925" data-name="Path 71925" d="M17.115,39.422H10.461a.461.461,0,0,1,0-.922h6.654a.461.461,0,0,1,0,.922Zm12.717,0H23.178a.461.461,0,1,1,0-.922h6.654a.461.461,0,1,1,0,.922Z" transform="translate(-5.388 -22.818)" fill="#264787"/>
    <g id="Group_45998" data-name="Group 45998" transform="translate(9.686 5.073)">
      <path id="Path_71926" data-name="Path 71926" d="M23.306,22.267H21.461A.461.461,0,0,1,21,21.806V19.961a.461.461,0,0,1,.461-.461h1.845a.461.461,0,0,1,.461.461v1.845A.461.461,0,0,1,23.306,22.267Zm-1.384-.922h.922v-.922h-.922Z" transform="translate(-21 -17.655)" fill="#3b85c1"/>
      <path id="Path_71927" data-name="Path 71927" d="M27.306,18.267H25.461A.461.461,0,0,1,25,17.806V15.961a.461.461,0,0,1,.461-.461h1.845a.461.461,0,0,1,.461.461v1.845A.461.461,0,0,1,27.306,18.267Zm-1.384-.922h.922v-.922h-.922ZM31,18.267H29.151a.461.461,0,0,1-.461-.461V15.961a.461.461,0,0,1,.461-.461H31a.461.461,0,0,1,.461.461v1.845A.461.461,0,0,1,31,18.267Zm-1.384-.922h.922v-.922h-.922Z" transform="translate(-23.155 -15.5)" fill="#3b85c1"/>
      <path id="Path_71928" data-name="Path 71928" d="M31.306,22.267H29.461A.461.461,0,0,1,29,21.806V19.961a.461.461,0,0,1,.461-.461h1.845a.461.461,0,0,1,.461.461v1.845A.461.461,0,0,1,31.306,22.267Zm-1.384-.922h.922v-.922h-.922ZM35,22.267H33.151a.461.461,0,0,1-.461-.461V19.961a.461.461,0,0,1,.461-.461H35a.461.461,0,0,1,.461.461v1.845A.461.461,0,0,1,35,22.267Zm-1.384-.922h.922v-.922h-.922Z" transform="translate(-25.31 -17.655)" fill="#3b85c1"/>
    </g>
  </g>
</svg>
