<svg xmlns="http://www.w3.org/2000/svg" xmlns:xlink="http://www.w3.org/1999/xlink" width="103" height="101" viewBox="0 0 103 101">
  <defs>
    <clipPath id="clip-path">
      <rect id="Rectangle_22684" data-name="Rectangle 22684" width="103" height="101" transform="translate(0.01 -0.179)" fill="#3b85c1"/>
    </clipPath>
  </defs>
  <g id="Group_55214" data-name="Group 55214" transform="translate(-0.01 0.179)">
    <g id="Group_55213" data-name="Group 55213" transform="translate(0 0)" clip-path="url(#clip-path)">
      <path id="Path_79025" data-name="Path 79025" d="M30.045,38.631H17.168V0H85.845V12.877h-55.8ZM72.968,87.992a2.152,2.152,0,0,1-2.146,2.146H32.191a2.15,2.15,0,0,1-2.146-2.146V77.262H17.168V87.992a15.04,15.04,0,0,0,15.023,15.023H70.822A15.04,15.04,0,0,0,85.845,87.992V51.508H72.968Zm28.454-59.307L85.755,15.023V25.754H72.968V38.631H85.755V49.362l15.667-13.551a4.779,4.779,0,0,0,0-7.125m-84.164,35.7H30.045V51.508H17.258V40.777L1.591,54.439a4.786,4.786,0,0,0,0,7.125L17.258,75.116ZM42.922,81.554H60.091V72.969H42.922ZM65.671,49.9a9.346,9.346,0,0,0-7.5-9.147l-11.984-2.4a2.462,2.462,0,0,1,.485-4.876H55.8a3,3,0,0,1,2.876,2.146h6.954A9.877,9.877,0,0,0,55.8,26.612H54.94V21.462H48.072v5.151h-1.4a9.328,9.328,0,0,0-1.833,18.474l11.984,2.4a2.464,2.464,0,0,1-.485,4.88H47.214a3.02,3.02,0,0,1-2.884-2.146H37.376a9.892,9.892,0,0,0,9.838,9.014h.858v5.151H54.94V59.234h1.4a9.341,9.341,0,0,0,9.336-9.327Z" transform="translate(0.275 -1.323)" fill="#3b85c1"/>
    </g>
  </g>
</svg>
