<svg xmlns="http://www.w3.org/2000/svg" xmlns:xlink="http://www.w3.org/1999/xlink" width="101" height="101" viewBox="0 0 101 101">
  <defs>
    <clipPath id="clip-path">
      <rect id="Rectangle_22683" data-name="Rectangle 22683" width="101" height="101" transform="translate(-0.001 -0.179)" fill="#3b85c1"/>
    </clipPath>
  </defs>
  <g id="Group_55212" data-name="Group 55212" transform="translate(0.001 0.179)">
    <g id="Group_55211" data-name="Group 55211" transform="translate(0 0)" clip-path="url(#clip-path)">
      <path id="Path_79024" data-name="Path 79024" d="M60.092,68.677H8.585V8.585h38.97A34.428,34.428,0,0,1,54.6,0H0V90.139a12.893,12.893,0,0,0,12.877,12.877H55.8A12.893,12.893,0,0,0,68.677,90.139V58.968a34,34,0,0,1-8.585-3.507Zm0,21.462A4.294,4.294,0,0,1,55.8,94.431H12.877a4.3,4.3,0,0,1-4.292-4.292V77.262H60.092ZM77.262,0a25.754,25.754,0,1,0,25.754,25.754A25.78,25.78,0,0,0,77.262,0m0,42.923A17.169,17.169,0,1,1,94.431,25.754,17.187,17.187,0,0,1,77.262,42.923M84.5,15.714l6.009,6.129L79.734,32.42a6.568,6.568,0,0,1-4.666,1.919,6.653,6.653,0,0,1-4.713-1.949l-6.529-6.327L69.806,19.9l5.245,5.086L84.5,15.714ZM42.923,90.139H25.754V81.554H42.923ZM25.754,60.092l5.833-12.877H24.252l-6.636-7.868a3.347,3.347,0,0,1,5.271-4.03l3.966,3.314H31.66L25.754,25.754h4.7a4.76,4.76,0,0,1,4.185,2.485l8.28,10.392h3.219c3.442,0,5.365,1.923,5.365,4.292v4.292H42.923l-8.2,10.392a4.77,4.77,0,0,1-4.185,2.485H25.754Z" transform="translate(-1.246 -1.323)" fill="#3b85c1"/>
    </g>
  </g>
</svg>
