<?xml version="1.0" encoding="UTF-8"?>
<!-- Generator: https://ezgif.com/png-to-svg -->
<svg version="1.1" xmlns="http://www.w3.org/2000/svg" width="668" height="110">
<path d="M0 0 C7.84 5.42 14.1 13.4 20.5 20.39 C21 20.92 21.49 21.45 22 22 C22.4 22.52 22.79 23.04 23.2 23.58 C25.86 25.68 27.92 25.33 31.27 25.28 C32.57 25.26 33.86 25.25 35.2 25.24 C35.89 25.22 36.58 25.21 37.3 25.19 C39.47 25.15 41.64 25.13 43.82 25.11 C50 25.06 56.18 24.96 62.36 24.86 C66.15 24.8 69.93 24.77 73.71 24.74 C75.85 24.72 77.98 24.67 80.11 24.62 C88.14 24.56 94.41 24.69 100.54 30.45 C104.51 34.86 105.12 38.38 105.16 44.12 C105.17 45.13 105.18 46.15 105.19 47.2 C105.2 48.84 105.2 48.84 105.2 50.52 C105.21 51.65 105.21 52.78 105.22 53.95 C105.23 56.34 105.24 58.74 105.24 61.13 C105.25 64.79 105.28 68.44 105.31 72.1 C105.32 74.42 105.32 76.75 105.33 79.08 C105.34 80.17 105.35 81.26 105.37 82.38 C105.34 89.9 104.74 95.06 99.44 100.75 C91.07 106.95 80.57 106.43 70.65 106.36 C69.18 106.36 67.71 106.36 66.24 106.36 C63.18 106.36 60.12 106.35 57.06 106.34 C53.15 106.31 49.25 106.31 45.35 106.32 C42.32 106.32 39.29 106.32 36.27 106.31 C34.83 106.3 33.39 106.3 31.95 106.3 C12.93 106.31 12.93 106.31 5 100 C0.52 95.28 -0.12 91.26 -0.15 84.92 C-0.15 83.94 -0.16 82.95 -0.16 81.94 C-0.17 80.89 -0.17 79.83 -0.17 78.75 C-0.17 77.11 -0.17 77.11 -0.18 75.44 C-0.18 73.14 -0.19 70.84 -0.19 68.54 C-0.19 65.01 -0.21 61.49 -0.22 57.97 C-0.23 55.73 -0.23 53.49 -0.23 51.25 C-0.24 50.2 -0.24 49.15 -0.25 48.06 C-0.25 47.08 -0.25 46.09 -0.24 45.08 C-0.24 44.22 -0.25 43.35 -0.25 42.47 C0.03 39.69 0.86 37.53 2 35 C0.74 33.49 -0.53 31.99 -1.81 30.5 C-2.52 29.66 -3.23 28.83 -3.96 27.97 C-5.89 25.65 -5.89 25.65 -9 26 C-9 26.77 -9.01 27.54 -9.01 28.33 C-9.05 35.61 -9.11 42.89 -9.18 50.18 C-9.22 53.92 -9.26 57.66 -9.27 61.4 C-9.29 65.02 -9.32 68.64 -9.37 72.26 C-9.38 73.63 -9.39 75.01 -9.39 76.38 C-9.4 85.98 -10.25 93.2 -16.25 100.88 C-24.81 107.49 -35.33 107.16 -45.67 107.2 C-46.79 107.21 -47.91 107.21 -49.06 107.22 C-51.42 107.23 -53.78 107.24 -56.14 107.24 C-59.72 107.25 -63.31 107.28 -66.89 107.31 C-69.19 107.32 -71.49 107.32 -73.8 107.33 C-74.86 107.34 -75.91 107.35 -77.01 107.37 C-87.03 107.34 -95.63 105.93 -103.34 99.21 C-107.47 93.71 -108.37 87.93 -108.34 81.21 C-108.34 80.47 -108.34 79.74 -108.34 78.99 C-108.34 76.6 -108.32 74.2 -108.29 71.81 C-108.29 70.14 -108.28 68.47 -108.28 66.8 C-108.27 62.43 -108.24 58.06 -108.21 53.68 C-108.18 49.21 -108.16 44.74 -108.15 40.27 C-108.11 31.51 -108.06 22.76 -108 14 C-104.19 13.97 -100.38 13.95 -96.56 13.94 C-95.47 13.93 -94.39 13.92 -93.26 13.91 C-92.23 13.91 -91.19 13.91 -90.13 13.9 C-89.17 13.9 -88.21 13.89 -87.22 13.89 C-85 14 -85 14 -84 15 C-83.88 17.12 -83.82 19.24 -83.79 21.36 C-83.78 22.02 -83.77 22.68 -83.76 23.37 C-83.73 25.57 -83.71 27.77 -83.68 29.97 C-83.66 31.5 -83.64 33.02 -83.62 34.54 C-83.57 38.56 -83.52 42.57 -83.47 46.59 C-83.42 50.69 -83.36 54.78 -83.31 58.88 C-83.2 66.92 -83.1 74.96 -83 83 C-80.24 83.78 -77.8 84.13 -74.94 84.13 C-73.76 84.13 -73.76 84.13 -72.55 84.14 C-71.71 84.14 -70.87 84.13 -70 84.13 C-69.13 84.13 -68.25 84.13 -67.36 84.14 C-65.51 84.14 -63.67 84.13 -61.83 84.13 C-59.01 84.13 -56.19 84.13 -53.38 84.14 C-51.58 84.14 -49.79 84.13 -48 84.13 C-46.74 84.14 -46.74 84.14 -45.45 84.14 C-44.66 84.14 -43.87 84.13 -43.06 84.13 C-42.03 84.13 -42.03 84.13 -40.97 84.13 C-38.88 83.99 -37.01 83.57 -35 83 C-35 82.12 -34.99 81.23 -34.99 80.32 C-34.95 71.96 -34.89 63.61 -34.82 55.25 C-34.78 50.96 -34.74 46.66 -34.73 42.37 C-34.71 38.22 -34.68 34.07 -34.63 29.92 C-34.62 28.34 -34.61 26.76 -34.61 25.18 C-34.59 7.71 -34.59 7.71 -27.69 0.62 C-19.35 -4.42 -8.53 -4.81 0 0 Z M39 41 C40.66 44.32 42.05 46.45 44.44 49.19 C45.03 49.88 45.63 50.58 46.25 51.29 C47.99 53.24 47.99 53.24 51 54 C52.74 52.26 52.37 49.81 52.56 47.44 C52.71 45.64 52.85 43.85 53 42 C46.07 41.51 46.07 41.51 39 41 Z M75 42 C75.02 43.17 75.02 43.17 75.03 44.37 C75.07 47.93 75.1 51.5 75.12 55.06 C75.14 56.29 75.16 57.52 75.18 58.79 C75.26 73.52 75.26 73.52 70.44 78.81 C65.89 82.14 60.99 83.22 55.41 82.81 C43.81 80.87 37.06 72.63 29.87 63.99 C27.43 61.4 24.77 59.24 22 57 C21.98 61.4 21.96 65.79 21.95 70.19 C21.94 71.69 21.93 73.18 21.92 74.68 C21.91 76.83 21.91 78.97 21.9 81.12 C21.9 82.41 21.89 83.71 21.89 85.04 C21.66 87.89 21.66 87.89 23 89 C24.84 89.1 26.68 89.13 28.51 89.13 C30.28 89.13 30.28 89.13 32.08 89.14 C33.37 89.14 34.65 89.13 35.97 89.13 C37.27 89.13 38.58 89.13 39.93 89.14 C42.69 89.14 45.46 89.14 48.23 89.13 C51.78 89.12 55.34 89.13 58.89 89.13 C62.27 89.14 65.65 89.14 69.03 89.13 C70.31 89.13 71.6 89.14 72.92 89.14 C74.09 89.14 75.27 89.13 76.49 89.13 C77.53 89.13 78.57 89.13 79.65 89.13 C81.96 89.27 81.96 89.27 83 88 C83.09 86.56 83.12 85.11 83.11 83.66 C83.11 82.74 83.11 81.82 83.11 80.87 C83.11 79.87 83.1 78.87 83.1 77.84 C83.1 76.31 83.1 76.31 83.09 74.75 C83.09 71.48 83.08 68.21 83.06 64.94 C83.06 62.73 83.05 60.51 83.05 58.3 C83.04 52.87 83.02 47.43 83 42 C80.36 42 77.72 42 75 42 Z " fill="#16284F" transform="translate(108,3)"/>
<path d="M0 0 C8.47 -0.09 16.93 -0.16 25.4 -0.21 C29.33 -0.23 33.27 -0.26 37.2 -0.3 C41 -0.35 44.8 -0.37 48.6 -0.38 C50.04 -0.39 51.49 -0.4 52.93 -0.42 C69.04 -0.66 69.04 -0.66 75.54 5.45 C79.51 9.86 80.12 13.38 80.16 19.12 C80.17 20.13 80.18 21.15 80.19 22.2 C80.19 23.3 80.2 24.39 80.2 25.52 C80.21 26.65 80.21 27.78 80.22 28.95 C80.23 31.34 80.24 33.74 80.24 36.13 C80.25 39.79 80.28 43.44 80.31 47.1 C80.32 49.42 80.32 51.75 80.33 54.08 C80.34 55.17 80.35 56.26 80.37 57.38 C80.34 64.9 79.74 70.06 74.44 75.75 C66.07 81.95 55.57 81.43 45.65 81.36 C44.18 81.36 42.71 81.36 41.24 81.36 C38.18 81.36 35.12 81.35 32.06 81.34 C28.15 81.31 24.25 81.31 20.35 81.32 C17.32 81.32 14.29 81.32 11.27 81.31 C9.83 81.3 8.39 81.3 6.95 81.3 C-12.07 81.31 -12.07 81.31 -20 75 C-24.48 70.28 -25.12 66.25 -25.13 59.91 C-25.13 58.92 -25.14 57.93 -25.14 56.91 C-25.14 55.86 -25.13 54.8 -25.13 53.71 C-25.13 52.62 -25.13 51.53 -25.14 50.4 C-25.14 48.09 -25.13 45.79 -25.13 43.48 C-25.13 39.95 -25.13 36.41 -25.14 32.88 C-25.14 30.64 -25.13 28.4 -25.13 26.15 C-25.13 25.09 -25.14 24.04 -25.14 22.95 C-25.14 21.96 -25.13 20.98 -25.13 19.96 C-25.13 18.67 -25.13 18.67 -25.13 17.35 C-25.01 15.1 -24.63 13.16 -24 11 C-15.49 14.74 -8.08 24.39 -3 32 C-2.68 35.19 -2.68 35.19 -2.59 39.07 C-2.55 40.33 -2.51 41.58 -2.48 42.87 C-2.44 44.46 -2.41 46.05 -2.38 47.69 C-2.25 52.74 -2.13 57.79 -2 63 C17.47 63 36.94 63 57 63 C57.33 47.82 57.66 32.64 58 17 C44.4 17.12 44.4 17.12 30.81 17.27 C29.1 17.28 27.39 17.29 25.68 17.29 C24.79 17.31 23.91 17.32 23.01 17.34 C17 17.34 13.54 16.47 9.12 12.17 C8.29 11.19 8.29 11.19 7.44 10.19 C6.88 9.54 6.32 8.9 5.75 8.23 C3.67 5.58 1.85 2.8 0 0 Z " fill="#3B84BF" transform="translate(133,28)"/>
<path d="M0 0 C7.24 -0.03 14.49 -0.04 21.73 -0.05 C24.2 -0.06 26.67 -0.07 29.14 -0.08 C32.67 -0.09 36.21 -0.09 39.75 -0.1 C40.86 -0.1 41.97 -0.11 43.11 -0.11 C44.64 -0.11 44.64 -0.11 46.2 -0.11 C47.11 -0.12 48.01 -0.12 48.94 -0.12 C51 -0 51 -0 52 1 C52.11 3.42 52.15 5.82 52.15 8.24 C52.15 9 52.15 9.76 52.16 10.54 C52.16 13.06 52.17 15.57 52.17 18.09 C52.17 19.83 52.17 21.57 52.18 23.32 C52.18 26.98 52.19 30.63 52.19 34.29 C52.19 38.99 52.2 43.68 52.22 48.38 C52.23 51.98 52.23 55.58 52.23 59.18 C52.23 60.91 52.23 62.64 52.24 64.37 C52.25 66.79 52.25 69.21 52.24 71.63 C52.25 72.35 52.25 73.07 52.26 73.81 C52.23 78.77 52.23 78.77 50 81 C47.5 81.19 45.12 81.26 42.62 81.23 C41.89 81.23 41.17 81.23 40.42 81.23 C38.88 81.23 37.34 81.22 35.8 81.21 C33.44 81.19 31.08 81.19 28.72 81.19 C27.23 81.18 25.74 81.17 24.25 81.17 C23.54 81.17 22.83 81.17 22.09 81.16 C17.12 81.12 17.12 81.12 16 80 C15.88 77.73 15.82 75.46 15.79 73.19 C15.78 72.47 15.77 71.76 15.76 71.03 C15.73 68.66 15.71 66.3 15.68 63.93 C15.66 62.3 15.64 60.66 15.62 59.03 C15.57 54.72 15.52 50.4 15.47 46.09 C15.42 41.69 15.36 37.3 15.31 32.9 C15.2 24.27 15.1 15.63 15 7 C10.05 6.67 5.1 6.34 0 6 C0 4.02 0 2.04 0 0 Z " fill="#DE0019" transform="translate(14,0)"/>
<path d="M0 0 C0.66 0 1.32 0 2 0 C2.38 0.79 2.76 1.59 3.16 2.41 C4.94 6.11 6.72 9.8 8.5 13.5 C8.82 14.16 9.14 14.82 9.47 15.51 C13.75 24.39 18.08 33.24 22.55 42.03 C23.82 44.63 24.92 47.31 26 50 C22.04 50 18.08 50 14 50 C13.28 47.82 12.57 45.64 11.85 43.46 C10.98 40.94 9.99 38.47 9 36 C3.72 36 -1.56 36 -7 36 C-9.4 41.44 -9.4 41.44 -11.19 46.94 C-11.46 47.95 -11.72 48.96 -12 50 C-29.2 51.63 -29.2 51.63 -35.34 48.05 C-37.87 45.51 -39.95 42.94 -42 40 C-42.63 39.19 -43.27 38.39 -43.92 37.55 C-45.34 35.74 -46.68 33.88 -48 32 C-48 37.94 -48 43.88 -48 50 C-51.63 50 -55.26 50 -59 50 C-58.96 49.23 -58.93 48.45 -58.89 47.66 C-58.2 32.03 -57.82 16.61 -59 1 C-56.12 0.92 -53.25 0.86 -50.38 0.81 C-49.57 0.79 -48.76 0.76 -47.93 0.74 C-41.67 0.66 -37.54 1.8 -32.69 6 C-29.68 9.56 -29.61 13.23 -29.64 17.71 C-30.25 21.6 -32.19 23.32 -35 26 C-35.66 26.33 -36.32 26.66 -37 27 C-36.46 31.31 -33.78 34.26 -31.19 37.56 C-30.75 38.14 -30.31 38.72 -29.86 39.31 C-27.5 42.35 -25.23 44.89 -22 47 C-21.61 45.73 -21.61 45.73 -21.21 44.43 C-19.95 40.85 -18.36 37.55 -16.62 34.19 C-12.8 26.68 -9.14 19.1 -5.5 11.5 C-4.96 10.37 -4.42 9.24 -3.86 8.08 C-2.57 5.39 -1.29 2.69 0 0 Z M-49 7 C-49 12.94 -49 18.88 -49 25 C-42.57 22.98 -42.57 22.98 -39 18 C-38.25 15 -38.25 15 -39 12 C-41.06 9.02 -41.06 9.02 -44 7 C-45.65 7 -47.3 7 -49 7 Z M0 16 C-2.48 21.94 -2.48 21.94 -5 28 C-1.37 28 2.26 28 6 28 C5.57 26.58 5.13 25.15 4.69 23.69 C4.44 22.89 4.2 22.09 3.95 21.26 C3.02 18.64 3.02 18.64 0 16 Z " fill="#17274B" transform="translate(524,0)"/>
<path d="M0 0 C4.55 -0.82 8.47 -1.05 13 0 C16.33 3.17 18.38 6.94 20.67 10.88 C23.29 15.06 26.43 18.88 29.5 22.75 C30.12 23.55 30.75 24.35 31.39 25.17 C34.06 28.7 34.06 28.7 37 32 C37 21.44 37 10.88 37 0 C40.3 0 43.6 0 47 0 C47 16.17 47 32.34 47 49 C37 49 37 49 34.77 47.26 C34.27 46.41 33.77 45.56 33.25 44.69 C32.63 43.71 32 42.72 31.36 41.71 C31.01 41.14 30.65 40.57 30.29 39.98 C27.56 35.78 24.49 31.82 21.5 27.81 C19.36 24.9 17.21 22 15 19 C15 28.9 15 38.8 15 49 C11.7 49 8.4 49 5 49 C5.03 47.76 5.05 46.53 5.08 45.26 C5.17 40.65 5.23 36.05 5.27 31.44 C5.3 29.45 5.33 27.46 5.38 25.47 C5.44 22.61 5.47 19.74 5.49 16.87 C5.51 15.99 5.54 15.11 5.57 14.2 C5.57 7.87 4.12 4.81 0 0 Z " fill="#17274D" transform="translate(295,1)"/>
<path d="M0 0 C5.36 4.3 9.01 8.68 10.75 15.4 C11.5 23.49 12.1 31.8 6.75 38.4 C1.37 44.38 -4.31 47.59 -12.29 48.68 C-19.18 49.02 -25.64 46.97 -31.07 42.71 C-36.06 38.06 -38.86 31.87 -39.46 25.1 C-39.63 16.01 -37.57 9.84 -31.25 3.16 C-23.12 -4.03 -9.47 -5.74 0 0 Z M-25.25 8.4 C-29.47 13.98 -30.9 18.43 -30.25 25.4 C-29.11 31.41 -26.24 35.24 -21.5 39.04 C-17.83 41.26 -14.5 41.8 -10.25 41.4 C-4.97 39.67 -2.43 36.76 0.75 32.4 C2.58 26.9 2.92 20.43 0.8 14.97 C-1.98 10.34 -5.37 6.84 -10.25 4.4 C-16.39 3.65 -20.47 4.17 -25.25 8.4 Z " fill="#18264C" transform="translate(387.25390625,2.6015625)"/>
<path d="M0 0 C3.63 0 7.26 0 11 0 C10.98 1.44 10.98 1.44 10.97 2.92 C10.93 6.52 10.91 10.12 10.89 13.71 C10.88 15.27 10.87 16.82 10.85 18.37 C10.82 20.61 10.81 22.86 10.8 25.1 C10.79 25.78 10.78 26.47 10.77 27.18 C10.77 31.76 11.4 35.69 13 40 C17.72 42.7 21.89 42.17 27 41 C30.56 38.02 30.49 34.43 31 30 C31.09 27.28 31.14 24.59 31.12 21.88 C31.12 21.14 31.12 20.41 31.12 19.65 C31.07 13.06 30.6 6.57 30 0 C33.96 0 37.92 0 42 0 C41.84 1.36 41.68 2.72 41.51 4.12 C40.85 10.75 40.85 17.35 40.88 24 C40.87 25.21 40.87 26.41 40.86 27.66 C40.87 33.91 41.07 40.01 41.88 46.21 C41.92 46.8 41.96 47.39 42 48 C40.11 49.89 37.43 49.24 34.91 49.33 C34.28 49.22 33.65 49.11 33 49 C32.34 48.01 31.68 47.02 31 46 C30.44 46.29 29.89 46.58 29.31 46.88 C23.87 49.52 20.05 50.69 14 50 C9.14 48.28 5.35 45.66 3 41 C0.84 31.89 0.61 22.5 0.38 13.19 C0.34 11.91 0.3 10.63 0.26 9.32 C0.16 6.21 0.08 3.11 0 0 Z " fill="#15274D" transform="translate(248,1)"/>
<path d="M0 0 C13.78 0 13.78 0 18 3 C20.45 6.68 20.83 9.72 20 14 C18.56 16.39 17 18 15 20 C16.45 21.82 17.91 23.63 19.38 25.44 C20.19 26.45 21 27.46 21.84 28.5 C23.75 31.04 23.75 31.04 26 32 C26.27 31.13 26.55 30.27 26.83 29.38 C28.77 23.78 31.39 18.53 33.94 13.19 C34.48 12.03 35.01 10.87 35.57 9.68 C36.09 8.58 36.61 7.49 37.15 6.36 C37.63 5.35 38.1 4.35 38.59 3.31 C40 1 40 1 43 0 C45.12 4.34 47.24 8.68 49.35 13.02 C50.07 14.5 50.79 15.98 51.52 17.45 C52.55 19.58 53.59 21.7 54.62 23.83 C54.94 24.49 55.27 25.14 55.6 25.82 C57.06 28.84 58.38 31.69 59 35 C56.36 35 53.72 35 51 35 C49.68 31.7 48.36 28.4 47 25 C43.37 25 39.74 25 36 25 C35.53 26.46 35.05 27.93 34.56 29.44 C33.12 33.88 33.12 33.88 32 35 C27.46 35.92 23.52 36.05 19 35 C14.51 31.86 11.23 27.35 8 23 C8.01 23.78 8.02 24.56 8.04 25.37 C8.04 26.38 8.05 27.39 8.06 28.44 C8.07 29.45 8.09 30.46 8.1 31.5 C8 34 8 34 7 35 C4.69 35 2.38 35 0 35 C0 23.45 0 11.9 0 0 Z M7 4 C7 8.29 7 12.58 7 17 C12.06 15.52 12.06 15.52 14 12 C13.84 8.75 13.46 7.43 11.06 5.19 C9.11 3.83 9.11 3.83 7 4 Z M41 11 C39.51 14.96 39.51 14.96 38 19 C40.31 19 42.62 19 45 19 C43.73 14.58 43.73 14.58 41 11 Z " fill="#3B83BC" transform="translate(402,75)"/>
<path d="M0 0 C4.62 0 9.24 0 14 0 C14.23 0.99 14.46 1.99 14.7 3.01 C16.68 11.31 19 19.23 22.05 27.21 C23 30 23 30 23 33 C23.66 33 24.32 33 25 33 C25.14 32.05 25.14 32.05 25.29 31.08 C26.47 25.98 28.5 21.18 30.38 16.3 C32.42 10.91 33.87 5.65 35 0 C38.96 0 42.92 0 47 0 C46.04 3.83 44.75 6.92 43.12 10.5 C38.96 19.79 35.31 29.28 31.65 38.77 C31.19 39.95 30.73 41.12 30.26 42.34 C29.85 43.41 29.44 44.47 29.01 45.57 C28 48 28 48 27 49 C24.67 49.04 22.33 49.04 20 49 C19.76 48.37 19.53 47.73 19.28 47.08 C16.54 39.72 13.77 32.36 11 25 C10.65 24.08 10.31 23.16 9.95 22.21 C9.04 19.78 8.11 17.36 7.19 14.94 C6.79 13.88 6.79 13.88 6.38 12.8 C4.63 8.26 2.5 4.18 0 0 Z " fill="#17274B" transform="translate(551,1)"/>
<path d="M0 0 C8.91 0 17.82 0 27 0 C26 5 26 5 24 8 C19.38 7.34 14.76 6.68 10 6 C10.33 10.62 10.66 15.24 11 20 C15.95 20.33 20.9 20.66 26 21 C24.68 23.64 23.36 26.28 22 29 C16.06 28.01 16.06 28.01 10 27 C10.33 31.95 10.66 36.9 11 42 C13.19 41.69 15.37 41.38 17.62 41.06 C18.85 40.89 20.08 40.71 21.35 40.54 C24.58 40.06 27.79 39.55 31 39 C29.02 43.95 29.02 43.95 27 49 C18.09 49 9.18 49 0 49 C0.33 45.7 0.66 42.4 1 39 C1.08 36.85 1.13 34.69 1.13 32.54 C1.13 31.41 1.14 30.28 1.14 29.11 C1.13 27.96 1.13 26.81 1.12 25.62 C1.13 24.48 1.13 23.34 1.14 22.16 C1.14 21.03 1.13 19.9 1.13 18.73 C1.13 17.72 1.13 16.72 1.13 15.68 C0.95 10.44 0.44 5.22 0 0 Z " fill="#17274C" transform="translate(604,1)"/>
<path d="M0 0 C11.88 0 23.76 0 36 0 C35 7 35 7 34 8 C29.59 7.56 25.34 6.88 21 6 C21.12 10.52 21.24 15.03 21.37 19.55 C21.42 21.08 21.46 22.61 21.5 24.15 C21.72 32.47 22.02 40.72 23 49 C19.04 49 15.08 49 11 49 C11.16 47.85 11.32 46.71 11.48 45.53 C12.02 41.2 12.22 36.92 12.32 32.56 C12.34 31.8 12.36 31.03 12.38 30.24 C12.44 27.83 12.5 25.41 12.56 23 C12.61 21.35 12.65 19.7 12.69 18.05 C12.8 14.03 12.9 10.02 13 6 C5.57 7.48 5.57 7.48 -2 9 C-1 2 -1 2 0 0 Z " fill="#17274D" transform="translate(424,1)"/>
<path d="M0 0 C3.81 -0.03 7.62 -0.05 11.44 -0.06 C12.53 -0.07 13.61 -0.08 14.74 -0.09 C15.77 -0.09 16.81 -0.09 17.87 -0.1 C18.83 -0.1 19.79 -0.11 20.78 -0.11 C23 0 23 0 24 1 C24.1 2.7 24.13 4.4 24.13 6.09 C24.13 7.64 24.13 7.64 24.14 9.21 C24.13 10.3 24.13 11.38 24.12 12.5 C24.13 14.13 24.13 14.13 24.14 15.79 C24.14 16.82 24.13 17.85 24.13 18.91 C24.13 19.86 24.13 20.81 24.13 21.79 C24 24 24 24 23 25 C21.38 25.1 19.75 25.13 18.12 25.13 C17.14 25.13 16.16 25.14 15.14 25.14 C14.1 25.13 13.07 25.13 12 25.12 C10.45 25.13 10.45 25.13 8.86 25.14 C7.87 25.14 6.89 25.13 5.88 25.13 C4.96 25.13 4.05 25.13 3.12 25.13 C1 25 1 25 0 24 C-0.09 22.22 -0.11 20.44 -0.1 18.65 C-0.09 17.57 -0.09 16.49 -0.09 15.38 C-0.08 14.24 -0.07 13.11 -0.06 11.94 C-0.06 10.8 -0.05 9.66 -0.05 8.48 C-0.04 5.65 -0.02 2.83 0 0 Z " fill="#17274F" transform="translate(160,2)"/>
<path d="M0 0 C3.63 0 7.26 0 11 0 C10.67 13.86 10.34 27.72 10 42 C19.71 40.45 19.71 40.45 29 38 C28.52 39.46 28.04 40.92 27.56 42.38 C27.3 43.19 27.03 44 26.75 44.84 C26 47 26 47 25 49 C16.75 49 8.5 49 0 49 C0 32.83 0 16.66 0 0 Z " fill="#17274C" transform="translate(639,1)"/>
<path d="M0 0 C13.78 0 13.78 0 18 3 C20.46 6.69 20.58 9.72 20 14 C18.62 16.5 18.62 16.5 17 18 C16.34 18 15.68 18 15 18 C17.5 22.72 20.16 26.53 23.83 30.42 C25 32 25 32 25 35 C20.65 35.19 18.85 34.77 15.57 31.78 C9.54 25.07 9.54 25.07 8 22 C8.01 22.85 8.02 23.71 8.04 24.59 C8.04 25.69 8.05 26.8 8.06 27.94 C8.07 29.04 8.09 30.14 8.1 31.28 C8 34 8 34 7 35 C4.69 35 2.38 35 0 35 C0 23.45 0 11.9 0 0 Z M7 4 C7 8.29 7 12.58 7 17 C12.06 15.52 12.06 15.52 14 12 C13.79 9.14 13.37 7.48 11.62 5.19 C9.93 3.7 9.93 3.7 7 4 Z " fill="#3A83BC" transform="translate(248,75)"/>
<path d="M0 0 C6.87 0.08 6.87 0.08 10 1.88 C12.31 4.31 12.31 4.31 13.44 7.69 C13.29 12.06 12.02 13.95 9.31 17.31 C9.95 17.6 10.59 17.89 11.25 18.19 C13.31 19.31 13.31 19.31 14.31 21.31 C14.88 28.37 14.88 28.37 12.88 31.69 C7.26 35.25 0.82 35.59 -5.69 35.31 C-6.86 31.79 -6.82 28.99 -6.82 25.27 C-6.82 24.59 -6.82 23.91 -6.82 23.21 C-6.82 21.77 -6.82 20.33 -6.82 18.9 C-6.81 16.69 -6.82 14.48 -6.82 12.27 C-6.82 10.88 -6.82 9.48 -6.82 8.09 C-6.82 6.81 -6.82 5.54 -6.82 4.22 C-6.6 -0.76 -4.51 0.11 0 0 Z M0.31 4.31 C0.31 7.61 0.31 10.91 0.31 14.31 C3.6 13.93 3.6 13.93 6.31 12.31 C6.65 9.35 6.65 9.35 6.31 6.31 C3.5 4.04 3.5 4.04 0.31 4.31 Z M0.31 18.31 C0.31 22.27 0.31 26.23 0.31 30.31 C4.79 29.87 4.79 29.87 8.31 27.31 C8.9 24.9 8.9 24.9 8.31 22.31 C6.09 19.92 6.09 19.92 3.31 18.31 C2.32 18.31 1.33 18.31 0.31 18.31 Z " fill="#3B84BC" transform="translate(353.6875,74.6875)"/>
<path d="M0 0 C6.27 0 12.54 0 19 0 C18.67 1.65 18.34 3.3 18 5 C14.42 6.24 11.66 5.75 8 5 C8 7.97 8 10.94 8 14 C11.3 14.33 14.6 14.66 18 15 C17.01 17.47 17.01 17.47 16 20 C13.36 20 10.72 20 8 20 C7.67 23.3 7.34 26.6 7 30 C11.95 29.01 16.9 28.02 22 27 C19 34 19 34 18 35 C15.14 35.07 12.3 35.09 9.44 35.06 C8.63 35.06 7.82 35.05 6.99 35.05 C5 35.04 3 35.02 1 35 C-0.17 31.49 -0.13 28.35 -0.1 24.71 C-0.1 24 -0.09 23.29 -0.09 22.57 C-0.09 20.32 -0.08 18.06 -0.06 15.81 C-0.06 14.28 -0.05 12.76 -0.05 11.23 C-0.04 7.49 -0.02 3.74 0 0 Z " fill="#3C83BB" transform="translate(323,75)"/>
<path d="M0 0 C6.27 0 12.54 0 19 0 C18.34 1.98 17.68 3.96 17 6 C13.7 5.34 10.4 4.68 7 4 C7.33 7.3 7.66 10.6 8 14 C10.97 14.33 13.94 14.66 17 15 C16.67 16.65 16.34 18.3 16 20 C13.03 19.67 10.06 19.34 7 19 C7 22.63 7 26.26 7 30 C11.62 29.01 16.24 28.02 21 27 C20 32 20 32 18 35 C16.12 35.34 16.12 35.34 13.87 35.29 C13.14 35.29 12.42 35.28 11.67 35.27 C10.75 35.24 9.82 35.22 8.88 35.19 C4.48 35.09 4.48 35.09 0 35 C0 23.45 0 11.9 0 0 Z " fill="#3D83BC" transform="translate(276,75)"/>
<path d="M0 0 C1 1 1 1 1.06 4.06 C1.04 5.03 1.02 6 1 7 C0.26 6.65 -0.49 6.3 -1.25 5.94 C-4.13 4.95 -5.21 4.97 -8 6 C-8.33 7.32 -8.66 8.64 -9 10 C-7.93 10.94 -7.93 10.94 -6.85 11.9 C-5.93 12.72 -5.01 13.53 -4.06 14.38 C-3.15 15.19 -2.23 16 -1.29 16.84 C1.81 19.77 1.96 20.47 2.31 24.81 C2.28 28.13 2.01 28.99 0.12 31.94 C-3.01 34.98 -4.73 35.14 -9 35.12 C-9.89 35.13 -10.77 35.13 -11.69 35.13 C-14 35 -14 35 -16 34 C-16 31.69 -16 29.38 -16 27 C-15.46 27.33 -14.93 27.66 -14.38 28 C-11.44 29.24 -9.16 29.21 -6 29 C-4.76 27.96 -4.76 27.96 -4.63 25.7 C-4.75 22.82 -4.75 22.82 -7.15 20.83 C-8.07 20.17 -8.99 19.5 -9.94 18.81 C-14.93 15.14 -14.93 15.14 -16 13 C-16.7 5.91 -16.7 5.91 -13.75 2.06 C-8.89 -1.58 -5.94 -1.12 0 0 Z " fill="#3D83BC" transform="translate(316,75)"/>
<path d="M0 0 C2.64 0 5.28 0 8 0 C9.98 3.63 11.96 7.26 14 11 C15.98 7.37 17.96 3.74 20 0 C22.31 0 24.62 0 27 0 C25.83 2.49 24.52 4.77 23.05 7.11 C17.25 16.63 15.95 23.95 17 35 C14.69 35 12.38 35 10 35 C10.03 33.96 10.06 32.92 10.1 31.84 C10.12 21.12 7.69 14.11 1.93 5.1 C0 2 0 2 0 0 Z " fill="#3C83BD" transform="translate(371,75)"/>
<path d="M0 0 C1 1 1 1 1.19 3.44 C1 6 1 6 -1 8 C-3.5 8.31 -3.5 8.31 -6 8 C-8 5 -8 5 -7.75 2.38 C-7.5 1.59 -7.25 0.81 -7 0 C-4.32 -1.34 -2.85 -0.73 0 0 Z M-4 3 C-3.67 3.66 -3.34 4.32 -3 5 C-2.67 4.34 -2.34 3.68 -2 3 C-2.66 3 -3.32 3 -4 3 Z " fill="#3D82BC" transform="translate(447,66)"/>
</svg>
