<svg id="Hotels_Booking" data-name="Hotels Booking" xmlns="http://www.w3.org/2000/svg" xmlns:xlink="http://www.w3.org/1999/xlink" width="26.352" height="33.9" viewBox="0 0 26.352 33.9">
  <defs>
    <clipPath id="clip-path">
      <rect id="Rectangle_19227" data-name="Rectangle 19227" width="26.352" height="33.901" fill="#264787"/>
    </clipPath>
  </defs>
  <g id="Group_45940" data-name="Group 45940" transform="translate(0 0)">
    <g id="Group_45939" data-name="Group 45939" clip-path="url(#clip-path)">
      <path id="Path_71878" data-name="Path 71878" d="M19.613,99.987H18.238c-.676,0-.94-.251-.94-.891,0-3.792,0-6.862,0-9.66a1.062,1.062,0,0,1,1.21-1.153c.386,0,.772,0,1.159,0q.549,0,1.1,0h.053c0-.014,0-.029,0-.047q0-.471,0-.943c0-.432,0-.878,0-1.318a1.065,1.065,0,0,1,1.217-1.15c2.994,0,5.72,0,8.333,0,.817,0,1.232.392,1.235,1.164,0,.718,0,1.447,0,2.152q0,.529,0,1.058c0,.065,0,.135,0,.191.063,0,.145,0,.22,0l.6,0c.461,0,.938.007,1.4-.008a1.193,1.193,0,0,1,.869.29,1.09,1.09,0,0,1,.331.847c-.015.933-.008,1.884,0,2.8,0,.506.008,1.029.008,1.545a2.459,2.459,0,0,1-.05.437c-.01.055-.019.111-.027.166l-.03.217-.556.141-.142-.14c-.032-.032-.065-.062-.1-.093a2.938,2.938,0,0,1-.244-.248,1.9,1.9,0,0,0-2.052-.577,1.774,1.774,0,0,0-1.354,1.423,5.524,5.524,0,0,0-.035.834c0,.332.015.67.025,1,.009.305.019.621.024.933a.975.975,0,0,1-.269.763,1.126,1.126,0,0,1-.816.267h-9.8m-1.6-.675a.966.966,0,0,0,.227.018q1.123,0,2.246,0h8.929a.51.51,0,0,0,.321-.071.423.423,0,0,0,.069-.292c-.005-.307-.015-.621-.024-.924-.01-.33-.02-.671-.025-1.007a6.084,6.084,0,0,1,.04-.927,2.435,2.435,0,0,1,1.885-1.978,2.62,2.62,0,0,1,2.663.7c0-.5,0-1.011-.008-1.5-.007-.924-.015-1.878,0-2.819a.491.491,0,0,0-.122-.369.509.509,0,0,0-.357-.1c-.48.016-.964.012-1.433.009l-.593,0c-.354,0-.568,0-.741-.158s-.177-.373-.177-.692q0-.529,0-1.058c0-.7,0-1.433,0-2.149,0-.414-.1-.509-.54-.51-2.613,0-5.339,0-8.332,0-.4,0-.519.112-.522.5,0,.437,0,.882,0,1.312q0,.473,0,.945c0,.521-.19.7-.746.7q-.551,0-1.1,0c-.385,0-.77,0-1.155,0-.412,0-.518.1-.519.5,0,2.8,0,5.867,0,9.659a.814.814,0,0,0,.019.217M21.6,97.258H18.9V94.683h2.7Zm-2-.656H20.9V95.339H19.594Zm5.948.638H22.828V94.693h2.714Zm-2.018-.656h1.322V95.349H23.524Zm5.727.656H26.539V94.687h2.712Zm-2.016-.656h1.32v-1.24h-1.32ZM29.255,93.8H26.543V91.249h2.711Zm-2.015-.656h1.319V91.905H27.239Zm-1.705.655h-2.7V91.246h2.7Zm-2-.656h1.308V91.9H23.531ZM21.6,93.8H18.9V91.249h2.7Zm-2-.656H20.9V91.906H19.6Zm13.642.65H30.517V91.256H33.24Zm-2.027-.656h1.331V91.913H31.213Zm-1.957-3H26.534V87.6h2.722Zm-2.026-.656h1.33v-1.22H27.23Zm-1.684.654H22.835V87.592h2.711Zm-2.015-.656H24.85V88.249H23.531Z" transform="translate(-14.517 -76.027)" fill="#264787"/>
      <path id="Path_71878_-_Outline" data-name="Path 71878 - Outline" d="M19.467,99.946H18.093c-.732,0-1.044-.3-1.045-1,0-3.8,0-6.872,0-9.66a1.166,1.166,0,0,1,1.314-1.257c.376,0,.758,0,1.128,0h.039c.341,0,.693,0,1.04,0,0-.3,0-.6,0-.886,0-.408,0-.869,0-1.319A1.169,1.169,0,0,1,21.9,84.569h3.95l4.383,0a1.17,1.17,0,0,1,1.339,1.268c0,.728,0,1.485,0,2.153q0,.529,0,1.057v.007c0,.027,0,.054,0,.081h.118l.6,0h.005c.2,0,.4,0,.6,0,.307,0,.558,0,.789-.011h.057a1.277,1.277,0,0,1,.886.318,1.192,1.192,0,0,1,.364.926c-.015.93-.008,1.879,0,2.8v.039c0,.5.008,1.008.008,1.512a2.536,2.536,0,0,1-.051.454c-.01.054-.019.109-.027.163l-.04.287L34.2,95.8l-.184-.182-.093-.088,0,0a3.019,3.019,0,0,1-.252-.257,1.621,1.621,0,0,0-1.322-.618,2.91,2.91,0,0,0-.627.075,1.667,1.667,0,0,0-1.274,1.335,5.434,5.434,0,0,0-.034.819c0,.326.015.66.024.982v.013c.009.3.019.62.024.935a1.073,1.073,0,0,1-.3.84,1.224,1.224,0,0,1-.889.3h-9.8Zm6.379-15.169H21.9c-.733,0-1.107.353-1.113,1.046,0,.448,0,.91,0,1.317,0,.309,0,.629,0,.943,0,.018,0,.034,0,.048l0,.1-.1,0h-.055c-.364,0-.734,0-1.091,0h-.039c-.369,0-.751,0-1.127,0-.734,0-1.106.357-1.107,1.049,0,2.788,0,5.858,0,9.66,0,.58.219.786.836.787q1.124,0,2.248,0H29.27a1.029,1.029,0,0,0,.744-.238.877.877,0,0,0,.236-.686c-.005-.313-.015-.628-.024-.932v-.013c-.01-.323-.02-.658-.025-.986a5.615,5.615,0,0,1,.036-.85,1.882,1.882,0,0,1,1.435-1.511,3.119,3.119,0,0,1,.672-.08,1.839,1.839,0,0,1,1.482.692,2.857,2.857,0,0,0,.235.239l0,0c.032.03.065.061.1.092l.1.1.43-.109.02-.148c.008-.057.018-.114.028-.17a2.379,2.379,0,0,0,.048-.419c0-.5,0-1.015-.008-1.51v-.039c-.007-.919-.014-1.869,0-2.8a.989.989,0,0,0-.3-.769,1.092,1.092,0,0,0-.795-.262c-.234.008-.487.012-.8.012-.2,0-.408,0-.605,0h-.005l-.6,0c-.07,0-.157,0-.224,0l-.1,0,0-.1c0-.055,0-.122,0-.187v-.007q0-.529,0-1.058c0-.668,0-1.424,0-2.152s-.372-1.059-1.131-1.06Zm1,14.513H20.271q-1.089,0-2.177,0a1.1,1.1,0,0,1-.254-.021l-.056-.015-.017-.056a.939.939,0,0,1-.024-.248c0-3.8,0-6.871,0-9.659,0-.453.152-.6.623-.6.373,0,.751,0,1.117,0h.038c.361,0,.733,0,1.1,0,.5,0,.64-.137.642-.6,0-.314,0-.633,0-.942v-.025c0-.423,0-.861,0-1.291s.167-.6.626-.6H25.8l4.425,0c.492,0,.642.144.644.614,0,.722,0,1.448,0,2.15q0,.529,0,1.058c0,.326.006.489.143.614s.33.13.67.131l.594,0c.2,0,.408,0,.614,0,.315,0,.574,0,.815-.012h.031a.5.5,0,0,1,.557.578c-.015.936-.008,1.886,0,2.8v.045c0,.482.007.981.008,1.472v.266l-.181-.195A2.336,2.336,0,0,0,32.342,94a3.628,3.628,0,0,0-.785.092,2.329,2.329,0,0,0-1.8,1.89,5.989,5.989,0,0,0-.039.911c0,.331.015.667.025.991V97.9c.009.3.019.613.024.919a.5.5,0,0,1-.1.369.578.578,0,0,1-.393.1Zm-5.593-.209H29.27a.46.46,0,0,0,.248-.042.365.365,0,0,0,.036-.215c0-.3-.014-.615-.024-.916v-.021c-.01-.326-.02-.662-.025-.995a6.173,6.173,0,0,1,.041-.943,2.541,2.541,0,0,1,1.965-2.066,3.837,3.837,0,0,1,.83-.1,2.536,2.536,0,0,1,1.751.65c0-.409,0-.82-.007-1.221v-.045c-.007-.92-.014-1.872,0-2.81a.4.4,0,0,0-.089-.29A.394.394,0,0,0,33.738,90h-.024c-.242.008-.5.012-.821.012-.207,0-.414,0-.614,0l-.594,0a1.093,1.093,0,0,1-.811-.185c-.212-.193-.211-.435-.211-.769q0-.529,0-1.059c0-.7,0-1.427,0-2.149,0-.186-.023-.286-.074-.335s-.161-.071-.362-.071l-4.425,0H21.9c-.344,0-.415.067-.417.4,0,.429,0,.866,0,1.289v.025c0,.309,0,.629,0,.943,0,.576-.241.8-.85.805-.368,0-.742,0-1.1,0h-.038c-.366,0-.744,0-1.116,0-.353,0-.415.061-.415.393,0,2.788,0,5.857,0,9.659,0,.056,0,.1,0,.126.031,0,.075,0,.137.005q1.088,0,2.177,0Zm.3-1.864H18.648V94.433h2.907Zm-2.7-.209h2.489V94.642H18.857ZM25.5,97.2H22.578V94.443H25.5Zm-2.714-.209h2.5V94.651h-2.5Zm6.423.209H26.289V94.437h2.921ZM26.5,96.989H29V94.646H26.5Zm-5.639-.429H19.344V95.089h1.515Zm-1.306-.209h1.1V95.3h-1.1Zm5.252.191H23.274V95.1h1.531Zm-1.322-.209H24.6V95.308H23.483Zm5.031.209H26.985V95.093h1.529Zm-1.32-.209h1.111V95.3H27.194Zm2.019-2.573h-2.92V91h2.92ZM26.5,93.551H29V91.208H26.5Zm-1.009.208H22.585V91h2.909Zm-2.7-.209h2.491V91.205H22.794Zm-1.234.208H18.652V91H21.56Zm-2.7-.209h2.49v-2.34h-2.49Zm14.338.2H30.267V91.006H33.2Zm-2.723-.209H32.99V91.215H30.476ZM28.518,93.1H26.989V91.655h1.528ZM27.2,92.895h1.11v-1.03H27.2Zm-2.4.208H23.281v-1.45H24.8Zm-1.308-.209h1.1V91.861h-1.1Zm-2.626.208H19.348V91.656h1.516Zm-1.307-.209h1.1V91.865h-1.1Zm12.946.2h-1.54V91.663H32.5Zm-1.331-.209h1.122V91.872H31.172Zm-1.957-2.794H26.284V87.35h2.931Zm-2.722-.209h2.513V87.559H26.493Zm-.988.207h-2.92V87.342H25.5Zm-2.711-.209h2.5V87.551h-2.5Zm5.725-.445H26.98V88.006h1.539Zm-1.33-.209H28.31V88.215H27.188Zm-2.38.207H23.281V88h1.528Zm-1.319-.209H24.6V88.208h-1.11Z" transform="translate(-14.371 -75.882)" fill="#264787"/>
      <path id="Path_71879" data-name="Path 71879" d="M163.027,252.664a2.03,2.03,0,0,1-1.669-.829c-.863-1.106-1.747-2.226-2.6-3.309-.463-.586-.925-.238-1.387-.825a1.554,1.554,0,0,1,.142-2.185,1.621,1.621,0,0,1,2.23.06c.282.28.553.575.815.862,0-.118,0-.236,0-.352q-.017-.871-.035-1.742c-.026-1.232-.052-2.507-.068-3.761a2.3,2.3,0,0,1,.174-.926,1.562,1.562,0,0,1,1.773-.892,1.619,1.619,0,0,1,1.334,1.505c.025.521.039,1.049.052,1.56l.011.41q.017.627.033,1.254.019.748.04,1.5a.652.652,0,0,0,.018.154.641.641,0,0,0,.15.011l.492-.006c.727-.008,1.479-.017,2.215-.049a2.388,2.388,0,0,1,1.783.576,2.351,2.351,0,0,1,.686,1.714c.011.5.016.069.02.557q0,.452.01.9l0,.187c.007.485.014.986.03,1.477a1.837,1.837,0,0,1-1.809,2.039c-.41.03-.824.035-1.225.04-.175,0-.351,0-.526.008l-.861.02q-.878.02-1.757.042h-.068m-4.435-6.911a.952.952,0,0,0-.641.25.9.9,0,0,0-.066,1.292c.461.586.924.239,1.386.824.856,1.084,1.742,2.2,2.606,3.312a1.375,1.375,0,0,0,1.2.575q.88-.024,1.76-.042l.86-.02c.178,0,.356-.006.534-.008.39,0,.794-.009,1.184-.038a1.2,1.2,0,0,0,1.2-1.363c-.016-.5-.023-1-.03-1.489l0-.186c0-.3-.007-.605-.01-.908,0-.486-.009-.055-.02-.548a1.715,1.715,0,0,0-.479-1.25,1.754,1.754,0,0,0-1.306-.4c-.746.033-1.5.041-2.236.05l-.491.006a.72.72,0,0,1-.832-.8q-.021-.749-.04-1.5-.016-.626-.033-1.252l-.011-.411c-.013-.507-.027-1.032-.052-1.546a.972.972,0,0,0-.81-.894.9.9,0,0,0-1.039.51,1.657,1.657,0,0,0-.12.656c.016,1.251.042,2.524.068,3.755q.018.871.035,1.743c0,.256,0,.515,0,.765q0,.174,0,.347v.178l-.475.309-.185-.239-.06-.079a1.554,1.554,0,0,0-.1-.128l-.289-.314c-.266-.29-.541-.591-.822-.87a.971.971,0,0,0-.686-.289" transform="translate(-143.811 -218.763)" fill="#3b85c1"/>
      <path id="Path_71880" data-name="Path 71880" d="M105.23,5.223a.471.471,0,0,1-.267-.079.614.614,0,0,1-.225-.593l0-.037c.016-.087.03-.176.045-.266.037-.225.076-.458.133-.693a.234.234,0,0,0-.087-.285c-.262-.232-.5-.486-.736-.732a.578.578,0,0,1-.184-.591.57.57,0,0,1,.487-.368c.336-.063.665-.122,1-.152.133-.012.192-.044.254-.2A6.67,6.67,0,0,1,106.07.4a.816.816,0,0,1,.482-.393c.31-.064.528.279.587.385.182.327.331.622.454.9.046.1.066.106.138.113.334.032.664.094.983.153l.046.009a.584.584,0,0,1,.508.371.583.583,0,0,1-.191.6c-.3.32-.557.574-.8.8-.041.038-.05.046-.032.129.084.407.143.741.186,1.051a.654.654,0,0,1-.211.6.654.654,0,0,1-.62,0c-.305-.143-.616-.3-.95-.485a.087.087,0,0,0-.113,0c-.339.185-.657.349-.972.5a.758.758,0,0,1-.33.086M104.678,2.2c.192.2.388.4.591.583a.877.877,0,0,1,.289.931c-.051.211-.088.432-.123.645l-.021.123c.26-.128.524-.266.8-.418a.733.733,0,0,1,.744,0c.279.154.54.289.8.411-.039-.257-.09-.537-.159-.869a.738.738,0,0,1,.23-.744c.208-.192.425-.406.674-.667-.276-.051-.56-.1-.835-.128a.774.774,0,0,1-.676-.5c-.106-.241-.233-.495-.386-.775a5.842,5.842,0,0,0-.344.691.893.893,0,0,1-.8.6c-.256.023-.516.066-.781.115" transform="translate(-94.386 2.686)" fill="#264787"/>
      <path id="Path_71880_-_Outline" data-name="Path 71880 - Outline" d="M105.085,5.182a.573.573,0,0,1-.325-.1.71.71,0,0,1-.271-.687V4.393l.005-.043c.014-.078.027-.157.041-.24l0-.025c.037-.226.076-.46.134-.7.024-.1.018-.117-.055-.182-.266-.236-.508-.491-.742-.738a.678.678,0,0,1-.208-.695.67.67,0,0,1,.567-.438c.338-.064.67-.123,1.01-.154.095-.009.119-.015.166-.132A6.771,6.771,0,0,1,105.833.2a.922.922,0,0,1,.551-.443.484.484,0,0,1,.1-.01.778.778,0,0,1,.6.447c.184.33.334.628.458.912a.366.366,0,0,0,.024.048l.029,0c.339.033.67.094.991.154l.046.009a.682.682,0,0,1,.588.441.681.681,0,0,1-.214.7c-.3.321-.56.577-.808.806l-.006.005c0,.006,0,.014,0,.026.085.41.144.746.188,1.057a.749.749,0,0,1-.255.7.586.586,0,0,1-.341.1.932.932,0,0,1-.383-.088c-.307-.144-.62-.3-.956-.489l-.007,0-.006,0c-.34.186-.66.35-.977.5A.867.867,0,0,1,105.085,5.182Zm-.387-.767a.517.517,0,0,0,.179.5.484.484,0,0,0,.493-.014c.314-.152.63-.315.968-.5a.185.185,0,0,1,.214,0c.332.183.641.34.944.482a.722.722,0,0,0,.294.068.382.382,0,0,0,.222-.062.56.56,0,0,0,.168-.5c-.043-.307-.1-.638-.185-1.044a.2.2,0,0,1,.064-.227c.245-.226.5-.478.8-.8a.5.5,0,0,0,.167-.494.5.5,0,0,0-.427-.3l-.046-.009c-.317-.059-.644-.12-.974-.152-.113-.011-.164-.039-.224-.175-.122-.278-.269-.57-.45-.894-.032-.057-.2-.34-.419-.34a.274.274,0,0,0-.056.006.713.713,0,0,0-.413.343,6.57,6.57,0,0,0-.409.816.351.351,0,0,1-.341.261c-.33.03-.657.088-.99.151a.471.471,0,0,0-.407.3.479.479,0,0,0,.161.486c.231.244.47.5.729.725a.335.335,0,0,1,.12.388c-.057.233-.095.463-.131.685l0,.025c-.014.083-.027.161-.041.24Zm.436.1.034-.2.015-.087.006-.036c.036-.215.072-.437.125-.653a.771.771,0,0,0-.257-.828c-.216-.191-.422-.4-.6-.589l-.133-.14.19-.035c.237-.044.517-.091.791-.116a.787.787,0,0,0,.715-.538,5.93,5.93,0,0,1,.35-.7l.092-.162.09.164c.155.283.283.539.391.783a.669.669,0,0,0,.59.44c.281.027.571.079.844.129l.19.035-.133.14c-.251.263-.467.477-.679.672a.633.633,0,0,0-.2.646c.07.337.12.615.16.875l.03.2-.178-.085c-.257-.123-.519-.258-.8-.413a.629.629,0,0,0-.643,0c-.281.153-.545.291-.807.42Zm-.389-2.4c.159.164.3.305.45.436a.985.985,0,0,1,.322,1.034c-.044.182-.078.372-.109.558.2-.1.4-.208.616-.325a.84.84,0,0,1,.844,0c.213.117.414.223.61.32-.034-.2-.075-.417-.126-.666a.845.845,0,0,1,.262-.842c.17-.157.342-.325.535-.523-.21-.037-.426-.072-.635-.092a.881.881,0,0,1-.761-.564c-.083-.189-.18-.387-.292-.6a5.177,5.177,0,0,0-.245.513,1,1,0,0,1-.89.668C105.128,2.057,104.928,2.087,104.743,2.119Z" transform="translate(-94.241 2.832)" fill="#264787"/>
      <path id="Path_71881" data-name="Path 71881" d="M187.242,25.09a.327.327,0,0,1-.186-.055.428.428,0,0,1-.157-.414l0-.026c.011-.06.021-.122.032-.185.026-.157.053-.319.093-.483a.163.163,0,0,0-.061-.2c-.183-.162-.35-.339-.513-.51a.4.4,0,0,1-.129-.412.4.4,0,0,1,.339-.256c.234-.044.464-.085.7-.106.093-.008.134-.03.177-.137a4.637,4.637,0,0,1,.289-.577.568.568,0,0,1,.336-.274c.216-.045.368.194.409.268.127.228.231.434.316.629.032.073.046.074.1.079.233.023.463.065.685.107l.032.006a.375.375,0,0,1,.221.675c-.21.223-.388.4-.56.558-.029.026-.035.032-.023.09.059.284.1.516.13.732a.38.38,0,0,1-.58.419c-.213-.1-.429-.21-.662-.338a.06.06,0,0,0-.079,0c-.236.129-.458.243-.677.35a.529.529,0,0,1-.23.06m-.385-2.11c.134.14.271.281.412.406a.611.611,0,0,1,.2.649c-.036.147-.061.3-.086.45l-.014.086c.181-.09.365-.185.56-.291a.511.511,0,0,1,.518,0c.194.107.377.2.554.286-.027-.179-.063-.374-.111-.606a.514.514,0,0,1,.16-.519c.145-.134.3-.283.47-.465-.193-.036-.39-.071-.582-.089a.54.54,0,0,1-.471-.35c-.074-.168-.162-.345-.269-.54a4.077,4.077,0,0,0-.239.482.623.623,0,0,1-.559.42c-.178.016-.36.046-.544.08" transform="translate(-171.395 -17.356)" fill="#264787"/>
      <path id="Path_71881_-_Outline" data-name="Path 71881 - Outline" d="M187.1,25.049a.435.435,0,0,1-.244-.073.521.521,0,0,1-.2-.507v-.006l0-.032c.01-.058.02-.117.03-.177v-.007c.026-.159.053-.322.094-.491.014-.058.013-.059-.029-.1-.186-.165-.355-.343-.519-.516a.5.5,0,0,1-.153-.516.5.5,0,0,1,.419-.327c.237-.044.469-.086.707-.108.056-.005.062-.006.09-.072a4.74,4.74,0,0,1,.3-.59.674.674,0,0,1,.405-.324.369.369,0,0,1,.075-.008.573.573,0,0,1,.447.328c.129.231.234.44.321.638l.008.017h0c.238.023.47.066.694.108l.032.006a.477.477,0,0,1,.278.85c-.208.22-.385.4-.556.555h0c.059.286.1.521.131.739a.554.554,0,0,1-.191.517.439.439,0,0,1-.256.075.682.682,0,0,1-.28-.064c-.212-.1-.427-.209-.658-.336-.234.127-.454.241-.671.346A.636.636,0,0,1,187.1,25.049Zm-.239-.564a.328.328,0,0,0,.111.317.307.307,0,0,0,.312-.012c.218-.106.438-.219.673-.347a.16.16,0,0,1,.179,0c.231.127.445.237.656.335a.471.471,0,0,0,.192.044.235.235,0,0,0,.137-.037.356.356,0,0,0,.1-.317c-.03-.213-.071-.444-.129-.725a.166.166,0,0,1,.054-.188c.17-.157.346-.333.555-.553a.273.273,0,0,0-.164-.5l-.032-.006c-.22-.041-.447-.083-.676-.105a.19.19,0,0,1-.182-.141c-.085-.192-.187-.4-.312-.621-.021-.037-.13-.22-.264-.22a.159.159,0,0,0-.032,0,.475.475,0,0,0-.267.224,4.539,4.539,0,0,0-.283.564.275.275,0,0,1-.264.2c-.229.021-.455.061-.687.1a.3.3,0,0,0-.259.186.3.3,0,0,0,.1.308c.161.17.327.345.506.5a.266.266,0,0,1,.093.3c-.039.161-.066.321-.091.475v.007c-.01.06-.02.119-.03.177Zm.231.124.048-.287c.025-.151.051-.306.087-.457a.508.508,0,0,0-.17-.546c-.136-.121-.266-.252-.418-.412l-.133-.14.19-.035c.167-.031.363-.064.554-.081a.52.52,0,0,0,.472-.356,4.17,4.17,0,0,1,.245-.494l.092-.162.09.164c.108.2.2.377.273.548a.438.438,0,0,0,.385.288c.2.019.4.055.591.091l.19.035-.133.14c-.176.184-.327.333-.475.47a.412.412,0,0,0-.129.421c.048.231.084.431.112.611l.03.2-.178-.085c-.18-.086-.363-.181-.559-.289a.409.409,0,0,0-.418,0c-.2.107-.381.2-.563.293Zm-.165-1.706c.094.1.181.18.27.259a.716.716,0,0,1,.234.752c-.026.106-.046.216-.065.325.121-.062.244-.127.373-.2a.618.618,0,0,1,.619,0c.128.07.249.135.368.194-.021-.123-.047-.256-.077-.4a.619.619,0,0,1,.192-.617c.105-.1.212-.2.329-.32-.127-.022-.256-.041-.381-.053a.644.644,0,0,1-.557-.412c-.051-.116-.109-.236-.175-.363-.057.108-.1.207-.142.3a.728.728,0,0,1-.647.485C187.152,22.869,187.035,22.885,186.923,22.9Z" transform="translate(-171.249 -17.21)" fill="#264787"/>
      <path id="Path_71882" data-name="Path 71882" d="M45.284,25.09a.328.328,0,0,1-.186-.055.428.428,0,0,1-.157-.414l0-.026c.011-.06.021-.122.032-.185.026-.157.053-.319.093-.483a.163.163,0,0,0-.061-.2c-.183-.162-.35-.339-.513-.51a.4.4,0,0,1-.129-.412.4.4,0,0,1,.339-.256c.234-.044.464-.085.7-.106.093-.008.133-.03.177-.137a4.633,4.633,0,0,1,.289-.577.568.568,0,0,1,.336-.274c.216-.045.368.194.409.268.127.228.231.434.316.629.032.073.046.074.1.079.233.023.463.065.685.107l.032.006a.375.375,0,0,1,.221.675c-.21.223-.388.4-.56.558-.029.026-.035.032-.023.09.059.284.1.516.13.732a.38.38,0,0,1-.58.419c-.213-.1-.429-.21-.662-.338a.06.06,0,0,0-.079,0c-.236.129-.458.243-.677.35a.529.529,0,0,1-.23.06M44.9,22.98c.134.14.271.281.412.406a.611.611,0,0,1,.2.649c-.036.147-.061.3-.086.45l-.014.086c.181-.09.365-.185.56-.291a.511.511,0,0,1,.518,0c.194.107.377.2.554.286-.027-.179-.063-.374-.111-.606a.514.514,0,0,1,.16-.519c.145-.134.3-.283.47-.465-.193-.036-.39-.071-.582-.089a.54.54,0,0,1-.471-.35c-.074-.168-.162-.345-.269-.54A4.08,4.08,0,0,0,46,22.48a.623.623,0,0,1-.559.42c-.178.016-.36.046-.544.08" transform="translate(-38.754 -17.356)" fill="#264787"/>
      <path id="Path_71882_-_Outline" data-name="Path 71882 - Outline" d="M45.138,25.049a.43.43,0,0,1-.244-.073.521.521,0,0,1-.2-.507v-.006l0-.032c.01-.058.02-.117.03-.177v-.007c.026-.159.053-.323.094-.491.014-.058.013-.059-.029-.1-.186-.165-.355-.343-.519-.515a.5.5,0,0,1-.153-.517.5.5,0,0,1,.419-.327c.237-.044.469-.086.707-.108.056-.005.062-.006.09-.072a4.736,4.736,0,0,1,.3-.59.674.674,0,0,1,.405-.324.369.369,0,0,1,.075-.008.573.573,0,0,1,.447.328c.129.231.234.44.321.638l.008.017h0c.238.023.47.066.694.108l.032.006a.477.477,0,0,1,.278.85c-.208.22-.385.4-.556.555h0c.059.286.1.521.131.739a.554.554,0,0,1-.191.517.439.439,0,0,1-.256.075.682.682,0,0,1-.28-.064c-.212-.1-.427-.209-.658-.336-.234.127-.454.241-.671.346A.636.636,0,0,1,45.138,25.049Zm-.239-.564a.327.327,0,0,0,.111.317.307.307,0,0,0,.312-.012c.218-.106.438-.219.673-.347a.16.16,0,0,1,.179,0c.231.127.445.237.656.335a.471.471,0,0,0,.192.044.235.235,0,0,0,.137-.037.356.356,0,0,0,.1-.317c-.03-.214-.071-.444-.129-.725a.166.166,0,0,1,.054-.188c.17-.157.346-.333.555-.553a.273.273,0,0,0-.164-.5l-.032-.006c-.22-.041-.447-.083-.676-.105a.19.19,0,0,1-.182-.141c-.085-.192-.187-.4-.312-.621-.02-.037-.13-.22-.264-.22a.159.159,0,0,0-.032,0,.475.475,0,0,0-.267.224,4.535,4.535,0,0,0-.283.564.275.275,0,0,1-.264.2c-.229.021-.455.061-.687.1a.3.3,0,0,0-.259.186.3.3,0,0,0,.1.308c.161.17.328.345.506.5a.266.266,0,0,1,.093.3c-.039.16-.065.321-.091.475v.007c-.01.06-.02.119-.03.177Zm.231.124.048-.287c.025-.151.051-.306.087-.457a.508.508,0,0,0-.17-.546c-.136-.121-.266-.252-.419-.412l-.133-.14.19-.035c.167-.031.363-.064.554-.081a.52.52,0,0,0,.472-.356,4.171,4.171,0,0,1,.245-.494l.092-.162.09.164c.108.2.2.377.273.548a.438.438,0,0,0,.385.288c.2.019.4.055.591.091l.19.035-.133.14c-.176.184-.327.333-.475.47a.412.412,0,0,0-.129.421c.048.232.085.432.112.611l.03.2-.178-.085c-.18-.086-.363-.181-.559-.289a.409.409,0,0,0-.418,0c-.2.107-.381.2-.563.293ZM44.965,22.9c.094.1.181.18.27.259a.716.716,0,0,1,.234.752c-.026.106-.046.216-.065.325.121-.062.244-.127.373-.2a.618.618,0,0,1,.619,0c.128.07.249.135.368.194-.021-.123-.047-.256-.077-.4a.619.619,0,0,1,.192-.617c.105-.1.212-.2.329-.32-.127-.022-.256-.041-.381-.053a.644.644,0,0,1-.557-.412c-.051-.116-.109-.236-.175-.363-.057.108-.1.207-.142.3a.728.728,0,0,1-.647.485C45.194,22.869,45.077,22.885,44.965,22.9Z" transform="translate(-38.608 -17.21)" fill="#264787"/>
      <path id="Path_71883" data-name="Path 71883" d="M243.816,43.979a.264.264,0,0,1-.15-.044.345.345,0,0,1-.126-.333l0-.021c.009-.049.017-.1.025-.149.021-.127.043-.257.075-.389a.132.132,0,0,0-.049-.16c-.147-.131-.282-.273-.413-.411a.324.324,0,0,1-.1-.332.32.32,0,0,1,.273-.207c.189-.035.374-.069.562-.086.075-.007.108-.024.143-.11a3.742,3.742,0,0,1,.233-.465.458.458,0,0,1,.271-.221c.174-.036.3.156.33.216.1.184.186.35.255.507.026.059.037.06.078.064.188.018.373.053.552.086l.026,0a.3.3,0,0,1,.178.544c-.17.18-.313.322-.451.45-.023.021-.028.026-.018.072.047.229.081.416.1.59a.306.306,0,0,1-.467.338c-.171-.08-.346-.169-.534-.273a.049.049,0,0,0-.064,0c-.19.1-.369.2-.546.282a.426.426,0,0,1-.186.048m-.31-1.7c.108.113.218.226.332.327a.492.492,0,0,1,.163.523c-.029.119-.049.242-.069.362l-.011.069c.146-.072.294-.149.451-.235a.411.411,0,0,1,.418,0c.157.086.3.162.447.231-.022-.144-.051-.3-.089-.488a.414.414,0,0,1,.129-.418c.117-.108.239-.228.379-.375-.155-.029-.314-.057-.469-.072a.435.435,0,0,1-.38-.282c-.059-.135-.131-.278-.217-.435a3.28,3.28,0,0,0-.193.388.5.5,0,0,1-.451.339c-.144.013-.29.037-.439.065" transform="translate(-224.424 -35.665)" fill="#264787"/>
      <path id="Path_71883_-_Outline" data-name="Path 71883 - Outline" d="M243.67,43.938a.372.372,0,0,1-.208-.062.439.439,0,0,1-.172-.427v-.006l0-.027c.009-.048.017-.1.025-.147.021-.129.043-.262.076-.4a.116.116,0,0,0,.005-.035.217.217,0,0,0-.022-.022c-.151-.134-.288-.278-.42-.417a.4.4,0,0,1,.226-.713c.191-.036.379-.07.571-.087a.109.109,0,0,0,.034-.006h0a.128.128,0,0,0,.021-.04,3.843,3.843,0,0,1,.24-.478.563.563,0,0,1,.34-.271.317.317,0,0,1,.064-.007.48.48,0,0,1,.378.275c.1.186.189.355.259.516v0c.188.019.372.053.55.086l.028.005a.4.4,0,0,1,.235.719c-.165.175-.306.315-.441.44.047.226.08.412.1.586a.467.467,0,0,1-.163.436.374.374,0,0,1-.218.064.566.566,0,0,1-.234-.054c-.168-.078-.339-.166-.522-.266-.185.1-.36.19-.532.274A.532.532,0,0,1,243.67,43.938Zm-.172-.473c-.01.176.058.222.08.237a.229.229,0,0,0,.232-.011c.175-.085.352-.176.542-.28a.149.149,0,0,1,.164,0c.186.1.358.19.528.27a.358.358,0,0,0,.146.034.17.17,0,0,0,.1-.026.266.266,0,0,0,.075-.236c-.024-.172-.057-.357-.1-.583a.154.154,0,0,1,.05-.17c.136-.125.278-.267.446-.445a.235.235,0,0,0,.084-.232c-.023-.071-.092-.117-.2-.138l-.026,0c-.178-.033-.36-.067-.543-.085a.172.172,0,0,1-.163-.126c-.068-.155-.15-.318-.251-.5-.043-.077-.12-.167-.2-.167l-.022,0a.362.362,0,0,0-.2.171,3.643,3.643,0,0,0-.227.452.241.241,0,0,1-.23.175c-.183.017-.366.049-.552.084-.131.025-.178.088-.193.136a.226.226,0,0,0,.08.228c.129.136.263.277.407.4a.234.234,0,0,1,.081.263c-.031.129-.053.257-.073.382-.008.051-.017.1-.025.148Zm.14.134.045-.27c.02-.123.041-.248.071-.37a.387.387,0,0,0-.13-.42c-.11-.1-.215-.2-.338-.334l-.133-.14.19-.035c.135-.025.293-.052.448-.066a.4.4,0,0,0,.364-.274,3.371,3.371,0,0,1,.2-.4l.092-.162.09.164c.088.16.16.305.221.443a.33.33,0,0,0,.294.22c.161.016.324.045.478.073l.19.035-.133.14c-.142.149-.264.27-.383.38a.31.31,0,0,0-.1.32c.039.19.068.347.09.494l.03.2-.178-.085c-.145-.069-.292-.146-.452-.233a.309.309,0,0,0-.317,0c-.158.086-.307.164-.455.237Zm-.065-1.4c.065.065.126.124.189.18a.6.6,0,0,1,.195.626c-.017.072-.032.146-.045.22.086-.044.173-.091.264-.14a.518.518,0,0,1,.518,0c.09.049.176.1.26.138-.016-.087-.034-.18-.055-.283a.518.518,0,0,1,.161-.516c.076-.07.154-.145.237-.23-.089-.015-.179-.028-.267-.036a.538.538,0,0,1-.465-.344c-.036-.082-.077-.167-.122-.256-.037.073-.069.141-.1.207a.606.606,0,0,1-.538.4C243.73,42.18,243.65,42.191,243.573,42.2Z" transform="translate(-224.279 -35.52)" fill="#264787"/>
      <path id="Path_71884" data-name="Path 71884" d="M.752,43.979a.264.264,0,0,1-.15-.044A.345.345,0,0,1,.476,43.6l0-.021c.009-.049.017-.1.025-.149.021-.127.043-.257.075-.389a.132.132,0,0,0-.049-.16c-.147-.131-.282-.273-.413-.411a.325.325,0,0,1-.1-.332.32.32,0,0,1,.273-.207c.189-.035.374-.069.562-.086.075-.007.108-.024.143-.11a3.746,3.746,0,0,1,.233-.465.458.458,0,0,1,.271-.221c.174-.036.3.156.33.216.1.184.186.35.255.507.026.059.037.06.078.064.188.018.373.053.552.086l.026,0a.3.3,0,0,1,.178.544c-.17.18-.313.322-.451.45-.023.021-.028.026-.018.072.047.229.081.416.1.59a.367.367,0,0,1-.119.336.367.367,0,0,1-.349,0c-.171-.08-.346-.169-.534-.273a.049.049,0,0,0-.064,0c-.19.1-.369.2-.546.282a.426.426,0,0,1-.186.048m-.31-1.7c.108.113.218.226.332.327a.493.493,0,0,1,.163.523c-.029.119-.049.242-.069.362l-.011.069c.146-.072.294-.149.451-.235a.411.411,0,0,1,.418,0c.157.086.3.162.447.231-.022-.144-.051-.3-.089-.488a.414.414,0,0,1,.129-.418c.117-.108.239-.228.379-.375-.155-.029-.314-.057-.469-.072a.435.435,0,0,1-.38-.282c-.059-.135-.131-.278-.217-.435a3.279,3.279,0,0,0-.193.388.5.5,0,0,1-.451.339c-.144.013-.29.037-.439.065" transform="translate(2.687 -35.665)" fill="#264787"/>
      <path id="Path_71884_-_Outline" data-name="Path 71884 - Outline" d="M.606,43.938A.372.372,0,0,1,.4,43.876a.439.439,0,0,1-.172-.427v-.006l0-.027c.009-.048.017-.1.025-.148.021-.128.043-.261.076-.4a.116.116,0,0,0,.005-.035.218.218,0,0,0-.022-.022c-.151-.134-.288-.278-.42-.417a.424.424,0,0,1-.127-.436.42.42,0,0,1,.354-.277c.191-.036.379-.07.571-.087a.11.11,0,0,0,.034-.006.128.128,0,0,0,.021-.04,3.846,3.846,0,0,1,.24-.478.553.553,0,0,1,.34-.271.317.317,0,0,1,.064-.007.48.48,0,0,1,.378.275c.1.186.189.355.259.516v0c.189.019.372.053.55.086l.028.005a.4.4,0,0,1,.235.719c-.165.175-.305.315-.441.44.047.226.08.413.1.586a.467.467,0,0,1-.162.436.374.374,0,0,1-.218.064.566.566,0,0,1-.234-.054c-.168-.078-.339-.165-.522-.266-.185.1-.36.19-.532.274A.532.532,0,0,1,.606,43.938Zm-.172-.473c-.01.176.058.222.08.237a.229.229,0,0,0,.232-.011c.175-.085.352-.176.542-.28a.149.149,0,0,1,.164,0c.186.1.358.19.528.27a.358.358,0,0,0,.146.034.17.17,0,0,0,.1-.026.266.266,0,0,0,.075-.236c-.024-.171-.057-.357-.1-.583a.154.154,0,0,1,.05-.17c.136-.126.278-.267.446-.445a.235.235,0,0,0,.084-.232c-.023-.071-.092-.117-.2-.138l-.026,0c-.178-.033-.36-.067-.543-.085a.172.172,0,0,1-.163-.126c-.068-.155-.15-.318-.251-.5-.043-.077-.12-.167-.2-.167l-.022,0a.363.363,0,0,0-.2.171,3.646,3.646,0,0,0-.227.452.241.241,0,0,1-.23.175c-.183.017-.366.049-.552.084-.131.025-.178.088-.193.136a.226.226,0,0,0,.08.228c.129.136.263.277.407.4a.234.234,0,0,1,.081.263c-.031.129-.053.257-.073.382-.008.05-.017.1-.025.148Zm.14.134.045-.273c.02-.121.041-.246.07-.367a.387.387,0,0,0-.13-.42c-.11-.1-.215-.2-.339-.334l-.133-.14.19-.035c.135-.025.293-.052.448-.066a.4.4,0,0,0,.364-.274,3.371,3.371,0,0,1,.2-.4l.092-.162.09.164c.088.16.16.305.221.443a.33.33,0,0,0,.294.22c.161.016.324.045.478.073l.19.035-.133.14c-.142.149-.264.269-.383.38a.31.31,0,0,0-.1.32c.039.19.068.347.09.494l.03.2-.178-.085c-.144-.069-.292-.146-.452-.233a.309.309,0,0,0-.317,0c-.158.086-.307.164-.455.237ZM.509,42.2c.065.065.126.124.189.18a.6.6,0,0,1,.195.626c-.017.072-.032.146-.045.22.086-.044.173-.091.264-.14a.518.518,0,0,1,.518,0c.09.049.176.1.26.138-.016-.087-.034-.18-.055-.283a.518.518,0,0,1,.161-.516c.076-.07.154-.145.237-.23-.089-.015-.179-.028-.267-.036a.538.538,0,0,1-.465-.344c-.036-.082-.077-.167-.122-.256-.037.073-.069.141-.1.207a.606.606,0,0,1-.538.4C.666,42.18.586,42.191.509,42.2Z" transform="translate(2.833 -35.52)" fill="#264787"/>
    </g>
  </g>
</svg>
