<svg id="Group_55051" data-name="Group 55051" xmlns="http://www.w3.org/2000/svg" xmlns:xlink="http://www.w3.org/1999/xlink" width="17.308" height="22.267" viewBox="0 0 17.308 22.267">
  <defs>
    <clipPath id="clip-path">
      <rect id="Rectangle_19227" data-name="Rectangle 19227" width="17.308" height="22.267" fill="#264787"/>
    </clipPath>
  </defs>
  <g id="Group_45939" data-name="Group 45939" clip-path="url(#clip-path)">
    <path id="Path_71878" data-name="Path 71878" d="M18.818,94.782h-.9c-.444,0-.617-.165-.618-.585,0-2.491,0-4.507,0-6.345a.7.7,0,0,1,.8-.757l.761,0,.721,0h.035c0-.009,0-.019,0-.031q0-.31,0-.619c0-.284,0-.577,0-.866a.7.7,0,0,1,.8-.755c1.966,0,3.757,0,5.473,0,.536,0,.809.258.811.764,0,.471,0,.95,0,1.414q0,.347,0,.695c0,.043,0,.089,0,.125h.145l.393,0c.3,0,.616,0,.921-.005a.783.783,0,0,1,.571.19.716.716,0,0,1,.217.557c-.01.613-.005,1.238,0,1.842,0,.332.005.676.005,1.014a1.615,1.615,0,0,1-.033.287c-.006.036-.013.073-.018.109l-.02.143-.365.092-.094-.092-.064-.061a1.93,1.93,0,0,1-.16-.163,1.244,1.244,0,0,0-1.348-.379,1.165,1.165,0,0,0-.89.935,3.628,3.628,0,0,0-.023.548c0,.218.01.44.016.655s.012.408.016.613a.64.64,0,0,1-.176.5.74.74,0,0,1-.536.175H18.818m-1.051-.444a.635.635,0,0,0,.149.012h7.34a.335.335,0,0,0,.211-.047.278.278,0,0,0,.045-.192c0-.2-.01-.408-.016-.607-.007-.217-.013-.441-.017-.662a4,4,0,0,1,.027-.609,1.6,1.6,0,0,1,1.238-1.3,1.721,1.721,0,0,1,1.749.461c0-.329,0-.664-.005-.988,0-.607-.01-1.234,0-1.852a.322.322,0,0,0-.08-.242.334.334,0,0,0-.235-.067c-.315.011-.633.008-.941.006l-.39,0c-.233,0-.373,0-.486-.1s-.117-.245-.116-.454q0-.348,0-.7c0-.463,0-.941,0-1.412,0-.272-.067-.335-.354-.335-1.716,0-3.507,0-5.473,0-.264,0-.341.074-.343.328,0,.287,0,.579,0,.862q0,.31,0,.621c0,.342-.125.459-.49.461l-.724,0-.758,0c-.27,0-.341.069-.341.327,0,1.838,0,3.854,0,6.344a.535.535,0,0,0,.013.143m2.353-1.349H18.348V91.3H20.12Zm-1.315-.431h.858v-.829h-.858Zm3.907.419H20.93V91.3h1.782Zm-1.325-.431h.868v-.811h-.868Zm3.762.431H23.367V91.3h1.781Zm-1.324-.431h.867v-.814h-.867Zm1.326-1.827H23.37V89.042h1.781Zm-1.324-.431h.867v-.814h-.867Zm-1.12.43H20.934V89.04h1.773Zm-1.316-.431h.859v-.815h-.859Zm-1.267.431H18.351V89.042h1.773Zm-1.315-.431h.858v-.812h-.858Zm8.96.427H25.98V89.047h1.788Zm-1.331-.431h.874v-.8h-.874Zm-1.285-1.973H23.363V86.645h1.788Zm-1.331-.431h.874v-.8H23.82Zm-1.106.43H20.934V86.64h1.781Zm-1.324-.431h.866v-.8h-.866Z" transform="translate(-15.471 -79.044)" fill="#264787" stroke="#fff" stroke-width="0.5"/>
    <path id="Path_71879" data-name="Path 71879" d="M160.954,247.882a1.333,1.333,0,0,1-1.1-.544c-.567-.727-1.148-1.462-1.71-2.174-.3-.385-.608-.157-.911-.542a1.021,1.021,0,0,1,.093-1.435,1.065,1.065,0,0,1,1.465.039c.185.184.363.378.536.566,0-.077,0-.155,0-.231q-.011-.572-.023-1.144c-.017-.809-.034-1.646-.045-2.47a1.512,1.512,0,0,1,.114-.608,1.026,1.026,0,0,1,1.165-.586,1.063,1.063,0,0,1,.876.989c.016.342.025.689.034,1.025l.007.269q.011.412.021.823.012.491.026.982a.079.079,0,0,0,.11.109l.323,0c.478-.006.972-.011,1.455-.032a1.569,1.569,0,0,1,1.171.379,1.544,1.544,0,0,1,.451,1.126c.007.327.01.045.013.366q0,.3.006.594l0,.123c0,.318.009.648.02.97a1.207,1.207,0,0,1-1.188,1.339c-.27.02-.542.023-.8.026l-.346.005-.566.013q-.577.013-1.154.028h-.045m-2.913-4.54a.625.625,0,0,0-.421.164.59.59,0,0,0-.044.849c.3.385.607.157.91.541.562.712,1.144,1.448,1.711,2.176a.9.9,0,0,0,.789.378q.578-.016,1.156-.028l.565-.013.351-.005c.256,0,.521-.006.777-.025a.789.789,0,0,0,.789-.9c-.011-.327-.015-.658-.02-.978l0-.122q0-.3-.006-.6c0-.319-.006-.036-.013-.36a1.127,1.127,0,0,0-.314-.821,1.152,1.152,0,0,0-.858-.263c-.49.021-.988.027-1.469.033l-.322,0a.473.473,0,0,1-.547-.527q-.014-.492-.026-.984-.01-.411-.021-.822l-.007-.27c-.009-.333-.018-.678-.034-1.015a.638.638,0,0,0-.532-.587.592.592,0,0,0-.682.335,1.088,1.088,0,0,0-.079.431c.011.822.028,1.658.045,2.467q.012.572.023,1.145c0,.168,0,.338,0,.5q0,.114,0,.228v.117l-.312.2-.122-.157-.039-.052a1.021,1.021,0,0,0-.067-.084l-.19-.206c-.175-.191-.355-.388-.54-.572a.638.638,0,0,0-.451-.19" transform="translate(-148.333 -225.615)" fill="#3b85c1" stroke="#3b85c1" stroke-width="0.5"/>
    <path id="Path_71880" data-name="Path 71880" d="M104.771,3.431a.309.309,0,0,1-.175-.052.4.4,0,0,1-.148-.39l0-.025c.01-.057.02-.115.03-.175.024-.148.05-.3.087-.455a.154.154,0,0,0-.057-.187c-.172-.153-.33-.319-.483-.481a.379.379,0,0,1-.121-.388.374.374,0,0,1,.32-.242c.221-.041.437-.08.657-.1.088-.008.126-.029.167-.129a4.383,4.383,0,0,1,.273-.544.536.536,0,0,1,.317-.258c.2-.042.347.183.386.253.12.215.217.409.3.593.03.069.043.07.091.074.219.021.436.062.645.1l.03.006a.384.384,0,0,1,.333.244.383.383,0,0,1-.125.393c-.2.21-.366.377-.527.526-.027.025-.033.03-.021.085.055.267.094.487.122.69a.43.43,0,0,1-.139.393.429.429,0,0,1-.407,0c-.2-.094-.4-.2-.624-.319a.057.057,0,0,0-.074,0c-.223.121-.432.229-.638.33a.5.5,0,0,1-.217.056m-.363-1.989c.126.132.255.265.388.383a.576.576,0,0,1,.19.612c-.034.139-.058.284-.081.424l-.013.081c.171-.084.344-.175.527-.275a.481.481,0,0,1,.489,0c.183.1.355.19.522.27-.026-.169-.059-.353-.1-.571a.484.484,0,0,1,.151-.489c.137-.126.279-.267.443-.438-.182-.034-.368-.067-.549-.084a.508.508,0,0,1-.444-.33c-.07-.158-.153-.325-.254-.509a3.837,3.837,0,0,0-.226.454.587.587,0,0,1-.527.4c-.168.015-.339.043-.513.075" transform="translate(-97.649 1.764)" fill="#264787" stroke="#fff" stroke-width="0.5"/>
    <path id="Path_71881" data-name="Path 71881" d="M186.922,23.841a.215.215,0,0,1-.122-.036.281.281,0,0,1-.1-.272l0-.017c.007-.04.014-.08.021-.122.017-.1.035-.21.061-.317a.107.107,0,0,0-.04-.13c-.12-.106-.23-.223-.337-.335a.264.264,0,0,1-.084-.27.261.261,0,0,1,.223-.168c.154-.029.3-.056.458-.07.061-.006.088-.02.116-.09a3.049,3.049,0,0,1,.19-.379.373.373,0,0,1,.221-.18c.142-.029.242.128.269.176.083.15.151.285.208.413.021.048.03.049.063.052.153.015.3.043.45.07l.021,0a.246.246,0,0,1,.145.444c-.138.146-.255.263-.368.367-.019.017-.023.021-.015.059.039.186.066.339.085.481a.249.249,0,0,1-.381.275c-.14-.065-.282-.138-.435-.222a.04.04,0,0,0-.052,0c-.155.085-.3.16-.445.23a.347.347,0,0,1-.151.039m-.253-1.386c.088.092.178.184.271.267a.4.4,0,0,1,.133.426c-.023.1-.04.2-.056.3l-.009.056c.119-.059.24-.122.368-.191a.336.336,0,0,1,.341,0c.128.07.247.132.364.188-.018-.118-.041-.246-.073-.4a.338.338,0,0,1,.105-.341c.1-.088.194-.186.309-.306-.127-.023-.256-.046-.382-.059a.354.354,0,0,1-.309-.23c-.048-.11-.106-.226-.177-.355a2.682,2.682,0,0,0-.157.317.409.409,0,0,1-.367.276c-.117.011-.236.03-.358.053" transform="translate(-176.513 -18.761)" fill="#264787" stroke="#fff" stroke-width="0.5"/>
    <path id="Path_71882" data-name="Path 71882" d="M44.964,23.841a.215.215,0,0,1-.122-.036.281.281,0,0,1-.1-.272l0-.017c.007-.04.014-.08.021-.122.017-.1.035-.21.061-.317a.107.107,0,0,0-.04-.13c-.12-.106-.23-.223-.337-.335a.264.264,0,0,1-.084-.27.261.261,0,0,1,.223-.168c.154-.029.3-.056.458-.07.061-.006.088-.02.116-.09a3.045,3.045,0,0,1,.19-.379.373.373,0,0,1,.221-.18c.142-.029.242.128.269.176.083.15.151.285.208.413.021.048.03.049.063.052.153.015.3.043.45.07l.021,0a.246.246,0,0,1,.145.444c-.138.146-.255.263-.368.367-.019.017-.023.021-.015.059.039.186.066.339.085.481a.249.249,0,0,1-.381.275c-.14-.065-.282-.138-.435-.222a.04.04,0,0,0-.052,0c-.155.085-.3.16-.445.23a.347.347,0,0,1-.151.039m-.253-1.386c.088.092.178.184.271.267a.4.4,0,0,1,.133.426c-.023.1-.04.2-.056.3l-.009.056c.119-.059.24-.122.368-.191a.336.336,0,0,1,.341,0c.128.07.247.132.364.188-.018-.118-.041-.246-.073-.4a.338.338,0,0,1,.105-.341c.1-.088.194-.186.309-.306-.127-.023-.256-.046-.382-.059a.354.354,0,0,1-.309-.23c-.048-.11-.106-.226-.177-.355a2.68,2.68,0,0,0-.157.317.409.409,0,0,1-.367.276c-.117.011-.236.03-.358.053" transform="translate(-40.675 -18.761)" fill="#264787" stroke="#fff" stroke-width="0.5"/>
    <path id="Path_71883" data-name="Path 71883" d="M243.558,42.973a.173.173,0,0,1-.1-.029.227.227,0,0,1-.083-.219l0-.014c.006-.032.011-.065.017-.1.014-.083.028-.169.049-.256a.087.087,0,0,0-.032-.105c-.1-.086-.186-.179-.271-.27a.213.213,0,0,1-.068-.218.21.21,0,0,1,.18-.136c.124-.023.245-.045.369-.056.049,0,.071-.016.094-.073a2.455,2.455,0,0,1,.153-.306.3.3,0,0,1,.178-.145c.114-.024.195.1.217.142.067.121.122.23.168.333.017.039.024.039.051.042.123.012.245.035.362.056l.017,0a.2.2,0,0,1,.117.358c-.111.118-.205.212-.3.3-.015.014-.018.017-.012.048.031.15.053.273.069.388a.2.2,0,0,1-.307.222c-.113-.053-.227-.111-.351-.179a.032.032,0,0,0-.042,0c-.125.068-.242.129-.359.185a.28.28,0,0,1-.122.032m-.2-1.117c.071.074.143.149.218.215a.323.323,0,0,1,.107.344c-.019.078-.032.159-.045.238l-.008.046c.1-.047.193-.1.3-.154a.27.27,0,0,1,.274,0c.1.057.2.106.293.152-.014-.095-.033-.2-.059-.321a.272.272,0,0,1,.085-.275c.077-.071.157-.15.249-.246-.1-.019-.207-.037-.308-.047a.286.286,0,0,1-.249-.185c-.039-.089-.086-.183-.143-.286a2.155,2.155,0,0,0-.127.255.33.33,0,0,1-.3.223c-.094.009-.19.024-.288.042" transform="translate(-230.821 -37.512)" fill="#264787" stroke="#fff" stroke-width="0.5"/>
    <path id="Path_71884" data-name="Path 71884" d="M.494,42.973a.174.174,0,0,1-.1-.029.227.227,0,0,1-.083-.219l0-.014c.006-.032.011-.065.017-.1.014-.083.028-.169.049-.256a.087.087,0,0,0-.032-.105c-.1-.086-.186-.179-.271-.27a.213.213,0,0,1-.068-.218.21.21,0,0,1,.18-.136c.124-.023.245-.045.369-.056.049,0,.071-.016.094-.073A2.46,2.46,0,0,1,.8,41.194a.3.3,0,0,1,.178-.145c.114-.024.195.1.217.142.067.121.122.23.168.333.017.039.024.039.051.042.123.012.245.035.362.056l.017,0a.2.2,0,0,1,.117.358c-.111.118-.205.212-.3.3-.015.014-.018.017-.012.048.031.15.053.273.069.388a.241.241,0,0,1-.078.221.241.241,0,0,1-.229,0c-.113-.053-.227-.111-.351-.179a.032.032,0,0,0-.042,0c-.125.068-.242.129-.359.185a.28.28,0,0,1-.122.032m-.2-1.117c.071.074.143.149.218.215a.324.324,0,0,1,.107.344c-.019.078-.032.159-.045.238L.562,42.7c.1-.047.193-.1.3-.154a.27.27,0,0,1,.274,0c.1.057.2.106.293.152-.014-.095-.033-.2-.059-.321a.272.272,0,0,1,.085-.275c.077-.071.157-.15.249-.246-.1-.019-.207-.037-.308-.047a.286.286,0,0,1-.249-.185c-.039-.089-.086-.183-.143-.286a2.153,2.153,0,0,0-.127.255.33.33,0,0,1-.3.223c-.094.009-.19.024-.288.042" transform="translate(1.765 -37.512)" fill="#264787" stroke="#fff" stroke-width="0.5"/>
  </g>
</svg>
