<svg id="International_Tours" data-name="International Tours" xmlns="http://www.w3.org/2000/svg" width="25.023" height="24.131" viewBox="0 0 25.023 24.131">
  <path id="Path_71845" data-name="Path 71845" d="M25.463,43.671H1.36a.46.46,0,0,1-.46-.46A12.526,12.526,0,0,1,13.412,30.7a5.023,5.023,0,0,1,.79.041,12.477,12.477,0,0,1,11.722,12.47A.46.46,0,0,1,25.463,43.671ZM1.828,42.752H24.995A11.6,11.6,0,0,0,14.122,31.657l-.048-.005a4.089,4.089,0,0,0-.663-.033A11.607,11.607,0,0,0,1.828,42.752Z" transform="translate(-0.9 -19.582)" fill="#264787"/>
  <path id="Path_71846" data-name="Path 71846" d="M18.067,43.771a.46.46,0,0,1-.419-.648,1.363,1.363,0,0,0,.009-1.047.892.892,0,0,0-.489-.511,1.946,1.946,0,0,0-.539-.069,2.709,2.709,0,0,1-.8-.118,3.317,3.317,0,0,1-1.488-1.121c-.371-.414-.693-.772-1.085-.8a2.517,2.517,0,0,0-1.055.361,1.726,1.726,0,0,1-1.756,0l-.039-.026a1.777,1.777,0,0,1-.578-1.016,1.233,1.233,0,0,0-.231-.526c-.175-.153-.56-.118-.9-.088l-.115.01c-1.114.093-1.543-.355-1.707-.748a1.121,1.121,0,0,1,.026-.9,1.638,1.638,0,0,1,.953-.837.459.459,0,0,1,.07-.017,4.235,4.235,0,0,1,1.656.044l.008,0a1.22,1.22,0,0,0,.962-.233,2.3,2.3,0,0,0,.242-.507,1.854,1.854,0,0,1,.776-1.073,1.321,1.321,0,0,1,.454-.182c.053-.013.1-.025.14-.039a1.288,1.288,0,0,0,.34-.491,1.882,1.882,0,0,1,.822-.945.459.459,0,0,1,.095-.032,2.894,2.894,0,0,1,1.194-.05,1.718,1.718,0,0,0,.905-.272l.011-.007a.552.552,0,0,0,.221-.531.46.46,0,0,1,.9-.18,1.471,1.471,0,0,1-.629,1.487,2.656,2.656,0,0,1-1.455.424.46.46,0,0,1-.1-.011,1.855,1.855,0,0,0-.791.026,1.368,1.368,0,0,0-.359.514,1.835,1.835,0,0,1-.761.9l-.035.016a2.069,2.069,0,0,1-.28.085.7.7,0,0,0-.159.05.459.459,0,0,1-.07.043c-.153.076-.24.278-.365.6a2.758,2.758,0,0,1-.42.8.46.46,0,0,1-.066.065,2.13,2.13,0,0,1-1.794.438,3.312,3.312,0,0,0-1.255-.039.719.719,0,0,0-.377.335.194.194,0,0,0-.014.169c.088.211.527.206.782.185l.11-.01a2,2,0,0,1,1.594.318l0,0a1.9,1.9,0,0,1,.5.954,1.166,1.166,0,0,0,.23.521.808.808,0,0,0,.787-.013,3.418,3.418,0,0,1,1.481-.492.461.461,0,0,1,.054,0,2.57,2.57,0,0,1,1.763,1.106,2.547,2.547,0,0,0,1.065.854l.035.011a1.925,1.925,0,0,0,.542.07,2.661,2.661,0,0,1,.818.124l.007,0a1.8,1.8,0,0,1,1.015,1.02,2.28,2.28,0,0,1-.021,1.775A.46.46,0,0,1,18.067,43.771Zm-7.814-.039a.459.459,0,0,1-.259-.08C7.758,42.128,6.33,41.121,5.5,40.486c-.9-.69-1.152-.968-1.166-1.295a.6.6,0,0,1,.249-.5l.011-.009.007-.006a1.714,1.714,0,0,0,.172-.168,1.777,1.777,0,0,1,.375-.328,1.734,1.734,0,0,1,1.681-.108l.015.007a2.441,2.441,0,0,1,1.1,1.1.461.461,0,0,1,.019.044,1.193,1.193,0,0,0,.406.555,1.265,1.265,0,0,0,.334.085,1.719,1.719,0,0,1,.777.281l.011.009a1.839,1.839,0,0,1,.563.8,6.332,6.332,0,0,1,.656,2.273.46.46,0,0,1-.457.508ZM5.381,39.2c.149.138.43.372.961.768.7.522,1.769,1.276,3.249,2.293a4.849,4.849,0,0,0-.367-.914.46.46,0,0,1-.03-.07.926.926,0,0,0-.272-.4,1.064,1.064,0,0,0-.378-.107,1.791,1.791,0,0,1-.674-.217l-.024-.016a2.116,2.116,0,0,1-.737-.965,1.528,1.528,0,0,0-.671-.666.819.819,0,0,0-.791.045l-.018.012a1.031,1.031,0,0,0-.185.172Zm18.4,3.634a.462.462,0,0,1-.286-.1c-.21-.166-.191-.389-.167-.671l.005-.059a1.284,1.284,0,0,0-.347-.625.459.459,0,0,1-.049-.058.877.877,0,0,0-.3-.3.594.594,0,0,0-.242.187.46.46,0,0,1-.072.076,2.239,2.239,0,0,1-3.127-.2.46.46,0,0,1-.04-.052c-.028-.042-.058-.08-.093-.123s-.09-.113-.14-.188a.46.46,0,0,1-.029-.049l-.2-.4a.921.921,0,0,0-.217-.173.46.46,0,0,1-.105-.072,2.356,2.356,0,0,1-.686-2.168v0a6.045,6.045,0,0,1,.747-1.882,1.012,1.012,0,0,1,.643-.578,1.1,1.1,0,0,1,.769.163l.054.027.022.012a1.465,1.465,0,0,0,1.839-.364.93.93,0,0,1,.371-.347.787.787,0,0,1,.8.109c.029.018.059.037.079.047l.012.006a1.7,1.7,0,0,0,1.285.158,1.682,1.682,0,0,1,.2-.048.8.8,0,0,0,.1-.024.46.46,0,0,1,.6.51c-.674,4.129-.881,5.72-.944,6.323a1.925,1.925,0,0,1,.017.251.46.46,0,0,1,0,.051.582.582,0,0,1-.315.527A.461.461,0,0,1,23.785,42.836ZM19.906,40.5a1.306,1.306,0,0,0,1.8.118,1.526,1.526,0,0,1,.626-.453l.009,0a1.036,1.036,0,0,1,1.178.411c.15-1.074.376-2.549.676-4.4a2.6,2.6,0,0,1-1.594-.3c-.039-.02-.074-.04-.107-.06a2.391,2.391,0,0,1-3.008.6l-.052-.027c-.035-.018-.085-.044-.126-.062a.63.63,0,0,0-.049.083l-.012.022a5.194,5.194,0,0,0-.647,1.6,1.453,1.453,0,0,0,.364,1.292,2.065,2.065,0,0,1,.441.361.46.46,0,0,1,.086.119l.219.438c.024.034.05.066.079.1S19.863,40.438,19.906,40.5Z" transform="translate(-2.951 -19.64)" fill="#264787"/>
  <path id="Path_71847" data-name="Path 71847" d="M25.463,62.619H1.36a.46.46,0,1,1,0-.919h24.1a.46.46,0,1,1,0,.919Z" transform="translate(-0.9 -38.529)" fill="#264787"/>
  <path id="Path_71848" data-name="Path 71848" d="M23.553,15.468H15a.46.46,0,1,1,0-.919h8.522a4.833,4.833,0,0,0,1.039-.28c.433-.175.97-.487,1.069-.983a.488.488,0,0,0-.081-.419,2.459,2.459,0,0,0-1.453-.588.462.462,0,0,1-.239-.093l-.5-.386a3.543,3.543,0,0,0-2.27-.686l-17.345.644.043,1,5.333,1.534c.427.071.921.148,1.375.185a.46.46,0,1,1-.076.916c-.5-.041-1.024-.124-1.476-.2a.46.46,0,0,1-.052-.012L3.21,13.545a.46.46,0,0,1-.332-.422L2.8,11.335a.46.46,0,0,1,.442-.479l17.806-.661a4.452,4.452,0,0,1,2.856.867l.008.006.4.311a3.107,3.107,0,0,1,1.968.936,1.408,1.408,0,0,1,.247,1.152,2.4,2.4,0,0,1-1.646,1.664,5.667,5.667,0,0,1-1.276.335A.459.459,0,0,1,23.553,15.468Z" transform="translate(-2.062 -7.045)" fill="#3b85c1"/>
  <path id="Path_71849" data-name="Path 71849" d="M2.4,6.829a.46.46,0,0,1-.454-.395L1.4,2.625A.46.46,0,0,1,1.86,2.1H3.687a.46.46,0,0,1,.394.223L6.3,6.016a.46.46,0,1,1-.788.473L3.427,3.019H2.39L2.859,6.3a.46.46,0,0,1-.456.525Z" transform="translate(-1.206 -2.099)" fill="#3b85c1"/>
  <path id="Path_71850" data-name="Path 71850" d="M17.714,21.6h-.03L14.729,21.4a.46.46,0,0,1-.259-.816L19.525,16.5a.46.46,0,1,1,.578.715L15.963,20.56l1.649.108,6.959-3.747a.46.46,0,1,1,.436.809l-7.076,3.81A.46.46,0,0,1,17.714,21.6Z" transform="translate(-9.09 -10.839)" fill="#3b85c1"/>
</svg>
