<svg xmlns="http://www.w3.org/2000/svg" width="290.548" height="150.222" viewBox="0 0 290.548 150.222">
  <g id="Group_55193" data-name="Group 55193" opacity="0.21">
    <path id="Path_71930" data-name="Path 71930" d="M455.028,68.322c0-14.207-.122-28.414.047-42.619.1-8.039,2.744-15.08,9.676-19.877,4.683-3.242,10.1-4.245,15.62-4.614,11.544-.772,21.307,2.814,29.141,11.676,18.126,20.508,36.425,40.863,54.657,61.278a22.518,22.518,0,0,0,3.192,3.381c.9.657,2.428,1.274,3.288.933a3.909,3.909,0,0,0,1.7-2.935,87.619,87.619,0,0,0,.093-9.636c-.088-2.346.642-3.35,3.165-3.314q12.6.176,25.2,0c2.476-.034,3.229.877,3.2,3.273-.1,10.058.078,20.119-.092,30.175-.223,13.212-9.4,22.129-22.6,22.223-10.539.075-19.146-3.593-26.249-11.76C544.6,94.466,533.5,82.969,522.668,71.242q-14.562-15.764-29.129-31.523c-.422-.457-.786-1.077-1.314-1.3-1.073-.459-2.44-1.219-3.31-.882s-1.443,1.8-1.781,2.892a10.779,10.779,0,0,0-.088,3.092q-.008,36.088-.015,72.174a42.753,42.753,0,0,1-3.318,17.275c-3.641,8.362-10.264,13.354-18.929,15.1a121.515,121.515,0,0,1-21.241,2.356c-15.547.342-31.108.228-46.661.055-8.174-.091-16.366-.422-24.246-3.127-10.562-3.626-16.462-11.187-18.326-21.939a81.747,81.747,0,0,1-1.15-13.607c-.1-27.584-.051-55.168-.048-82.752,0-.933.013-1.867.048-2.8.05-1.326.605-2.128,2.08-2.125q13.843.029,27.686.014c1.457,0,2.023.791,2.015,2.155-.005,1.037.024,2.074.024,3.11q0,38.421,0,76.841c0,1.348-.009,2.7.008,4.044.092,7.167,3.494,10.676,10.719,10.841,5.078.116,10.162.031,15.243.032,10.577,0,21.154.017,31.731-.019a22.8,22.8,0,0,0,4.622-.426c5.717-1.209,7.708-3.691,7.712-9.471q.015-21.465,0-42.931Z" transform="translate(-353.095 -0.423)" fill="#fff"/>
    <path id="Path_71931" data-name="Path 71931" d="M625.927,61.5c1.493-.086,2.4-.185,3.314-.185,25.917,0,51.833-.058,77.749.04a28.8,28.8,0,0,1,21.442,9.067,18.66,18.66,0,0,1,5.447,13.184q.1,32.5,0,65c-.035,9.064-6.239,17.138-16.051,20.351a45.85,45.85,0,0,1-13.683,2.367c-27.47.214-54.943.175-82.414.062-7.683-.032-14.956-1.723-21.274-6.606-5.4-4.17-8.273-9.544-8.3-16.262q-.14-32.342.012-64.687a45.911,45.911,0,0,1,1.051-6.9l.832-.245c1.7,1.739,3.453,3.436,5.1,5.224,6.463,7,12.838,14.088,19.38,21.016a7.748,7.748,0,0,1,2.254,5.824c-.072,12.128-.04,24.258-.028,36.387,0,3.816.086,3.907,3.766,3.909q38.408.014,76.816,0c3.771,0,3.86-.083,3.861-3.816q.018-28.767,0-57.535c0-3.894-.087-3.975-4.038-3.976-17.105-.01-34.21-.061-51.315.047-3,.019-5.195-.623-7.239-3.085-4.961-5.971-10.285-11.641-15.455-17.44-.33-.371-.58-.813-1.235-1.743" transform="translate(-443.391 -23.164)" fill="#fff"/>
    <path id="Path_71932" data-name="Path 71932" d="M454.138,55.038q0,25.178,0,50.356c0,4.342-.01,4.36-4.249,4.363q-19.427.015-38.855,0c-4.514,0-4.524-.014-4.525-4.425q0-46.626,0-93.253c0-4.287-.007-4.292-4.223-4.3-4.456-.006-8.911.007-13.366,0-4.235-.012-4.276-.063-4.2-4.4.008-.518-.157-1.158.085-1.527a4.386,4.386,0,0,1,1.732-1.69,6.763,6.763,0,0,1,2.46-.106q30.463,0,60.925,0c4.212,0,4.222.014,4.224,4.311q.006,25.333,0,50.667" transform="translate(-365.022 0)" fill="#fff"/>
    <path id="Path_71946" data-name="Path 71946" d="M737.157,21.507c0,4.35-.086,8.7.035,13.048.065,2.341-.636,3.352-3.163,3.316q-12.579-.177-25.165,0c-2.429.03-3.27-.811-3.241-3.244.1-8.8.089-17.606.006-26.407-.021-2.227.661-3.164,3.012-3.138q12.736.138,25.475,0c2.281-.024,3.137.777,3.075,3.072-.121,4.45-.035,8.905-.035,13.359" transform="translate(-486.281 -1.915)" fill="#fff"/>
  </g>
</svg>
