<svg id="Online_Payment" data-name="Online Payment" xmlns="http://www.w3.org/2000/svg" width="20.609" height="25.189" viewBox="0 0 20.609 25.189">
  <path id="_22_Payment_online_Credit_Card_Internet_Modern_Online" data-name="22  Payment online, Credit Card, Internet, Modern, Online" d="M19.74,21.465H7.145V6.58H19.74V8.252h1.145V4.29A2.29,2.29,0,0,0,18.595,2H8.29A2.29,2.29,0,0,0,6,4.29V24.9a2.29,2.29,0,0,0,2.29,2.29h10.3a2.29,2.29,0,0,0,2.29-2.29V19.7H19.74ZM8.29,3.145h10.3A1.145,1.145,0,0,1,19.74,4.29V5.435H7.145V4.29A1.145,1.145,0,0,1,8.29,3.145Zm10.3,22.9H8.29A1.145,1.145,0,0,1,7.145,24.9V22.61H19.74V24.9A1.145,1.145,0,0,1,18.595,26.045ZM15.16,4.863H11.725V3.718H15.16ZM11.725,23.755H15.16V24.9H11.725ZM24.892,9.443H14.015V8.87H12.87V19.175h1.145V18.6H24.892a1.717,1.717,0,0,0,1.717-1.718V11.16A1.717,1.717,0,0,0,24.892,9.443Zm0,1.145a.572.572,0,0,1,.572.572v.573H14.015V10.588Zm0,6.87H14.015v-4.58h11.45v4.008A.572.572,0,0,1,24.892,17.458Zm-4.007-2.29H24.32v1.145H20.885Zm-5.725,0h3.435v1.145H15.16Z" transform="translate(-6 -2.001)" fill="#264787"/>
</svg>
