<svg id="Rent_A_Car" data-name="Rent A Car" xmlns="http://www.w3.org/2000/svg" width="27.922" height="21.303" viewBox="0 0 27.922 21.303">
  <path id="Path_71912" data-name="Path 71912" d="M26.229,19.434a5.132,5.132,0,0,1-1.19-1.607l-.238-.476a9.118,9.118,0,0,0-2.44-3.332l-.179-.119H10.877l-.179.119a9.239,9.239,0,0,0-2.44,3.332l-.238.476a4.354,4.354,0,0,1-1.19,1.607L5.7,20.445H27.24ZM8.675,19.255a3.848,3.848,0,0,0,.536-.952l.179-.476a7.208,7.208,0,0,1,1.964-2.737H21.766a9.433,9.433,0,0,1,1.964,2.737l.238.476c.179.357.357.655.536.952H8.675Z" transform="translate(-2.628 -9.258)" fill="#264787"/>
  <path id="Path_71913" data-name="Path 71913" d="M28.362,12.883a1.641,1.641,0,0,0-.893-.893,2.818,2.818,0,0,0-2.2,0,3.206,3.206,0,0,0-.774.417,9.113,9.113,0,0,0-3.63-4.046l-.119-.06H19.5A2.845,2.845,0,0,0,16.64,6.1H12.416A2.854,2.854,0,0,0,9.5,8.3H8.25l-.119.06A9.113,9.113,0,0,0,4.5,12.407a3.206,3.206,0,0,0-.774-.417,2.823,2.823,0,0,0-2.2,0,1.857,1.857,0,0,0-.893.893A2.214,2.214,0,0,0,2.181,15.5l-.893.833a1.271,1.271,0,0,0-.476,1.012v4.76a1.377,1.377,0,0,0,.833,1.25l.655.3V26.51a.915.915,0,0,0,.893.893H5.87a.915.915,0,0,0,.893-.893V25.32L7,25.439a3.369,3.369,0,0,0,1.071.179H20.865a3.369,3.369,0,0,0,1.071-.179l.238-.119v1.19a.915.915,0,0,0,.893.893H25.8a.915.915,0,0,0,.893-.893V23.653l.655-.3a1.342,1.342,0,0,0,.893-1.25v-4.76a1.362,1.362,0,0,0-.476-1.012l-.952-.833A2.214,2.214,0,0,0,28.362,12.883ZM12.356,7.29h4.225A1.753,1.753,0,0,1,18.247,8.3H10.69A1.753,1.753,0,0,1,12.356,7.29ZM1.705,13.3a.594.594,0,0,1,.3-.238,1.421,1.421,0,0,1,.536-.119,4.1,4.1,0,0,1,.774.119,2.642,2.642,0,0,1,.655.476l-.06.179a1.815,1.815,0,0,1-.6.774l-.119.119a1.1,1.1,0,0,1-.417-.119c-.774-.3-1.19-.833-1.071-1.19ZM5.573,26.212H3.49V24.13l2.083.714v1.369Zm3.57-1.845L10.274,22.4h8.568l1.131,1.964Zm14.281,1.845V24.844l2.083-.774v2.083H23.424Zm3.63-8.866v4.76c0,.06-.06.119-.119.179l-1.012.417-3.689,1.309-.714.238a.536.536,0,0,1-.3.06l-1.607-2.8a.625.625,0,0,0-.536-.3H9.857a.625.625,0,0,0-.536.3l-1.607,2.8c-.119,0-.179-.06-.3-.06l-.655-.238L3.133,22.7l-1.071-.476c-.06,0-.119-.06-.119-.179v-4.76c0-.06,0-.06.06-.119l2.083-1.845.06-.06.476-.476.06-.06a2.412,2.412,0,0,0,.3-.536.058.058,0,0,1,.06-.06l.238-.476A9.387,9.387,0,0,1,8.607,9.492h11.96A8.982,8.982,0,0,1,23.9,13.657l.238.536c.06.06.06.179.119.238a2.877,2.877,0,0,0,.774.952l.476.476,1.547,1.428ZM26.28,14.49a1.1,1.1,0,0,1-.417.119l-.119-.119a3.27,3.27,0,0,1-.417-.536,1.3,1.3,0,0,1-.179-.3l-.059-.179a2.457,2.457,0,0,1,.655-.417,1.838,1.838,0,0,1,1.25-.06c.119.06.238.119.238.238C27.41,13.657,26.994,14.192,26.28,14.49Z" transform="translate(-0.537 -6.1)" fill="#264787"/>
  <path id="Path_71914" data-name="Path 71914" d="M4.7,29.792,9.044,31.4v-5H4.7Zm1.19-2.2H7.854v2.083L5.89,28.959ZM23.324,31.4l4.344-1.607V26.46H23.324Zm1.19-3.808h1.964v1.369l-1.964.714ZM11.067,27H21.242v1.19H11.067Z" transform="translate(-2.223 -14.321)" fill="#3b85c1"/>
</svg>
