<svg id="be831f03275a357f4a36f98efb4958c8" xmlns="http://www.w3.org/2000/svg" width="24.114" height="18.397" viewBox="0 0 24.114 18.397">
  <path id="Path_71912" data-name="Path 71912" d="M23.428,18.679A4.432,4.432,0,0,1,22.4,17.292L22.2,16.88A7.875,7.875,0,0,0,20.088,14l-.154-.1H10.171l-.154.1A7.979,7.979,0,0,0,7.91,16.88l-.206.411a3.76,3.76,0,0,1-1.028,1.387l-.976.874H24.3ZM8.269,18.525a3.323,3.323,0,0,0,.462-.822l.154-.411a6.225,6.225,0,0,1,1.7-2.364h8.993a8.146,8.146,0,0,1,1.7,2.364l.206.411c.154.308.308.565.462.822H8.269Z" transform="translate(-3.047 -9.892)" fill="#fff"/>
  <path id="Path_71913" data-name="Path 71913" d="M24.567,11.958a1.417,1.417,0,0,0-.771-.771,2.433,2.433,0,0,0-1.9,0,2.768,2.768,0,0,0-.668.36,7.87,7.87,0,0,0-3.135-3.494L17.989,8H16.91a2.457,2.457,0,0,0-2.467-1.9H10.8A2.464,2.464,0,0,0,8.277,8H7.2l-.1.051a7.87,7.87,0,0,0-3.135,3.494,2.769,2.769,0,0,0-.668-.36,2.438,2.438,0,0,0-1.9,0,1.6,1.6,0,0,0-.771.771,1.912,1.912,0,0,0,1.336,2.261l-.771.719a1.1,1.1,0,0,0-.411.874v4.111A1.189,1.189,0,0,0,1.494,21l.565.257v2.467a.79.79,0,0,0,.771.771H5.143a.79.79,0,0,0,.771-.771V22.7l.206.1a2.91,2.91,0,0,0,.925.154H18.092a2.91,2.91,0,0,0,.925-.154l.206-.1v1.028a.79.79,0,0,0,.771.771h2.364a.79.79,0,0,0,.771-.771V21.26L23.693,21a1.159,1.159,0,0,0,.771-1.079V15.812a1.176,1.176,0,0,0-.411-.874l-.822-.719A1.912,1.912,0,0,0,24.567,11.958ZM10.744,7.128h3.648A1.514,1.514,0,0,1,15.831,8H9.305A1.514,1.514,0,0,1,10.744,7.128Zm-9.2,5.19a.513.513,0,0,1,.257-.206,1.227,1.227,0,0,1,.462-.1,3.536,3.536,0,0,1,.668.1,2.282,2.282,0,0,1,.565.411l-.051.154a1.568,1.568,0,0,1-.514.668l-.1.1a.953.953,0,0,1-.36-.1c-.668-.257-1.028-.719-.925-1.028Zm3.34,11.151h-1.8v-1.8l1.8.617v1.182Zm3.083-1.593.976-1.7h7.4l.976,1.7ZM20.3,23.469V22.287l1.8-.668v1.8H20.3Zm3.135-7.657v4.111c0,.051-.051.1-.1.154l-.874.36-3.186,1.131-.617.206a.463.463,0,0,1-.257.051L17.013,19.41a.54.54,0,0,0-.462-.257H8.586a.54.54,0,0,0-.462.257L6.736,21.825c-.1,0-.154-.051-.257-.051l-.565-.206L2.779,20.438l-.925-.411c-.051,0-.1-.051-.1-.154V15.761c0-.051,0-.051.051-.1l1.8-1.593.051-.051.411-.411.051-.051a2.083,2.083,0,0,0,.257-.462.05.05,0,0,1,.051-.051l.206-.411a8.107,8.107,0,0,1,2.878-3.6H17.835a7.757,7.757,0,0,1,2.878,3.6l.206.462c.051.051.051.154.1.206a2.485,2.485,0,0,0,.668.822l.411.411,1.336,1.233Zm-.668-2.467a.953.953,0,0,1-.36.1l-.1-.1a2.824,2.824,0,0,1-.36-.463,1.123,1.123,0,0,1-.154-.257l-.051-.154a2.122,2.122,0,0,1,.565-.36,1.588,1.588,0,0,1,1.079-.051c.1.051.206.1.206.206C23.745,12.626,23.385,13.089,22.768,13.346Z" transform="translate(-0.537 -6.1)" fill="#fff"/>
  <path id="Path_71914" data-name="Path 71914" d="M4.7,29.329l3.751,1.387V26.4H4.7Zm1.028-1.9h1.7v1.8l-1.7-.617Zm15.056,3.289,3.751-1.387V26.451H20.784Zm1.028-3.289h1.7V28.61l-1.7.617ZM10.2,26.914h8.787v1.028H10.2Z" transform="translate(-2.561 -15.968)" fill="#3b85c1"/>
</svg>
