<svg id="Search_Flights" data-name="Search Flights" xmlns="http://www.w3.org/2000/svg" width="30.619" height="30.082" viewBox="0 0 30.619 30.082">
  <g id="_120d9956861f192f9cf0661f1ce84fbf" data-name="120d9956861f192f9cf0661f1ce84fbf" transform="translate(0 0)">
    <rect id="Rectangle_19220" data-name="Rectangle 19220" width="30.62" height="30.083" fill="none"/>
    <path id="Line_622" data-name="Line 622" d="M16.026-.328H-1.164A.836.836,0,0,1-2-1.164.836.836,0,0,1-1.164-2h17.19a.836.836,0,0,1,.836.836A.836.836,0,0,1,16.026-.328Z" transform="translate(3.85 26.95)" fill="#3b85c1"/>
    <path id="Path_71811" data-name="Path 71811" d="M20.693,72.388h0a4.664,4.664,0,0,1-3.2-1.265l-4.526-4.244a1.8,1.8,0,0,1,.521-2.962l2.012-.862a.836.836,0,0,1,.658,0l2.98,1.277,2-1.141-2.827-2.544A1.8,1.8,0,0,1,18.8,57.66l1.981-.849a.836.836,0,0,1,.594-.025l6.844,2.281,5-2.941a4.678,4.678,0,0,1,5.993,1.07l2.238,2.736a.836.836,0,0,1-.227,1.252L23.044,71.754A4.682,4.682,0,0,1,20.693,72.388Zm-4.865-7.655-1.682.721a.125.125,0,0,0-.036.206L18.636,69.9a3,3,0,0,0,2.058.813h0a3.008,3.008,0,0,0,1.51-.407L39.536,60.232l-1.617-1.977a3.006,3.006,0,0,0-3.852-.688L28.74,60.7a.836.836,0,0,1-.688.073l-6.9-2.3-1.689.724a.125.125,0,0,0-.034.208l3.686,3.318a.836.836,0,0,1-.144,1.347L19.6,65.99a.836.836,0,0,1-.744.043Z" transform="translate(-11.624 -49.472)" fill="#264787"/>
  </g>
</svg>
