<svg xmlns="http://www.w3.org/2000/svg" width="59.88" height="58.095" viewBox="0 0 59.88 58.095">
  <g id="c056de50c99a38dfee99d5d37c309792" transform="translate(1.1 1.1)">
    <path id="Path_71845" data-name="Path 71845" d="M59.68,60.64H2A28.865,28.865,0,0,1,30.84,31.8a10.683,10.683,0,0,1,1.768.093A28.759,28.759,0,0,1,59.68,60.64Z" transform="translate(-2 -5.193)" fill="none" stroke="#264787" stroke-linecap="round" stroke-linejoin="round" stroke-width="2.2"/>
    <path id="Path_71846" data-name="Path 71846" d="M50.688,60.647c-.372-.744.186-1.675.279-2.512a4.033,4.033,0,0,0-1.209-2.791c-.465-.651-1.209-1.4-1.954-1.116a2.54,2.54,0,0,0-1.116.837,4.249,4.249,0,0,1-5.954-.372c-.186-.279-.372-.465-.558-.744l-.558-1.116a3.642,3.642,0,0,0-.93-.744,4.556,4.556,0,0,1-1.3-4.186,13.621,13.621,0,0,1,1.675-4.186,1.48,1.48,0,0,1,.837-.837c.372-.093.837.186,1.209.372a4.615,4.615,0,0,0,5.861-1.209,1.121,1.121,0,0,1,.465-.465c.372-.186.744.186,1.116.372a5.165,5.165,0,0,0,3.907.465c.279-.093.465-.093.744-.186M3.8,50.972a2.279,2.279,0,0,0,1.861-.465A13.212,13.212,0,0,1,6.87,49.39,3.063,3.063,0,0,1,9.847,49.2a4.763,4.763,0,0,1,2.14,2.14,3.964,3.964,0,0,0,1.4,1.861c.744.465,1.861.279,2.6.837a3.306,3.306,0,0,1,1.023,1.489A14.1,14.1,0,0,1,18.5,60.647M32.733,31.9a2.409,2.409,0,0,1-1.023,2.419,5.223,5.223,0,0,1-2.884.837,5.733,5.733,0,0,0-2.512.093c-1.4.651-1.489,2.791-2.791,3.442a5.381,5.381,0,0,0-1.3.465c-1.3.651-1.3,2.512-2.233,3.628a4.021,4.021,0,0,1-3.349.837,9.1,9.1,0,0,0-3.535-.093c-1.116.372-2.14,1.582-1.675,2.7s1.861,1.209,2.977,1.116,2.419-.279,3.256.465c1.023.93.744,2.791,1.861,3.628a3.024,3.024,0,0,0,3.07,0,7.073,7.073,0,0,1,3.07-1.023c2.7.093,3.814,3.907,6.512,4.652,1.023.372,2.233.093,3.256.465,1.954.744,2.6,3.349,1.768,5.21" transform="translate(-2.125 -5.2)" fill="none" stroke="#264787" stroke-linecap="round" stroke-linejoin="round" stroke-width="2.2"/>
    <path id="Path_71847" data-name="Path 71847" d="M59.68,62.8H2" transform="translate(-2 -7.352)" fill="none" stroke="#264787" stroke-linecap="round" stroke-linejoin="round" stroke-width="2.2"/>
    <path id="Path_71848" data-name="Path 71848" d="M21.111,21.533c-1.116-.093-2.326-.279-3.442-.465L4.086,17.16,3.9,12.881,46.509,11.3a9.607,9.607,0,0,1,6.14,1.861l1.209.93s5.3.465,4.652,3.721-6.047,3.907-6.047,3.907H32" transform="translate(-2.132 -3.764)" fill="none" stroke="#3b85c1" stroke-linecap="round" stroke-linejoin="round" stroke-width="2.2"/>
    <path id="Path_71849" data-name="Path 71849" d="M3.8,12.317,2.5,3.2H6.873l5.3,8.838" transform="translate(-2.035 -3.2)" fill="none" stroke="#3b85c1" stroke-linecap="round" stroke-linejoin="round" stroke-width="2.2"/>
    <path id="Path_71850" data-name="Path 71850" d="M27.494,17.5,15.4,27.268l7.07.465L39.4,18.616" transform="translate(-2.934 -4.196)" fill="none" stroke="#3b85c1" stroke-linecap="round" stroke-linejoin="round" stroke-width="2.2"/>
  </g>
</svg>
