<svg id="Group_45936" data-name="Group 45936" xmlns="http://www.w3.org/2000/svg" xmlns:xlink="http://www.w3.org/1999/xlink" width="64.181" height="62.848" viewBox="0 0 64.181 62.848">
  <defs>
    <clipPath id="clip-path">
      <rect id="Rectangle_19225" data-name="Rectangle 19225" width="64.181" height="62.848" fill="#264787"/>
    </clipPath>
  </defs>
  <g id="Group_45935" data-name="Group 45935" clip-path="url(#clip-path)">
    <path id="Path_71855" data-name="Path 71855" d="M6.5,60.816c.035-.421.074-.677.074-.934,0-3.325.019-6.65-.014-9.975-.041-4.071-.126-8.141-.19-12.212a10.171,10.171,0,0,1,.014-1.125,1.647,1.647,0,0,1,1.185-1.537c2.008-.731,3.987-1.544,6.051-2.354.033-.422.092-.837.093-1.252.008-3.164-.023-6.329.022-9.492a2.313,2.313,0,0,0-.9-2.093,2.568,2.568,0,0,1-1.013-2.4c.047-.694.022-1.394.014-2.091,0-.265.054-.646-.092-.776-.965-.86-.64-1.98-.64-3.011,0-1.075-.381-2.29.833-3.058.1-.062.089-.294.127-.448.565-2.3.9-2.728,3.294-4.058,0-.683-.012-1.473,0-2.263C15.382.654,15.752.054,16.4,0c.714-.055,1.156.589,1.178,1.755.014.744,0,1.489,0,2.266,1.919.9,3.3,2.154,3.316,4.358.447.325,1.007.547,1.247.956a3.713,3.713,0,0,1,.245,1.546c.035.48-.031.968.014,1.446a1.914,1.914,0,0,1-1.243,2.31c0,1.057-.048,2.022.014,2.979a2.18,2.18,0,0,1-.87,2.11,2.114,2.114,0,0,0-.827,1.964c.042,1.983,0,3.968,0,5.952,0,.8,0,1.594,0,2.534a4.724,4.724,0,0,0,.906-.171c3.55-1.354,7.117-2.666,10.625-4.123a3.658,3.658,0,0,1,3.052.045c3.316,1.365,6.654,2.676,9.987,4,.384.153.791.248,1.267.4a12.35,12.35,0,0,0,.174-3.74c0-1.657-.151-3.314-.165-4.971a2.025,2.025,0,0,0-.767-1.826,2.323,2.323,0,0,1-.93-2.247c.062-.907.014-1.821.014-2.833-1.189-.49-1.3-1.531-1.24-2.657.025-.481.013-.965,0-1.448-.021-1.012.3-1.788,1.22-1.99A12.675,12.675,0,0,1,44.766,5.9a14,14,0,0,1,2.371-2.027c.009-.113.059-.528.074-.944.02-.536-.022-1.075.023-1.608C47.3.5,47.777-.02,48.368,0s1.023.551,1.059,1.379c.037.852.008,1.707.008,2.6a12.276,12.276,0,0,1,1.143.645,4.288,4.288,0,0,1,2.152,3.22,1.226,1.226,0,0,0,.325.842,1.752,1.752,0,0,1,.659,1.7c-.014.8,0,1.609,0,2.413a1.8,1.8,0,0,1-.437,1.48,1.72,1.72,0,0,0-.3,1.022,8.075,8.075,0,0,0,0,1.607,3.206,3.206,0,0,1-1.286,3.241,1.55,1.55,0,0,0-.581,1.064c-.042,3.8-.026,7.6-.026,11.488,1.494.6,2.926,1.172,4.359,1.743,2.9,1.157,2.363,1.168,2.369,3.474q.029,10.536.018,21.073c0,.53,0,1.06,0,1.626a6.505,6.505,0,0,0,2.438.188c.857.032,1.717-.018,2.574.018.82.035,1.377.516,1.34,1.08-.035.539-.5.884-1.285.931-.32.019-.643.006-.965.006H2.239c-.429,0-.858-.008-1.286-.02A.934.934,0,0,1,0,61.91.976.976,0,0,1,.846,60.88a5.51,5.51,0,0,1,1.28-.062c1.433-.006,2.866,0,4.376,0M55.549,50.031,33.789,41.383c-.279,2.745-.182,18.159.112,19.336H55.761c-.071-3.561-.139-7.023-.212-10.688M31.38,37.188l-22.7,8.864V60.7h2.138c0-1.509,0-2.9,0-4.288,0-2.628.023-5.256-.013-7.883a1.446,1.446,0,0,1,1.139-1.663c.767-.221,1.49-.6,2.237-.887,1.8-.7,3.584-1.416,5.394-2.075,1.505-.548,1.907-.231,1.938,1.41.005.268,0,.536,0,.8Q21.5,52.63,21.49,59.146c0,.518.044,1.036.067,1.53a48.385,48.385,0,0,0,9.822-.135c.256-3.568.141-17.727-.18-19.008-1.248.5-2.483,1-3.72,1.493-1.094.436-2.184.881-3.287,1.29-.552.2-.928-.094-1.171-.57a.878.878,0,0,1,.353-1.249,10.207,10.207,0,0,1,1.457-.667c2.175-.882,4.354-1.755,6.548-2.638ZM8.587,36.9c0,1.243-.028,2.366.008,3.487a13.077,13.077,0,0,0,.166,3.372l22.608-8.816V28.018L8.587,36.9m25.131-1.917,21.8,8.692V36.759l-21.8-8.7ZM19.305,60.413a114.489,114.489,0,0,0-.042-13.982,27.3,27.3,0,0,0-6.346,2.553V60.413ZM33.664,39.058c7.314,2.913,14.472,5.824,21.709,8.626.316-1.669.3-1.69-1.123-2.255q-7.829-3.117-15.654-6.242c-1.566-.623-3.14-1.227-4.853-1.9l-.078,1.767M50.745,15.076c-1.7-.481-3.308.321-4.962-.135-.055.456-.1.712-.112.97a14.216,14.216,0,0,0,0,1.439A1.713,1.713,0,0,0,47.286,19,13.531,13.531,0,0,0,49.363,19a1.43,1.43,0,0,0,1.373-1.47c.04-.794.009-1.592.009-2.45m-36.69-.026c0,.944-.034,1.743.01,2.538a1.42,1.42,0,0,0,1.275,1.4,14.8,14.8,0,0,0,2.394,0,1.73,1.73,0,0,0,1.377-1.369c.06-.833.015-1.673.015-2.564Zm1.753,16.478c1.425-.635,1.441-.635,1.448-1.759q.024-3.765.011-7.532a6.832,6.832,0,0,0-.153-.984l-1.306.123Zm31.776-10.2c-.024.552-.059.971-.059,1.389q0,3.769.021,7.537c.006.914.692,1.031,1.373,1.216.282-2.3.22-9.75-.084-10.134a2.765,2.765,0,0,0-.451-.073c-.209,0-.419.032-.8.065M18.826,8.586c-.376-1.743-1.122-2.459-2.4-2.434s-2.032.793-2.275,2.434Zm31.854.032c-.339-1.809-1.308-2.643-2.674-2.449a2.118,2.118,0,0,0-1.863,2.449ZM20.091,10.989H13.172l.069,1.277c2.355-.011,4.574.051,6.85-.04Zm31.487.086c-2.193-.316-6.518-.249-6.924.166l.126.936h6.8Z" transform="translate(0 -0.001)" fill="#264787"/>
  </g>
</svg>
