<svg id="Group_45940" data-name="Group 45940" xmlns="http://www.w3.org/2000/svg" xmlns:xlink="http://www.w3.org/1999/xlink" width="63.059" height="81.124" viewBox="0 0 63.059 81.124">
  <defs>
    <clipPath id="clip-path">
      <rect id="Rectangle_19227" data-name="Rectangle 19227" width="63.059" height="81.124" fill="#264787"/>
    </clipPath>
  </defs>
  <g id="Group_45939" data-name="Group 45939" transform="translate(0)" clip-path="url(#clip-path)">
    <path id="Path_71878" data-name="Path 71878" d="M22.84,121.118q-1.644,0-3.289,0c-1.618,0-2.25-.6-2.251-2.132-.006-9.075-.006-16.42,0-23.116,0-1.794,1-2.748,2.9-2.759.924-.006,1.848-.006,2.773-.007q1.314,0,2.628-.006l.127,0c0-.033,0-.07,0-.112q0-1.128,0-2.256c0-1.033,0-2.1.008-3.153.015-1.8,1.022-2.751,2.913-2.752,7.164,0,13.687,0,19.942,0,1.955,0,2.949.939,2.956,2.785.006,1.718,0,3.463,0,5.151q0,1.265,0,2.531c0,.156,0,.324,0,.457.151,0,.346.005.528.005.477,0,.955,0,1.433.008,1.1.008,2.244.017,3.356-.02a2.855,2.855,0,0,1,2.08.693,2.609,2.609,0,0,1,.792,2.028c-.036,2.233-.019,4.51,0,6.711.009,1.211.019,2.463.019,3.7a5.885,5.885,0,0,1-.119,1.046c-.023.132-.047.264-.065.4l-.072.521-1.33.336-.341-.336c-.077-.076-.155-.149-.234-.223a7.03,7.03,0,0,1-.583-.593c-1.2-1.422-2.759-1.86-4.91-1.381a4.246,4.246,0,0,0-3.241,3.405,13.219,13.219,0,0,0-.083,2c.011.794.036,1.6.06,2.386.022.731.045,1.487.057,2.233a2.332,2.332,0,0,1-.643,1.825,2.7,2.7,0,0,1-1.954.639q-7.081,0-14.162,0h-9.3M19.012,119.5a2.312,2.312,0,0,0,.543.043q2.687.005,5.375,0h7.207q7.081,0,14.161,0a1.222,1.222,0,0,0,.767-.17,1.011,1.011,0,0,0,.164-.7c-.012-.736-.035-1.486-.057-2.212-.024-.789-.049-1.6-.06-2.41a14.558,14.558,0,0,1,.1-2.219,5.827,5.827,0,0,1,4.51-4.733,6.271,6.271,0,0,1,6.372,1.678c0-1.2-.01-2.42-.019-3.6-.017-2.21-.035-4.5,0-6.746a1.175,1.175,0,0,0-.292-.882,1.218,1.218,0,0,0-.855-.245c-1.148.038-2.307.03-3.429.021-.473,0-.947-.007-1.42-.008-.848,0-1.359,0-1.772-.378s-.425-.892-.424-1.655q0-1.266,0-2.533c0-1.686.006-3.429,0-5.143,0-.991-.245-1.219-1.291-1.22-6.254,0-12.776-.005-19.939,0-.961,0-1.241.268-1.249,1.194C27.4,88.631,27.4,89.7,27.4,90.726q0,1.131,0,2.262c0,1.247-.455,1.671-1.785,1.678q-1.318.007-2.637.006c-.921,0-1.842,0-2.763.007-.985.006-1.241.251-1.242,1.19-.007,6.7-.007,14.04,0,23.114a1.948,1.948,0,0,0,.046.52m8.574-4.916H21.13v-6.162h6.456Zm-4.79-1.571h3.125v-3.021H22.8Zm14.233,1.527H30.535v-6.095h6.494ZM32.2,112.972h3.163v-2.954H32.2Zm13.705,1.57h-6.49v-6.108h6.49Zm-4.825-1.571h3.16V110h-3.16Zm4.832-6.657H39.425v-6.106h6.488Zm-4.823-1.571h3.157v-2.965H41.091Zm-4.081,1.567H30.55V100.2h6.46Zm-4.795-1.571h3.129v-2.969H32.215ZM27.6,106.309H21.139v-6.1H27.6ZM22.8,104.738h3.127v-2.959H22.8Zm32.645,1.555H48.934v-6.068h6.515Zm-4.85-1.571h3.184V101.8H50.6Zm-4.683-7.187H39.4v-6.06h6.515Zm-4.849-1.571h3.184V93.045H41.067ZM37.038,97.53H30.55V91.457h6.488Zm-4.822-1.571h3.157V93.028H32.215Z" transform="translate(-10.646 -63.781)" fill="#264787" stroke="#264787" stroke-width="0.5"/>
    <path id="Path_71879" data-name="Path 71879" d="M171.44,272.073a4.859,4.859,0,0,1-3.994-1.983c-2.064-2.648-4.182-5.327-6.229-7.919-1.107-1.4-2.214-.571-3.318-1.974a3.718,3.718,0,0,1,.34-5.228,3.879,3.879,0,0,1,5.337.143c.675.671,1.323,1.377,1.951,2.062,0-.282,0-.564-.008-.843q-.04-2.084-.084-4.168c-.061-2.949-.124-6-.163-9a5.508,5.508,0,0,1,.416-2.216,3.739,3.739,0,0,1,4.243-2.134,3.874,3.874,0,0,1,3.192,3.6c.06,1.247.093,2.511.125,3.734l.026.981q.041,1.5.078,3,.045,1.789.095,3.579a1.559,1.559,0,0,0,.042.369,1.537,1.537,0,0,0,.359.026l1.177-.014c1.74-.02,3.54-.041,5.3-.118a5.715,5.715,0,0,1,4.268,1.38,5.626,5.626,0,0,1,1.642,4.1c.027,1.19.038.165.049,1.332q.01,1.082.023,2.164l.006.447c.016,1.16.033,2.359.071,3.534a4.4,4.4,0,0,1-4.328,4.879c-.982.073-1.973.084-2.931.095-.42,0-.84.009-1.259.019l-2.061.047q-2.1.047-4.2.1l-.163,0m-10.614-16.539a2.278,2.278,0,0,0-1.534.6,2.151,2.151,0,0,0-.159,3.092c1.1,1.4,2.21.571,3.317,1.972,2.049,2.593,4.167,5.275,6.235,7.927a3.29,3.29,0,0,0,2.876,1.377q2.105-.057,4.211-.1l2.059-.047c.426-.01.852-.015,1.278-.02.934-.011,1.9-.021,2.833-.091a2.873,2.873,0,0,0,2.875-3.261c-.039-1.19-.056-2.4-.072-3.564l-.006-.446c-.01-.724-.017-1.448-.023-2.172-.011-1.162-.021-.132-.049-1.31a4.1,4.1,0,0,0-1.145-2.992,4.2,4.2,0,0,0-3.126-.957c-1.786.078-3.6.1-5.352.119l-1.175.014a1.722,1.722,0,0,1-1.991-1.921q-.051-1.792-.095-3.584-.038-1.5-.078-3l-.026-.983c-.032-1.214-.064-2.47-.124-3.7a2.326,2.326,0,0,0-1.939-2.138,2.156,2.156,0,0,0-2.486,1.221,3.965,3.965,0,0,0-.286,1.57c.038,2.995.1,6.041.163,8.987q.043,2.085.084,4.171c.012.613.008,1.233.005,1.831q0,.415,0,.831v.426l-1.136.739-.443-.571c-.049-.063-.1-.126-.143-.19a3.717,3.717,0,0,0-.243-.307q-.347-.375-.691-.752c-.637-.7-1.295-1.414-1.967-2.082a2.324,2.324,0,0,0-1.642-.691" transform="translate(-125.457 -190.949)" fill="#3b85c1"/>
    <path id="Path_71880" data-name="Path 71880" d="M107.1,12.5a1.126,1.126,0,0,1-.638-.189,1.469,1.469,0,0,1-.538-1.42l.011-.09c.038-.207.073-.42.109-.637.089-.539.181-1.1.318-1.658a.561.561,0,0,0-.209-.682c-.627-.556-1.2-1.163-1.761-1.751a1.382,1.382,0,0,1-.441-1.413,1.364,1.364,0,0,1,1.165-.88c.8-.151,1.592-.293,2.392-.365.319-.029.458-.1.607-.471A15.962,15.962,0,0,1,109.1.961,1.952,1.952,0,0,1,110.257.02c.742-.154,1.263.667,1.405.922.436.783.792,1.49,1.087,2.16.11.25.157.254.331.271.8.077,1.588.224,2.351.366l.11.02a1.4,1.4,0,0,1,1.215.888,1.4,1.4,0,0,1-.456,1.431c-.722.765-1.333,1.374-1.922,1.917-.1.09-.119.109-.077.308.2.975.343,1.773.446,2.514a1.565,1.565,0,0,1-.506,1.433,1.565,1.565,0,0,1-1.484.006c-.73-.342-1.474-.722-2.274-1.162a.207.207,0,0,0-.271,0c-.811.442-1.572.835-2.326,1.2a1.813,1.813,0,0,1-.791.2m-1.321-7.246c.46.482.929.964,1.415,1.4a2.1,2.1,0,0,1,.693,2.228c-.123.505-.21,1.033-.295,1.543-.016.1-.033.2-.049.3.621-.307,1.253-.637,1.921-1a1.754,1.754,0,0,1,1.78,0c.668.367,1.293.69,1.9.983-.093-.615-.216-1.285-.38-2.08a1.765,1.765,0,0,1,.551-1.781c.5-.46,1.016-.972,1.613-1.6-.662-.123-1.34-.243-2-.307a1.853,1.853,0,0,1-1.617-1.2c-.253-.576-.557-1.184-.925-1.854a13.983,13.983,0,0,0-.822,1.655,2.137,2.137,0,0,1-1.921,1.443c-.612.055-1.235.158-1.869.275" transform="translate(-81.145 6.429)" fill="#264787" stroke="#264787" stroke-width="0.5"/>
    <path id="Path_71881" data-name="Path 71881" d="M188.542,30.161a.784.784,0,0,1-.445-.132,1.024,1.024,0,0,1-.375-.99l.008-.063c.026-.144.051-.293.076-.444.062-.376.127-.764.222-1.156a.391.391,0,0,0-.146-.475c-.437-.388-.839-.811-1.227-1.22a.963.963,0,0,1-.308-.985.951.951,0,0,1,.812-.614c.56-.105,1.109-.2,1.667-.254.222-.02.319-.073.423-.328a11.1,11.1,0,0,1,.692-1.382,1.36,1.36,0,0,1,.8-.656c.517-.107.88.465.979.642.3.546.552,1.038.757,1.506.077.174.109.177.231.189.558.054,1.107.156,1.639.255l.077.014a.9.9,0,0,1,.529,1.616c-.5.533-.929.957-1.339,1.336-.068.063-.083.076-.054.215.141.679.239,1.236.311,1.752a.909.909,0,0,1-1.387,1c-.509-.238-1.027-.5-1.585-.81a.144.144,0,0,0-.189,0c-.566.308-1.1.582-1.621.837a1.266,1.266,0,0,1-.551.143m-.921-5.05c.32.336.648.672.986.972a1.462,1.462,0,0,1,.483,1.553c-.086.352-.147.72-.205,1.076l-.034.206c.433-.214.874-.444,1.339-.7a1.223,1.223,0,0,1,1.241,0c.465.256.9.481,1.326.685-.065-.428-.15-.9-.265-1.449a1.23,1.23,0,0,1,.384-1.242c.347-.32.708-.677,1.125-1.113-.461-.085-.934-.169-1.393-.214a1.291,1.291,0,0,1-1.127-.838c-.177-.4-.388-.825-.645-1.292a9.758,9.758,0,0,0-.573,1.153,1.49,1.49,0,0,1-1.339,1.006c-.427.038-.861.11-1.3.191" transform="translate(-150.619 -11.652)" fill="#264787" stroke="#264787" stroke-width="0.5"/>
    <path id="Path_71882" data-name="Path 71882" d="M46.584,30.161a.784.784,0,0,1-.445-.132,1.024,1.024,0,0,1-.375-.99l.008-.063c.026-.144.051-.293.076-.444.062-.376.127-.764.222-1.156a.391.391,0,0,0-.146-.475c-.437-.388-.839-.811-1.227-1.22a.963.963,0,0,1-.308-.985.951.951,0,0,1,.812-.614c.56-.105,1.109-.2,1.667-.254.222-.02.319-.073.423-.328a11.091,11.091,0,0,1,.692-1.382,1.36,1.36,0,0,1,.8-.656c.517-.107.88.465.979.642.3.546.552,1.038.757,1.506.077.174.109.177.231.189.558.054,1.107.156,1.639.255l.077.014A.9.9,0,0,1,53,25.686c-.5.533-.929.957-1.339,1.336-.068.063-.083.076-.054.215.141.679.239,1.236.311,1.752a.909.909,0,0,1-1.387,1c-.509-.238-1.027-.5-1.585-.81a.144.144,0,0,0-.189,0c-.566.308-1.1.582-1.621.837a1.266,1.266,0,0,1-.551.143m-.921-5.05c.32.336.648.672.986.972a1.462,1.462,0,0,1,.483,1.553c-.086.352-.147.72-.205,1.076l-.034.206c.433-.214.874-.444,1.339-.7a1.223,1.223,0,0,1,1.241,0c.465.256.9.481,1.326.685-.065-.428-.15-.9-.265-1.449a1.23,1.23,0,0,1,.384-1.242c.347-.32.708-.677,1.125-1.113-.461-.085-.934-.169-1.393-.214a1.291,1.291,0,0,1-1.127-.838c-.177-.4-.388-.825-.645-1.292a9.763,9.763,0,0,0-.573,1.153,1.49,1.49,0,0,1-1.339,1.006c-.427.038-.861.11-1.3.191" transform="translate(-30.956 -11.652)" fill="#264787" stroke="#264787" stroke-width="0.5"/>
    <path id="Path_71883" data-name="Path 71883" d="M244.863,48.066a.633.633,0,0,1-.359-.106.826.826,0,0,1-.3-.8l.006-.05c.021-.117.041-.236.061-.358.05-.3.1-.616.179-.931a.315.315,0,0,0-.117-.383c-.352-.312-.676-.654-.989-.983a.777.777,0,0,1-.248-.794.767.767,0,0,1,.654-.495c.452-.085.894-.164,1.344-.2.179-.016.258-.059.341-.264a8.954,8.954,0,0,1,.558-1.114,1.1,1.1,0,0,1,.648-.529c.417-.086.709.374.789.518.245.44.445.837.61,1.213.062.14.088.143.186.152.449.043.892.126,1.321.206l.062.011a.723.723,0,0,1,.426,1.3c-.406.43-.749.772-1.079,1.076-.055.051-.067.061-.043.173.113.547.193,1,.251,1.412a.733.733,0,0,1-1.118.808c-.41-.192-.828-.405-1.277-.652a.117.117,0,0,0-.152,0c-.456.248-.883.469-1.306.674a1.019,1.019,0,0,1-.444.115M244.121,44c.258.271.522.542.795.784a1.178,1.178,0,0,1,.389,1.252c-.069.284-.118.58-.166.867l-.028.166c.349-.173.7-.358,1.079-.562a.985.985,0,0,1,1,0c.375.206.726.388,1.069.552-.052-.345-.121-.722-.214-1.168a.991.991,0,0,1,.309-1c.28-.258.571-.546.906-.9-.372-.069-.752-.136-1.123-.172a1.041,1.041,0,0,1-.908-.675c-.142-.323-.313-.665-.519-1.041a7.849,7.849,0,0,0-.462.929,1.2,1.2,0,0,1-1.079.811c-.344.031-.694.089-1.05.154" transform="translate(-198.46 -28.17)" fill="#264787" stroke="#264787" stroke-width="0.5"/>
    <path id="Path_71884" data-name="Path 71884" d="M1.8,48.066a.633.633,0,0,1-.359-.106.826.826,0,0,1-.3-.8l.006-.05c.021-.117.041-.236.061-.358.05-.3.1-.616.179-.931a.315.315,0,0,0-.117-.383c-.352-.312-.676-.654-.989-.983a.777.777,0,0,1-.248-.794.766.766,0,0,1,.654-.495c.452-.085.894-.164,1.344-.2.179-.016.258-.059.341-.264a8.963,8.963,0,0,1,.558-1.114,1.1,1.1,0,0,1,.648-.529c.417-.086.709.374.789.518.245.44.445.837.61,1.213.062.14.088.143.186.152.449.043.892.126,1.321.206l.062.011a.723.723,0,0,1,.426,1.3c-.406.43-.749.772-1.079,1.076-.055.051-.067.061-.043.173.113.547.193,1,.251,1.412a.879.879,0,0,1-.284.8.879.879,0,0,1-.834,0c-.41-.192-.828-.405-1.277-.652a.117.117,0,0,0-.152,0c-.456.248-.883.469-1.306.674a1.019,1.019,0,0,1-.444.115M1.057,44c.258.271.522.542.8.784a1.179,1.179,0,0,1,.389,1.252c-.069.284-.118.58-.166.867l-.027.166c.349-.173.7-.358,1.079-.562a.985.985,0,0,1,1,0c.375.206.726.388,1.069.552-.052-.345-.121-.722-.214-1.168a.991.991,0,0,1,.31-1c.28-.258.571-.546.906-.9-.372-.069-.752-.136-1.123-.172a1.041,1.041,0,0,1-.908-.675c-.142-.323-.313-.665-.519-1.041a7.846,7.846,0,0,0-.462.929,1.2,1.2,0,0,1-1.079.811c-.344.031-.694.089-1.05.154" transform="translate(6.43 -28.17)" fill="#264787" stroke="#264787" stroke-width="0.5"/>
  </g>
</svg>
