<svg id="Group_45941" data-name="Group 45941" xmlns="http://www.w3.org/2000/svg" xmlns:xlink="http://www.w3.org/1999/xlink" width="70.537" height="69.77" viewBox="0 0 70.537 69.77">
  <defs>
    <clipPath id="clip-path">
      <rect id="Rectangle_19228" data-name="Rectangle 19228" width="70.537" height="69.77" fill="#264787"/>
    </clipPath>
  </defs>
  <g id="Group_45941-2" data-name="Group 45941" clip-path="url(#clip-path)">
    <path id="Path_71885" data-name="Path 71885" d="M63.359,188.57c-1.314,3.852-3.361,5.6-6.672,5.737a6.621,6.621,0,0,1-4.575-1.574,7.154,7.154,0,0,1-2.425-4.127H20.89c-1.007,3.57-3.237,5.77-7.076,5.666-3.6-.1-5.692-2.248-6.612-5.6-.76-.115-1.516-.166-2.239-.349a6.55,6.55,0,0,1-4.94-6.242c-.034-2.854-.029-5.708,0-8.561A6.443,6.443,0,0,1,2.011,168.9l3.2-3.2c1.8-1.8,3.624-3.581,5.4-5.411a7.147,7.147,0,0,1,5.445-2.259c2.1.02,4.2,0,6.3,0h.812c.216-.686.4-1.338.628-1.976a5.268,5.268,0,0,1,.543-1.217,2.72,2.72,0,0,1,2.335-1.244c1.391-.008,2.783-.017,4.174,0a2.87,2.87,0,0,1,2.826,2.051c.261.754.479,1.524.736,2.346.26.013.511.037.761.037,2.075,0,4.151.029,6.226-.006a7.4,7.4,0,0,1,5.692,2.352c2.847,2.923,5.768,5.773,8.641,8.67a5.62,5.62,0,0,0,2.778,1.581c2.246.529,4.478,1.116,6.715,1.682a6.6,6.6,0,0,1,5.243,5.706,14.267,14.267,0,0,1,.063,2.189,18.841,18.841,0,0,1-.116,2.749,6.579,6.579,0,0,1-6.332,5.615c-.233.012-.467,0-.719,0M7.194,186.245c.945-3.508,3.172-5.67,6.874-5.657,3.674.013,5.87,2.181,6.808,5.687H49.663c.923-3.464,3.077-5.615,6.686-5.683,3.778-.072,6.03,2.113,7,5.663,3.232.41,5.384-2.7,4.78-4.888-.357,0-.731,0-1.1,0a9.185,9.185,0,0,1-1.2-.035,1.111,1.111,0,0,1-.982-1.118,1.125,1.125,0,0,1,1.067-1.114c.257-.026.518-.011.778-.012H68.2a4.251,4.251,0,0,0-3.244-4.493c-2.254-.593-4.512-1.172-6.782-1.7a8.214,8.214,0,0,1-4.121-2.316c-2.874-2.929-5.806-5.8-8.689-8.72a5.063,5.063,0,0,0-3.8-1.563q-12.77.02-25.541,0a5.022,5.022,0,0,0-3.8,1.563c-2.21,2.259-4.464,4.474-6.7,6.708-.667.667-1.342,1.326-2,2a4.168,4.168,0,0,0-1.24,2.99c0,2.83-.007,5.66,0,8.49a4.326,4.326,0,0,0,4.9,4.2M56.532,182.8a4.638,4.638,0,1,0,4.61,4.661,4.662,4.662,0,0,0-4.61-4.661m-42.48,0a4.638,4.638,0,1,0,4.618,4.651,4.669,4.669,0,0,0-4.618-4.651m11.519-24.849h6.442c-.166-.553-.311-1.046-.462-1.538a.749.749,0,0,0-.79-.568l-3.949,0a.742.742,0,0,0-.778.583c-.147.493-.3.985-.463,1.521" transform="translate(0 -124.543)" fill="#264787"/>
    <path id="Path_71886" data-name="Path 71886" d="M110.549,9.059h22.984c2.781,0,5.564.034,8.344-.012a6.238,6.238,0,0,1,4.861,2.024c1.22,1.281,2.52,2.484,3.74,3.765a5.439,5.439,0,0,1,1.281,6.007,5.72,5.72,0,0,1-4.957,3.88,12.8,12.8,0,0,1-1.483.063c-3.161.005-6.321.01-9.482-.005a1.508,1.508,0,0,0-1.18.476,14.149,14.149,0,0,1-8.548,4.136,18.9,18.9,0,0,1-2.113.138,1.107,1.107,0,0,1-1.057-1.737c.38-.758.8-1.494,1.2-2.241.109-.2.2-.414.353-.728-.352-.014-.622-.034-.891-.035q-4.6,0-9.2,0a13.774,13.774,0,0,1-4.949-.651,11.713,11.713,0,0,1-7.915-9.653,12.4,12.4,0,0,1-.108-1.976q-.014-5.378,0-10.756a5.227,5.227,0,0,1,.032-.706,1.107,1.107,0,0,1,1.659-.913c.257.116.5.267.744.406.76.428,1.525.846,2.276,1.288a8.092,8.092,0,0,1,3.914,5.224c.157.638.311,1.276.489,2.005m-6.83-5.953c-.011.168-.025.283-.025.4,0,3.159-.007,6.319.007,9.478a9.337,9.337,0,0,0,.15,1.617,9.536,9.536,0,0,0,9.2,7.91c4.078.07,8.158.012,12.237.023a.7.7,0,0,0,.722-.425c.325-.653.709-1.277,1.03-1.933a1.487,1.487,0,0,1,1.523-.9c2.57.031,5.14.012,7.71.012.118,0,.236,0,.354,0a1.122,1.122,0,0,1,1.092,1.6,9.759,9.759,0,0,1-.467.95c-.1.2-.2.406-.322.653.21.014.348.031.486.031,2.9,0,5.8.018,8.7,0a3.693,3.693,0,0,0,3.618-4.671c-.218-.726-.278-.774-1.026-.774-2.735,0-5.47.018-8.205-.007a7.046,7.046,0,0,1-6.768-5.135c-.059-.2-.125-.4-.2-.646h-.855q-11.353,0-22.706,0c-1,0-1.291-.243-1.519-1.2-.234-.984-.427-1.981-.72-2.948a6.457,6.457,0,0,0-4.014-4.029m43.374,11.672.066-.152c-.741-.72-1.5-1.428-2.221-2.163a3.829,3.829,0,0,0-2.855-1.175c-1.862,0-3.723,0-5.585,0-.176,0-.353.033-.542.053a1.293,1.293,0,0,0,.031.255,4.05,4.05,0,0,0,.192.455,4.619,4.619,0,0,0,4.208,2.74c2.143.051,4.289.018,6.433.02a2.107,2.107,0,0,0,.273-.035M125.937,27.045c2.681.223,8.013-3.135,8.7-5.5-1.825,0-3.637.005-5.45,0-.37,0-.464.269-.6.512q-1.226,2.268-2.446,4.539c-.077.143-.138.294-.21.449" transform="translate(-82.252 0)" fill="#264787"/>
    <path id="Path_71887" data-name="Path 71887" d="M11.382,51.284q-3.148,0-6.3,0a4.176,4.176,0,0,1-.635-.02,1.119,1.119,0,0,1-.969-1.058,1.09,1.09,0,0,1,.863-1.139,2.674,2.674,0,0,1,.63-.053q6.437,0,12.875,0a2.441,2.441,0,0,1,.629.062,1.064,1.064,0,0,1,.822,1.161,1.089,1.089,0,0,1-.918,1.021,3.617,3.617,0,0,1-.635.026q-3.183,0-6.367,0" transform="translate(-2.823 -39.744)" fill="#3b85c1"/>
    <path id="Path_71888" data-name="Path 71888" d="M11.4,97.51c-2.074,0-4.149,0-6.224,0a3.76,3.76,0,0,1-.841-.073,1.056,1.056,0,0,1-.833-1.15,1.077,1.077,0,0,1,.99-1.021,5.166,5.166,0,0,1,.565-.012h12.73a4.718,4.718,0,0,1,.565.013,1.075,1.075,0,0,1,.96.973,1.052,1.052,0,0,1-.781,1.185,3.34,3.34,0,0,1-.839.085c-2.1.007-4.2,0-6.294,0" transform="translate(-2.84 -77.238)" fill="#3b85c1"/>
    <path id="Path_71889" data-name="Path 71889" d="M33.476,72.1q2.048,0,4.1,0a3.014,3.014,0,0,1,.632.039,1.078,1.078,0,0,1,.854,1,1.04,1.04,0,0,1-.748,1.138,2.637,2.637,0,0,1-.763.1q-4.1.01-8.192,0a2.6,2.6,0,0,1-.629-.059,1.115,1.115,0,0,1,.161-2.2,4.8,4.8,0,0,1,.564-.012h4.025" transform="translate(-22.58 -58.464)" fill="#3b85c1"/>
    <path id="Path_71890" data-name="Path 71890" d="M56.005,215.337H36.274c-.212,0-.425.009-.636-.005a2,2,0,0,1-1.864-1.288,1.934,1.934,0,0,1,.452-2.214c1.157-1.177,2.33-2.337,3.5-3.5,1.15-1.15,2.31-2.292,3.447-3.454a3.277,3.277,0,0,1,2.466-1.023q12.412.01,24.823,0a3.319,3.319,0,0,1,2.467,1.028q3.367,3.384,6.751,6.751a2.23,2.23,0,0,1,.794,1.811,2.058,2.058,0,0,1-1.887,1.887c-.234.023-.471.012-.707.012H56.005m2.438-2.31H75.811c-.12-.147-.182-.241-.26-.319q-3.1-3.1-6.2-6.21a1.224,1.224,0,0,0-.943-.378c-3.137.009-6.274,0-9.411.007a5.293,5.293,0,0,0-.557.059ZM56.1,206.178H48.663v6.833H56.1Zm-9.747,6.865c0-2.339,0-4.608,0-6.918-.912,0-1.713.024-2.512-.009a1.532,1.532,0,0,0-1.247.51c-1.97,2-3.962,3.974-5.945,5.96-.125.125-.23.269-.389.457Z" transform="translate(-27.251 -165.303)" fill="#264787"/>
    <path id="Path_71891" data-name="Path 71891" d="M155.276,283.465h-2.667v2.647a7.429,7.429,0,0,1-2.856.075v-2.716l.032-.033h2.7V280.7h2.836c.021.912.023,1.816,0,2.723Z" transform="translate(-121.437 -227.622)" fill="#3b85c1"/>
    <path id="Path_71892" data-name="Path 71892" d="M193.856,283.4v-2.723h2.784v2.743h2.749l.032.034v2.778c-.938.049-1.837.042-2.83,0v-2.779H193.9Z" transform="translate(-157.2 -227.605)" fill="#3b85c1"/>
    <path id="Path_71893" data-name="Path 71893" d="M126.214,283.2h-2.7v2.75h-2.789v-2.78h2.668V280.41a25.162,25.162,0,0,1,2.853-.021v2.773Z" transform="translate(-97.898 -227.347)" fill="#3b85c1"/>
    <path id="Path_71894" data-name="Path 71894" d="M223.12,283.168V280.4c.938-.062,1.836-.028,2.8-.018v2.764h2.734v2.8H225.9V283.2h-2.749Z" transform="translate(-180.931 -227.352)" fill="#3b85c1"/>
    <path id="Path_71895" data-name="Path 71895" d="M179,295.082l2.776,0,.045.05v2.778a28.479,28.479,0,0,1-2.862,0v-2.783Z" transform="translate(-145.12 -239.283)" fill="#3b85c1"/>
    <path id="Path_71896" data-name="Path 71896" d="M285.838,322.518a3,3,0,0,1-3.068-3.024,3.042,3.042,0,1,1,3.068,3.024m.765-3.069a.843.843,0,0,0-.791-.764.834.834,0,0,0-.8.824.8.8,0,0,0,1.59-.06" transform="translate(-229.302 -256.591)" fill="#3b85c1"/>
    <path id="Path_71897" data-name="Path 71897" d="M64.157,319.443a3.044,3.044,0,1,1-6.089.031,3.078,3.078,0,0,1,3-3.057,3.046,3.046,0,0,1,3.088,3.025m-3.041.826a.794.794,0,1,0,.01-1.588.847.847,0,0,0-.8.753.833.833,0,0,0,.792.835" transform="translate(-47.088 -256.586)" fill="#3b85c1"/>
    <path id="Path_71898" data-name="Path 71898" d="M177.492,69.075c.376,0,.753-.017,1.128,0a1.124,1.124,0,0,1,1.105,1.067,1.077,1.077,0,0,1-.953,1.131,17.2,17.2,0,0,1-2.669-.007,1.036,1.036,0,0,1-.915-1.212,1.1,1.1,0,0,1,1.105-.98c.4-.019.8,0,1.2,0" transform="translate(-142.056 -56.009)" fill="#3b85c1"/>
    <path id="Path_71899" data-name="Path 71899" d="M144.9,69.078c.376,0,.752-.013,1.127,0a1.08,1.08,0,0,1,1.121,1.031,1.03,1.03,0,0,1-.958,1.175,17.094,17.094,0,0,1-2.6,0,1.061,1.061,0,0,1-.961-1.183,1.114,1.114,0,0,1,1.143-1.021c.375-.016.751,0,1.127,0" transform="translate(-115.654 -56.012)" fill="#3b85c1"/>
    <path id="Path_71900" data-name="Path 71900" d="M209.853,71.318c-.352,0-.707.025-1.056-.005a1.162,1.162,0,0,1-1.164-1.17,1.141,1.141,0,0,1,1.241-1.076c.7-.012,1.41-.014,2.114,0a1.119,1.119,0,0,1,.132,2.233,11.548,11.548,0,0,1-1.267.009v.008" transform="translate(-168.372 -55.999)" fill="#3b85c1"/>
    <path id="Path_71901" data-name="Path 71901" d="M242.539,69.076c.376,0,.752-.013,1.128,0a1.124,1.124,0,0,1,1.144,1.026,1.082,1.082,0,0,1-.975,1.179,17.219,17.219,0,0,1-2.6,0,1.035,1.035,0,0,1-.955-1.18,1.091,1.091,0,0,1,1.13-1.025c.375-.017.752,0,1.128,0" transform="translate(-194.844 -56.01)" fill="#3b85c1"/>
  </g>
</svg>
