<svg id="Group_45934" data-name="Group 45934" xmlns="http://www.w3.org/2000/svg" xmlns:xlink="http://www.w3.org/1999/xlink" width="57.407" height="66.273" viewBox="0 0 57.407 66.273">
  <defs>
    <clipPath id="clip-path">
      <rect id="Rectangle_19224" data-name="Rectangle 19224" width="57.407" height="66.273" fill="#264787" stroke="#264787" stroke-width="1"/>
    </clipPath>
  </defs>
  <g id="Group_45933" data-name="Group 45933" clip-path="url(#clip-path)">
    <path id="Path_71851" data-name="Path 71851" d="M41,0a1.465,1.465,0,0,1,.907,1.6c-.023,5.761-.006,11.522-.023,17.282a1.254,1.254,0,0,0,.638,1.279,4.1,4.1,0,0,1,.821.727C46.966,24.5,50.564,28.131,54.2,31.723a10.447,10.447,0,0,1,3.2,7.782q-.016,12.525,0,25.05c0,.173.009.346-.007.518a1.157,1.157,0,0,1-1.253,1.194c-.086,0-.173,0-.259,0-3.84,0-7.681.012-11.522,0A12.145,12.145,0,0,1,32.213,55.87c-.032-.208-.093-.411-.155-.678H30.994q-12.331,0-24.661,0a6.518,6.518,0,0,1-3.557-.738A5.256,5.256,0,0,1,.1,50.342C.035,49.7,0,49.052,0,48.407Q0,27.241,0,6.074a5.9,5.9,0,0,1,1.338-4.08A5.3,5.3,0,0,1,4.712.136,2.427,2.427,0,0,0,5.134,0ZM32.018,53.025a3.27,3.27,0,0,0-1.058-2.5c-1-1.012-2.014-2.015-3.017-3.026-1.353-1.363-2.766-2.673-4.037-4.11a5.1,5.1,0,0,1-.881-5.79,5.214,5.214,0,0,1,4.884-3.248,5.488,5.488,0,0,1,4.207,1.814q3.49,3.515,7,7.006c.17.17.355.324.642.584V2.17H39.08q-16.672,0-33.344,0a4.214,4.214,0,0,0-.962.089A3.357,3.357,0,0,0,2.132,5.78q-.005,21.852,0,43.7a4.284,4.284,0,0,0,.069.836A3.383,3.383,0,0,0,5.747,53.1q12.787,0,25.574-.026c.211,0,.422-.029.7-.049M55.275,64.132v-.865q0-11.976,0-23.951a8.081,8.081,0,0,0-2.468-5.982q-5.16-5.139-10.3-10.294c-.144-.144-.3-.273-.457-.409l-.151.048v7.41c0,5.049.007,10.1-.01,15.147a1.557,1.557,0,0,0,.522,1.245c.754.709,1.473,1.456,2.2,2.192a2.854,2.854,0,0,1,.414.493,1.026,1.026,0,0,1-1.461,1.388,4.431,4.431,0,0,1-.577-.516q-4.9-4.9-9.8-9.793c-.193-.193-.4-.375-.519-.488l-4.719,4.73c.1.107.257.282.422.448,1.294,1.3,2.574,2.614,3.891,3.89a6.044,6.044,0,0,1,1.916,4.567,13.116,13.116,0,0,0,.269,2.952,9.917,9.917,0,0,0,9.775,7.785c3.431.015,6.862,0,10.292,0h.756M30.926,38.055a3.448,3.448,0,0,0-3.679-1.378A3.311,3.311,0,0,0,24.79,39.3a3.367,3.367,0,0,0,1.492,3.423l4.645-4.671" transform="translate(0)" fill="#264787" stroke="#264787" stroke-width="1"/>
    <path id="Path_71852" data-name="Path 71852" d="M93.747,67.146A10.993,10.993,0,1,1,82.779,56.163,10.948,10.948,0,0,1,93.747,67.146m-5.8,7.157a8.586,8.586,0,0,0,3.627-6.039H89.351a14.034,14.034,0,0,1-.248,1.844c-.375,1.383-.817,2.748-1.233,4.12l.077.075M81.674,58.744l-.2-.062c-2.253,1.905-2.839,4.53-3.122,7.37.267.026.453.059.64.061.69.006,1.38.008,2.07,0,.635-.007.656-.025.657-.659q.007-3.138,0-6.275a4.267,4.267,0,0,0-.044-.434m.009,9.522H78.423a11.407,11.407,0,0,0,.885,4.327,7.136,7.136,0,0,0,1.618,2.54,7.015,7.015,0,0,0,.758.549Zm2.225-.019v7.346c1.909-.824,3.373-5.141,3.181-7.346Zm3.2-2.181c.105-2.644-1.5-6.764-3.216-7.309v7.309Zm-9.377-6.075c-2.015.948-3.879,4.491-3.631,6.123.47,0,.96,0,1.449,0,.652-.008.684-.043.731-.689A14.534,14.534,0,0,1,77.4,60.811c.1-.247.2-.5.334-.82m-3.649,8.224c-.183,2.049,2.117,5.615,3.625,6.025a15.94,15.94,0,0,1-1.463-5.622c-.009-.141-.205-.377-.326-.385-.614-.04-1.232-.018-1.836-.018m13.8-8.165a17.934,17.934,0,0,1,1.44,5.942,4.207,4.207,0,0,0,2.182-.027,8.07,8.07,0,0,0-3.623-5.915" transform="translate(-61.804 -48.37)" fill="#3b85c1" stroke="#3b85c1" stroke-width="0.5"/>
    <path id="Path_71853" data-name="Path 71853" d="M32.064,37.374c0-.668,0-1.336,0-2a3.274,3.274,0,0,1,3.417-3.362c1.335-.03,2.672-.016,4.007,0a1.183,1.183,0,0,1,1.241.743,1.055,1.055,0,0,1-1.1,1.372c-1.163.022-2.327.007-3.49.007-.194,0-.388,0-.582,0a1.246,1.246,0,0,0-1.4,1.4c-.018,1.25,0,2.5-.007,3.749a3.759,3.759,0,0,1-.022.58,1.019,1.019,0,0,1-1.038.874.922.922,0,0,1-.972-.846c-.051-.836-.014-1.677-.014-2.517h-.044" transform="translate(-27.614 -27.552)" fill="#264787" stroke="#264787" stroke-width="1"/>
    <path id="Path_71854" data-name="Path 71854" d="M37.245,311.944c-.712,0-1.425.026-2.136-.005a3.08,3.08,0,0,1-3.014-2.9c-.083-1.549-.061-3.105-.039-4.657a.982.982,0,0,1,1.066-1.105c.626.017,1,.434,1.005,1.173.012,1.273,0,2.546.006,3.819,0,1.172.424,1.6,1.6,1.609,1.294.011,2.589-.006,3.884.012a1,1,0,0,1,1.118.92.965.965,0,0,1-.965,1.125c-.84.034-1.682.008-2.524.008h0" transform="translate(-27.591 -261.195)" fill="#264787" stroke="#264787" stroke-width="1"/>
  </g>
</svg>
