<svg id="bc0c3c51967f06bb39bfb31ea79f076c" xmlns="http://www.w3.org/2000/svg" width="70.637" height="60.704" viewBox="0 0 70.637 60.704">
  <path id="Path_71920" data-name="Path 71920" d="M69.533,57.263H1.1a1.1,1.1,0,0,1-.918-1.715L11.222,38.992a1.1,1.1,0,1,1,1.837,1.225L3.165,55.056H67.472L57.578,40.216a1.1,1.1,0,1,1,1.837-1.225L70.452,55.547a1.1,1.1,0,0,1-.918,1.716Z" transform="translate(0 -0.974)" fill="#264787"/>
  <path id="Path_71921" data-name="Path 71921" d="M69.533,60.122H1.1a1.1,1.1,0,0,1-1.1-1.1V54.6a1.1,1.1,0,0,1,1.1-1.1h68.43a1.1,1.1,0,0,1,1.1,1.1v4.415A1.1,1.1,0,0,1,69.533,60.122ZM2.207,57.915H68.43V55.707H2.207Z" transform="translate(0 0.582)" fill="#264787"/>
  <path id="Path_71922" data-name="Path 71922" d="M9.953,57.263a1.1,1.1,0,0,1-1-1.579l5.787-12.141a1.1,1.1,0,0,1,1.992.95L10.949,56.634A1.1,1.1,0,0,1,9.953,57.263ZM21.3,51.744a1.1,1.1,0,0,1-1.062-1.407l1.583-5.519a1.1,1.1,0,1,1,2.121.607l-1.583,5.519A1.1,1.1,0,0,1,21.3,51.744Zm37.545,5.519a1.1,1.1,0,0,1-1-.628l-2.106-4.417a1.1,1.1,0,0,1,1.992-.95l2.106,4.417a1.1,1.1,0,0,1-1,1.578Zm-4.212-8.835a1.1,1.1,0,0,1-1-.628l-3.68-7.72a1.1,1.1,0,0,1,1.992-.95l3.68,7.72a1.1,1.1,0,0,1-1,1.578ZM47.5,51.744a1.1,1.1,0,0,1-1.06-.8l-1.583-5.519a1.1,1.1,0,1,1,2.121-.607l1.583,5.519A1.1,1.1,0,0,1,47.5,51.744Z" transform="translate(0.918 -0.974)" fill="#264787"/>
  <path id="Path_71923" data-name="Path 71923" d="M15.9,44.707H8.437a1.1,1.1,0,0,1,0-2.207H15.9a1.1,1.1,0,0,1,0,2.207Zm49.93,7.726H56.9a1.1,1.1,0,0,1,0-2.207h8.928a1.1,1.1,0,0,1,0,2.207Zm-2.942-4.415H54.8a1.1,1.1,0,1,1,0-2.207h8.09a1.1,1.1,0,1,1,0,2.207ZM32.351,45.811H23.042a1.1,1.1,0,1,1,0-2.207h9.309a1.1,1.1,0,0,1,0,2.207Zm13.723,0H36.868a1.1,1.1,0,1,1,0-2.207h9.206a1.1,1.1,0,1,1,0,2.207Zm1.582,5.519H21.46a1.1,1.1,0,0,1,0-2.207h26.2a1.1,1.1,0,1,1,0,2.207Z" transform="translate(0.76 -0.559)" fill="#264787"/>
  <path id="Path_71924" data-name="Path 71924" d="M33.659,51.959a1.1,1.1,0,0,1-.727-.274C32.241,51.08,16,36.683,16,22.159a17.659,17.659,0,1,1,35.318,0c0,14.524-16.241,28.92-16.932,29.526A1.1,1.1,0,0,1,33.659,51.959Zm0-45.252A15.469,15.469,0,0,0,18.207,22.159c0,11.847,12.3,24.22,15.452,27.2,3.152-2.976,15.452-15.349,15.452-27.2A15.469,15.469,0,0,0,33.659,6.707Z" transform="translate(1.659 -4.5)" fill="#264787"/>
  <path id="Path_71925" data-name="Path 71925" d="M27.027,40.707H11.1a1.1,1.1,0,0,1,0-2.207H27.027a1.1,1.1,0,0,1,0,2.207Zm30.432,0H41.535a1.1,1.1,0,0,1,0-2.207H57.459a1.1,1.1,0,0,1,0,2.207Z" transform="translate(1.037 -0.974)" fill="#264787"/>
  <g id="Group_45998" data-name="Group 45998" transform="translate(23.178 12.141)">
    <path id="Path_71926" data-name="Path 71926" d="M26.519,26.122H22.1a1.1,1.1,0,0,1-1.1-1.1V20.6a1.1,1.1,0,0,1,1.1-1.1h4.415a1.1,1.1,0,0,1,1.1,1.1v4.415A1.1,1.1,0,0,1,26.519,26.122Zm-3.311-2.207h2.207V21.707H23.207Z" transform="translate(-21 -15.085)" fill="#3b85c1"/>
    <path id="Path_71927" data-name="Path 71927" d="M30.519,22.122H26.1a1.1,1.1,0,0,1-1.1-1.1V16.6a1.1,1.1,0,0,1,1.1-1.1h4.415a1.1,1.1,0,0,1,1.1,1.1v4.415A1.1,1.1,0,0,1,30.519,22.122Zm-3.311-2.207h2.207V17.707H27.207Zm12.141,2.207H34.933a1.1,1.1,0,0,1-1.1-1.1V16.6a1.1,1.1,0,0,1,1.1-1.1h4.415a1.1,1.1,0,0,1,1.1,1.1v4.415A1.1,1.1,0,0,1,39.348,22.122Zm-3.311-2.207h2.207V17.707H36.037Z" transform="translate(-20.585 -15.5)" fill="#3b85c1"/>
    <path id="Path_71928" data-name="Path 71928" d="M34.519,26.122H30.1a1.1,1.1,0,0,1-1.1-1.1V20.6a1.1,1.1,0,0,1,1.1-1.1h4.415a1.1,1.1,0,0,1,1.1,1.1v4.415A1.1,1.1,0,0,1,34.519,26.122Zm-3.311-2.207h2.207V21.707H31.207Zm12.141,2.207H38.933a1.1,1.1,0,0,1-1.1-1.1V20.6a1.1,1.1,0,0,1,1.1-1.1h4.415a1.1,1.1,0,0,1,1.1,1.1v4.415A1.1,1.1,0,0,1,43.348,26.122Zm-3.311-2.207h2.207V21.707H40.037Z" transform="translate(-20.17 -15.085)" fill="#3b85c1"/>
  </g>
</svg>
