<svg id="be831f03275a357f4a36f98efb4958c8" xmlns="http://www.w3.org/2000/svg" width="66.818" height="50.976" viewBox="0 0 66.818 50.976">
  <path id="Path_71912" data-name="Path 71912" d="M54.825,27.142A12.28,12.28,0,0,1,51.977,23.3l-.57-1.139a21.82,21.82,0,0,0-5.838-7.974l-.427-.285H18.088l-.427.285c-1.282,1-3.56,3.275-5.838,7.974l-.57,1.139a10.419,10.419,0,0,1-2.848,3.845L5.7,29.563H57.246ZM12.82,26.715A9.208,9.208,0,0,0,14.1,24.437l.427-1.139a17.249,17.249,0,0,1,4.7-6.55H44.146a22.573,22.573,0,0,1,4.7,6.55l.57,1.139c.427.854.854,1.566,1.282,2.278H12.82Z" transform="translate(1.652 -2.793)" fill="#264787"/>
  <path id="Path_71913" data-name="Path 71913" d="M67.123,22.333A3.927,3.927,0,0,0,64.988,20.2a6.743,6.743,0,0,0-5.268,0,7.671,7.671,0,0,0-1.851,1c-3.987-7.547-8.543-9.54-8.686-9.683l-.285-.142h-2.99A6.808,6.808,0,0,0,39.072,6.1H28.963a6.829,6.829,0,0,0-6.977,5.268H19l-.285.142c-.142.142-4.7,2.136-8.686,9.683a7.672,7.672,0,0,0-1.851-1,6.755,6.755,0,0,0-5.268,0A4.445,4.445,0,0,0,.769,22.333c-.854,2.278.712,4.984,3.7,6.265L2.335,30.591A3.041,3.041,0,0,0,1.2,33.012V44.4a3.294,3.294,0,0,0,1.993,2.99l1.566.712V54.94a2.19,2.19,0,0,0,2.136,2.136H13.3a2.19,2.19,0,0,0,2.136-2.136V52.093l.57.285a8.063,8.063,0,0,0,2.563.427H49.182a8.063,8.063,0,0,0,2.563-.427l.57-.285V54.94a2.19,2.19,0,0,0,2.136,2.136H61a2.19,2.19,0,0,0,2.136-2.136V48.106l1.566-.712a3.212,3.212,0,0,0,2.136-2.99V33.012A3.26,3.26,0,0,0,65.7,30.591L63.421,28.6C66.411,27.316,67.978,24.611,67.123,22.333ZM28.82,8.948H38.93a4.2,4.2,0,0,1,3.987,2.421H24.833A4.2,4.2,0,0,1,28.82,8.948ZM3.332,23.329a1.422,1.422,0,0,1,.712-.57,3.4,3.4,0,0,1,1.282-.285,9.8,9.8,0,0,1,1.851.285A6.322,6.322,0,0,1,8.743,23.9l-.142.427a4.344,4.344,0,0,1-1.424,1.851l-.285.285a2.64,2.64,0,0,1-1-.285c-1.851-.712-2.848-1.993-2.563-2.848Zm9.255,30.9H7.6V49.245l4.984,1.709v3.275Zm8.543-4.414,2.705-4.7h20.5l2.705,4.7ZM55.3,54.228V50.953L60.289,49.1v4.984H55.3Zm8.686-21.216V44.4c0,.142-.142.285-.285.427l-2.421,1L52.457,48.96l-1.709.57a1.284,1.284,0,0,1-.712.142l-3.845-6.692a1.5,1.5,0,0,0-1.282-.712H22.84a1.5,1.5,0,0,0-1.282.712l-3.845,6.692c-.285,0-.427-.142-.712-.142l-1.566-.57L6.749,45.827,4.186,44.688c-.142,0-.285-.142-.285-.427V32.87c0-.142,0-.142.142-.285l4.984-4.414.142-.142,1.139-1.139.142-.142a5.772,5.772,0,0,0,.712-1.282.139.139,0,0,1,.142-.142l.57-1.139c3.275-6.835,6.977-9.4,7.974-9.967H48.47c1,.57,4.7,2.99,7.974,9.967l.57,1.282c.142.142.142.427.285.57a6.885,6.885,0,0,0,1.851,2.278l1.139,1.139,3.7,3.417ZM62.14,26.177a2.64,2.64,0,0,1-1,.285l-.285-.285a7.825,7.825,0,0,1-1-1.282,3.113,3.113,0,0,1-.427-.712l-.142-.427a5.88,5.88,0,0,1,1.566-1,4.4,4.4,0,0,1,2.99-.142c.285.142.57.285.57.57C64.845,24.184,63.848,25.465,62.14,26.177Z" transform="translate(-0.537 -6.1)" fill="#264787"/>
  <path id="Path_71914" data-name="Path 71914" d="M4.7,34.516l10.395,3.845V26.4H4.7Zm2.848-5.268h4.7v4.984l-4.7-1.709Zm41.721,9.113,10.395-3.845V26.542H49.268Zm2.848-9.113h4.7v3.275l-4.7,1.709Zm-32.18-1.424H44.285v2.848H19.936Z" transform="translate(1.228 2.506)" fill="#3b85c1"/>
</svg>
