<svg id="_120d9956861f192f9cf0661f1ce84fbf" data-name="120d9956861f192f9cf0661f1ce84fbf" xmlns="http://www.w3.org/2000/svg" width="73.274" height="71.988" viewBox="0 0 73.274 71.988">
  <rect id="Rectangle_19220" data-name="Rectangle 19220" width="73.274" height="71.988" transform="translate(0 0)" fill="none"/>
  <line id="Line_622" data-name="Line 622" x2="41.136" transform="translate(6.428 61.706)" fill="none" stroke="#3b85c1" stroke-linecap="round" stroke-linejoin="round" stroke-width="4"/>
  <path id="Path_71811" data-name="Path 71811" d="M15.125,81.3,25.957,91.453a9.2,9.2,0,0,0,10.911,1.241L80.374,67.4l-5.356-6.546a9.2,9.2,0,0,0-11.779-2.1l-12.75,7.5L33.249,60.5l-4.741,2.032a2.3,2.3,0,0,0-.632,3.822L36.7,74.3l-8.046,4.6-8.046-3.448-4.814,2.063a2.3,2.3,0,0,0-.667,3.79Z" transform="translate(-10.545 -41.102)" fill="none" stroke="#264787" stroke-linecap="round" stroke-linejoin="round" stroke-width="4"/>
</svg>
