<svg xmlns="http://www.w3.org/2000/svg" width="49.32" height="60.28" viewBox="0 0 49.32 60.28">
  <path id="_22_Payment_online_Credit_Card_Internet_Modern_Online" data-name="22  Payment online, Credit Card, Internet, Modern, Online" d="M38.88,48.58H8.74V12.96H38.88v4h2.74V7.48A5.48,5.48,0,0,0,36.14,2H11.48A5.48,5.48,0,0,0,6,7.48V56.8a5.48,5.48,0,0,0,5.48,5.48H36.14a5.48,5.48,0,0,0,5.48-5.48V44.36H38.88ZM11.48,4.74H36.14a2.74,2.74,0,0,1,2.74,2.74v2.74H8.74V7.48A2.74,2.74,0,0,1,11.48,4.74Zm24.66,54.8H11.48A2.74,2.74,0,0,1,8.74,56.8V51.32H38.88V56.8A2.74,2.74,0,0,1,36.14,59.54ZM27.92,8.85H19.7V6.11h8.22ZM19.7,54.06h8.22V56.8H19.7ZM51.21,19.81H25.18V18.44H22.44V43.1h2.74V41.73H51.21a4.11,4.11,0,0,0,4.11-4.11V23.92A4.11,4.11,0,0,0,51.21,19.81Zm0,2.74a1.37,1.37,0,0,1,1.37,1.37v1.37H25.18V22.55Zm0,16.44H25.18V28.03h27.4v9.59A1.37,1.37,0,0,1,51.21,38.99Zm-9.59-5.48h8.22v2.74H41.62Zm-13.7,0h8.22v2.74H27.92Z" transform="translate(-6 -2)" fill="#264787"/>
</svg>
