<svg id="Umrah_" data-name="Umrah " xmlns="http://www.w3.org/2000/svg" xmlns:xlink="http://www.w3.org/1999/xlink" width="26.82" height="26.264" viewBox="0 0 26.82 26.264">
  <defs>
    <clipPath id="clip-path">
      <rect id="Rectangle_19225" data-name="Rectangle 19225" width="26.82" height="26.263" fill="#264787"/>
    </clipPath>
  </defs>
  <g id="Group_45935" data-name="Group 45935" transform="translate(0 0)" clip-path="url(#clip-path)">
    <path id="Path_71855" data-name="Path 71855" d="M2.717,25.415c.015-.176.031-.283.031-.39,0-1.389.008-2.779-.006-4.168-.017-1.7-.053-3.4-.079-5.1a4.25,4.25,0,0,1,.006-.47.688.688,0,0,1,.5-.642C4,14.335,4.829,14,5.692,13.657c.014-.176.038-.35.039-.523,0-1.322-.01-2.645.009-3.967a.967.967,0,0,0-.376-.875,1.073,1.073,0,0,1-.423-1c.02-.29.009-.583.006-.874,0-.111.023-.27-.039-.324-.4-.359-.268-.828-.267-1.258,0-.449-.159-.957.348-1.278.041-.026.037-.123.053-.187.236-.961.377-1.14,1.377-1.7,0-.285,0-.615,0-.945.008-.452.163-.7.434-.724.3-.023.483.246.492.733.006.311,0,.622,0,.947A2,2,0,0,1,8.733,3.5c.187.136.421.228.521.4a1.552,1.552,0,0,1,.1.646c.015.2-.013.4.006.6a.8.8,0,0,1-.519.965c0,.442-.02.845.006,1.245a.911.911,0,0,1-.364.882.883.883,0,0,0-.346.821c.017.829,0,1.658,0,2.487,0,.333,0,.666,0,1.059a1.974,1.974,0,0,0,.378-.071c1.483-.566,2.974-1.114,4.44-1.723a1.529,1.529,0,0,1,1.275.019c1.386.571,2.781,1.118,4.174,1.671.161.064.33.1.53.165a5.161,5.161,0,0,0,.073-1.563c0-.693-.063-1.385-.069-2.077a.846.846,0,0,0-.321-.763.971.971,0,0,1-.389-.939c.026-.379.006-.761.006-1.184-.5-.2-.542-.64-.518-1.11.01-.2.006-.4,0-.6-.009-.423.125-.747.51-.832a5.3,5.3,0,0,1,.479-1.136,5.849,5.849,0,0,1,.991-.847c0-.047.025-.221.031-.395.008-.224-.009-.449.009-.672.028-.34.227-.558.474-.549s.427.23.443.576,0,.713,0,1.086a5.13,5.13,0,0,1,.478.27,1.792,1.792,0,0,1,.9,1.345.512.512,0,0,0,.136.352.732.732,0,0,1,.275.711c-.006.336,0,.672,0,1.008a.753.753,0,0,1-.182.619.719.719,0,0,0-.126.427,3.374,3.374,0,0,0,0,.671A1.34,1.34,0,0,1,21.6,8.423a.648.648,0,0,0-.243.445c-.017,1.588-.011,3.176-.011,4.8l1.822.728c1.213.483.988.488.99,1.452q.012,4.4.008,8.806c0,.221,0,.443,0,.68a2.718,2.718,0,0,0,1.019.079c.358.013.718-.008,1.075.008.343.015.575.216.56.451s-.209.369-.537.389c-.134.008-.269,0-.4,0H.935c-.179,0-.358,0-.537-.008a.39.39,0,0,1-.4-.382.408.408,0,0,1,.352-.43,2.3,2.3,0,0,1,.535-.026c.6,0,1.2,0,1.829,0m20.5-4.507L14.12,17.294c-.117,1.147-.076,7.588.047,8.08H23.3c-.03-1.488-.058-2.935-.089-4.466m-10.1-5.367-9.487,3.7v6.119h.893c0-.631,0-1.211,0-1.792,0-1.1.01-2.2-.006-3.294a.6.6,0,0,1,.476-.695c.321-.092.622-.249.935-.37.75-.292,1.5-.592,2.254-.867.629-.229.8-.1.81.589,0,.112,0,.224,0,.336q-.005,2.723-.009,5.446c0,.216.019.433.028.64a20.219,20.219,0,0,0,4.1-.056c.107-1.491.059-7.408-.075-7.943-.521.21-1.037.418-1.554.624-.457.182-.913.368-1.374.539-.231.085-.388-.039-.489-.238a.367.367,0,0,1,.148-.522,4.265,4.265,0,0,1,.609-.279c.909-.369,1.82-.733,2.736-1.1Zm-9.525-.12c0,.52-.012.989,0,1.457a5.464,5.464,0,0,0,.069,1.409L13.108,14.6V11.709l-9.52,3.712m10.5-.8L23.2,18.252v-2.89L14.09,11.726ZM8.067,25.246A47.843,47.843,0,0,0,8.05,19.4,11.408,11.408,0,0,0,5.4,20.47v4.776Zm6-8.924c3.056,1.217,6.047,2.434,9.072,3.6.132-.7.124-.706-.469-.942q-3.272-1.3-6.542-2.608c-.654-.26-1.312-.513-2.028-.792l-.033.739M21.205,6.3c-.712-.2-1.382.134-2.074-.057-.023.191-.044.3-.047.405a5.94,5.94,0,0,0,0,.6.716.716,0,0,0,.675.69,5.654,5.654,0,0,0,.868,0,.6.6,0,0,0,.574-.614c.017-.332,0-.665,0-1.024M5.873,6.289c0,.394-.014.728,0,1.061a.593.593,0,0,0,.533.584,6.184,6.184,0,0,0,1,0,.723.723,0,0,0,.576-.572c.025-.348.006-.7.006-1.072Zm.732,6.886c.6-.265.6-.265.605-.735q.01-1.574,0-3.147a2.855,2.855,0,0,0-.064-.411l-.546.052ZM19.884,8.913c-.01.231-.025.406-.025.581q0,1.575.009,3.15c0,.382.289.431.574.508a23.331,23.331,0,0,0-.035-4.235,1.155,1.155,0,0,0-.188-.031c-.088,0-.175.013-.334.027M7.867,3.588c-.157-.728-.469-1.027-1-1.017s-.849.331-.951,1.017ZM21.178,3.6c-.141-.756-.546-1.1-1.117-1.024A.885.885,0,0,0,19.282,3.6ZM8.4,4.593H5.5l.029.534c.984,0,1.911.021,2.862-.017Zm13.158.036A8.393,8.393,0,0,0,18.66,4.7l.053.391h2.841Z" transform="translate(0 -0.001)" fill="#264787"/>
  </g>
</svg>
