<svg id="Visa_Services_" data-name="Visa Services " xmlns="http://www.w3.org/2000/svg" xmlns:xlink="http://www.w3.org/1999/xlink" width="23.99" height="27.695" viewBox="0 0 23.99 27.695">
  <defs>
    <clipPath id="clip-path">
      <rect id="Rectangle_19224" data-name="Rectangle 19224" width="23.99" height="27.695" fill="#264787" stroke="#264787" stroke-width="1"/>
    </clipPath>
  </defs>
  <g id="Group_45933" data-name="Group 45933" transform="translate(0 0)" clip-path="url(#clip-path)">
    <path id="Path_71851" data-name="Path 71851" d="M17.135,0a.612.612,0,0,1,.379.667c-.009,2.407,0,4.815-.01,7.222a.524.524,0,0,0,.267.535,1.715,1.715,0,0,1,.343.3c1.512,1.51,3.016,3.028,4.536,4.53a4.366,4.366,0,0,1,1.339,3.252q-.007,5.234,0,10.468c0,.072,0,.145,0,.216a.483.483,0,0,1-.524.5c-.036,0-.072,0-.108,0-1.6,0-3.21,0-4.815,0a5.075,5.075,0,0,1-5.077-4.344c-.013-.087-.039-.172-.065-.283h-.445q-5.153,0-10.306,0a2.724,2.724,0,0,1-1.486-.308,2.2,2.2,0,0,1-1.119-1.72C.015,20.769,0,20.5,0,20.228q0-8.845,0-17.69A2.467,2.467,0,0,1,.56.834,2.216,2.216,0,0,1,1.969.057,1.014,1.014,0,0,0,2.145,0ZM13.38,22.158a1.367,1.367,0,0,0-.442-1.044c-.419-.423-.841-.842-1.261-1.265-.565-.57-1.156-1.117-1.687-1.717a2.133,2.133,0,0,1-.368-2.42,2.179,2.179,0,0,1,2.041-1.357,2.293,2.293,0,0,1,1.758.758q1.458,1.469,2.927,2.928c.071.071.148.135.268.244V.907h-.284Q9.364.907,2.4.909A1.761,1.761,0,0,0,2,.946a1.4,1.4,0,0,0-1.1,1.47q0,9.131,0,18.263a1.79,1.79,0,0,0,.029.349A1.414,1.414,0,0,0,2.4,22.19q5.344,0,10.687-.011c.088,0,.176-.012.291-.02M23.1,26.8v-.362q0-5,0-10.009a3.377,3.377,0,0,0-1.031-2.5q-2.156-2.147-4.306-4.3c-.06-.06-.127-.114-.191-.171l-.063.02v3.1c0,2.11,0,4.22,0,6.33a.65.65,0,0,0,.218.52c.315.3.616.608.92.916a1.193,1.193,0,0,1,.173.206.429.429,0,0,1-.61.58,1.852,1.852,0,0,1-.241-.216L13.87,16.818c-.081-.081-.166-.157-.217-.2L11.681,18.59c.042.045.107.118.176.187.541.543,1.076,1.092,1.626,1.626a2.526,2.526,0,0,1,.8,1.908,5.481,5.481,0,0,0,.113,1.234A4.144,4.144,0,0,0,18.482,26.8c1.434.006,2.867,0,4.3,0H23.1M12.924,15.9a1.441,1.441,0,0,0-1.538-.576,1.383,1.383,0,0,0-1.027,1.1,1.407,1.407,0,0,0,.623,1.431L12.924,15.9" transform="translate(0)" fill="#264787"/>
    <path id="Path_71851_-_Outline" data-name="Path 71851 - Outline" d="M20.226,27.612c-.768,0-1.4,0-1.98,0a5.284,5.284,0,0,1-5.283-4.521c-.005-.033-.013-.068-.022-.106H2.346A2.9,2.9,0,0,1,.76,22.644,2.4,2.4,0,0,1-.457,20.767C-.484,20.5-.5,20.22-.5,19.937c0-5.8,0-11.675,0-17.69A2.64,2.64,0,0,1,.112.4,2.433,2.433,0,0,1,1.65-.441a.422.422,0,0,0,.073-.024l.065-.024L1.821-.5H16.885l.037.015a.826.826,0,0,1,.51.862c-.005,1.294-.005,2.61-.006,3.883,0,1.094,0,2.226,0,3.339,0,.2.035.282.16.352a1.47,1.47,0,0,1,.328.276l.061.062c.5.5,1,1,1.489,1.491,1,1,2.026,2.031,3.046,3.038a4.666,4.666,0,0,1,1.059,1.556,4.841,4.841,0,0,1,.343,1.845c0,2.47,0,4.982,0,7.411q0,1.528,0,3.057c0,.018,0,.036,0,.054a1.694,1.694,0,0,1,0,.182.687.687,0,0,1-.72.689H20.226ZM7.579,22.564h5.693l.037.162c.008.036.017.069.024.1.017.067.033.131.043.2a4.866,4.866,0,0,0,4.871,4.167c.582,0,1.211,0,1.978,0h2.933c.23-.012.306-.085.327-.31a1.363,1.363,0,0,0,0-.138c0-.02,0-.039,0-.059q0-1.528,0-3.057c0-2.429,0-4.941,0-7.412a4.147,4.147,0,0,0-1.277-3.1c-1.021-1.008-2.052-2.041-3.048-3.04-.488-.489-.992-.994-1.489-1.49l-.066-.067a1.129,1.129,0,0,0-.232-.2A.729.729,0,0,1,17,7.6c0-1.113,0-2.244,0-3.338,0-1.273,0-2.589.006-3.884,0-.289-.074-.392-.213-.457H1.891l-.016.006a.723.723,0,0,1-.168.049A2,2,0,0,0,.426.68,2.248,2.248,0,0,0-.081,2.247c0,6.015,0,11.893,0,17.69,0,.269.013.534.038.788a1.981,1.981,0,0,0,1.02,1.562,2.547,2.547,0,0,0,1.368.277H7.579ZM19.861,26.72c-.644,0-1.175,0-1.671,0A4.353,4.353,0,0,1,13.9,23.3a5.788,5.788,0,0,1-.118-1.281,2.325,2.325,0,0,0-.737-1.758c-.4-.384-.789-.781-1.17-1.166l-.459-.463c-.053-.053-.1-.107-.143-.15l-.038-.041-.138-.147,2.258-2.263.148.138.048.044c.05.046.112.1.174.164L15.552,18.2l2.269,2.268.01.01a1.6,1.6,0,0,0,.2.183.232.232,0,0,0,.133.044.216.216,0,0,0,.149-.061.219.219,0,0,0,.031-.282A1.029,1.029,0,0,0,18.2,20.2l-.2-.2c-.233-.237-.474-.482-.719-.712a.863.863,0,0,1-.284-.673c.005-1.641,0-3.309,0-4.922q0-.7,0-1.407V9.033l.322-.1.089.079.059.052c.046.04.094.081.141.128l1.52,1.52c.912.912,1.856,1.856,2.785,2.781a3.605,3.605,0,0,1,1.093,2.648c0,2.411,0,4.862,0,7.232q0,1.388,0,2.776v.571H19.861ZM11.681,18.3l.034.035.46.464c.379.383.771.779,1.164,1.16a2.723,2.723,0,0,1,.864,2.059,5.394,5.394,0,0,0,.107,1.186A3.931,3.931,0,0,0,18.192,26.3c.5,0,1.026,0,1.669,0H22.6v-.153q0-1.388,0-2.776c0-2.371,0-4.822,0-7.233a3.16,3.16,0,0,0-.97-2.351c-.93-.926-1.873-1.87-2.786-2.782L17.427,9.587v2.7q0,.7,0,1.407c0,1.614,0,3.283,0,4.924a.443.443,0,0,0,.152.367c.25.236.494.484.73.723l.2.2a1.375,1.375,0,0,1,.2.244.639.639,0,0,1-.1.8.632.632,0,0,1-.437.176.648.648,0,0,1-.372-.119,1.934,1.934,0,0,1-.26-.23l-.01-.01L15.256,18.5l-1.825-1.824-.063-.062Zm-9.2,3.8h-.37a1.621,1.621,0,0,1-1.686-1.33,1.97,1.97,0,0,1-.033-.39c0-7.01,0-12.813,0-18.263A1.608,1.608,0,0,1,1.656.451a1.983,1.983,0,0,1,.45-.043l10.549,0h3.879V18.466l-.349-.317-.11-.1c-.064-.057-.115-.1-.166-.153l-.635-.634c-.752-.751-1.53-1.527-2.292-2.294a2.078,2.078,0,0,0-1.6-.7,1.971,1.971,0,0,0-1.858,1.233,1.935,1.935,0,0,0,.334,2.2c.369.417.776.817,1.17,1.2.167.164.34.334.509.5l.584.586c.222.222.452.452.677.679a1.563,1.563,0,0,1,.5,1.2l0,.19-.189.014-.1.009c-.069.006-.134.012-.2.012l-1.935,0C8.116,22.1,5.275,22.107,2.481,22.107ZM12.655.825,2.106.826a1.6,1.6,0,0,0-.354.031A1.2,1.2,0,0,0,.809,2.124c0,5.45,0,11.254,0,18.263a1.572,1.572,0,0,0,.025.308,1.208,1.208,0,0,0,1.277.994h.37c2.794,0,5.635,0,8.382-.008l1.935,0,.073,0a1.189,1.189,0,0,0-.373-.705c-.224-.226-.453-.456-.675-.677l-.585-.587c-.167-.168-.339-.337-.5-.5-.4-.392-.812-.8-1.19-1.226a2.341,2.341,0,0,1-.4-2.643,2.389,2.389,0,0,1,2.224-1.481,2.508,2.508,0,0,1,1.914.82c.761.767,1.539,1.543,2.291,2.293l.547.546V.825Zm-1.928,17-.139-.08A1.611,1.611,0,0,1,9.862,16.1a1.585,1.585,0,0,1,1.181-1.269,1.639,1.639,0,0,1,.409-.052,1.665,1.665,0,0,1,1.349.707l.105.144Zm.726-2.626a1.221,1.221,0,0,0-.3.039,1.178,1.178,0,0,0-.872.925,1.249,1.249,0,0,0,.392,1.129L12.351,15.6A1.23,1.23,0,0,0,11.452,15.2Z" transform="translate(0.291 0.291)" fill="#264787"/>
    <path id="Path_71852" data-name="Path 71852" d="M80.949,60.753a4.594,4.594,0,1,1-4.583-4.59,4.575,4.575,0,0,1,4.583,4.59m-2.423,2.991a3.588,3.588,0,0,0,1.516-2.524h-.93a5.864,5.864,0,0,1-.1.771c-.157.578-.342,1.148-.515,1.722l.032.031m-2.622-6.5-.084-.026a4.266,4.266,0,0,0-1.3,3.08c.111.011.189.025.267.025.288,0,.577,0,.865,0,.265,0,.274-.011.275-.275q0-1.311,0-2.622a1.783,1.783,0,0,0-.018-.182m0,3.979H74.545a4.767,4.767,0,0,0,.37,1.808,2.982,2.982,0,0,0,.676,1.061,2.931,2.931,0,0,0,.317.23Zm.93-.008v3.07c.8-.344,1.41-2.148,1.329-3.07Zm1.339-.911c.044-1.1-.628-2.826-1.344-3.054V60.3Zm-3.918-2.538a3.246,3.246,0,0,0-1.517,2.559c.2,0,.4,0,.605,0,.273,0,.286-.018.305-.288a6.074,6.074,0,0,1,.467-1.928c.043-.1.085-.208.14-.342M72.733,61.2a3.173,3.173,0,0,0,1.515,2.518,6.661,6.661,0,0,1-.611-2.349c0-.059-.086-.158-.136-.161-.257-.017-.515-.008-.767-.008M78.5,57.788a7.494,7.494,0,0,1,.6,2.483,1.758,1.758,0,0,0,.912-.011A3.372,3.372,0,0,0,78.5,57.788" transform="translate(-67.601 -52.906)" fill="#3b85c1"/>
    <path id="Path_71852_-_Outline" data-name="Path 71852 - Outline" d="M76.214,65.305a4.7,4.7,0,1,1,0-9.392h0a4.7,4.7,0,0,1,.006,9.392Zm0-9.183a4.5,4.5,0,0,0-4.5,4.479,4.493,4.493,0,0,0,4.493,4.5h.011a4.487,4.487,0,0,0-.005-8.974Zm-.351,8.255-.165-.118c-.041-.03-.08-.055-.118-.081a1.438,1.438,0,0,1-.211-.159,3.044,3.044,0,0,1-.7-1.1,4.892,4.892,0,0,1-.377-1.851l0-.1h1.568ZM74.5,61.18a4.824,4.824,0,0,0,.364,1.665,2.844,2.844,0,0,0,.652,1.025,1.024,1.024,0,0,0,.14.107v-2.8ZM76.588,64.3V60.963h1.529l.008.1c.081.935-.535,2.805-1.392,3.175Zm.209-3.124v2.787a2.645,2.645,0,0,0,.792-1.179,4.381,4.381,0,0,0,.334-1.608Zm1.573,2.561-.14-.135.019-.061c.05-.164.1-.331.151-.492.124-.4.252-.816.363-1.227a2.947,2.947,0,0,0,.073-.494c.008-.085.016-.172.027-.262l.012-.091h1.144l-.02.121a3.684,3.684,0,0,1-1.56,2.593Zm.69-2.554c-.006.055-.011.11-.016.164a3.1,3.1,0,0,1-.08.53c-.112.414-.241.831-.365,1.234l-.08.259a3.475,3.475,0,0,0,1.253-2.187Zm-4.77,2.552-.214-.058a2.415,2.415,0,0,1-1.084-1.048,2.851,2.851,0,0,1-.508-1.58l.008-.1h.493c.151,0,.267,0,.377.01a.311.311,0,0,1,.234.258,6.529,6.529,0,0,0,.6,2.313Zm-1.6-2.572a3.44,3.44,0,0,0,1.205,2.192,6.594,6.594,0,0,1-.506-2.119.174.174,0,0,0-.05-.066c-.1-.006-.211-.009-.352-.009h-.3Zm6.727-.875a1.928,1.928,0,0,1-.486-.058l-.072-.019-.005-.074a7.412,7.412,0,0,0-.593-2.449l-.126-.289.274.157a3.487,3.487,0,0,1,1.566,2.557l0,.074-.068.028A1.4,1.4,0,0,1,79.415,60.283Zm-.36-.243a1.841,1.841,0,0,0,.36.034,1.488,1.488,0,0,0,.344-.035,3.345,3.345,0,0,0-1.176-2.115A7.662,7.662,0,0,1,79.055,60.041Zm-3.945.241-.473,0a1.607,1.607,0,0,1-.176-.015l-.1-.011-.1-.01.01-.1a4.4,4.4,0,0,1,1.341-3.149l.044-.037.2.063.007.068c0,.018,0,.037.007.055a1.021,1.021,0,0,1,.012.137c0,.842,0,1.738,0,2.623,0,.14,0,.241-.069.31s-.164.068-.309.07Zm-.625-.225h0a1.438,1.438,0,0,0,.153.013c.339,0,.607,0,.863,0a.916.916,0,0,0,.163-.01.911.911,0,0,0,.009-.161c0-.884,0-1.78,0-2.622a.573.573,0,0,0,0-.064A4.1,4.1,0,0,0,74.484,60.058Zm-1.521.224h-.458l-.013-.089a2.583,2.583,0,0,1,.417-1.454,2.932,2.932,0,0,1,1.16-1.215l.242-.114-.1.248-.05.123c-.033.081-.061.15-.09.22A6,6,0,0,0,73.61,59.9c-.024.327-.081.381-.408.385Zm-.273-.21H73.2a.66.66,0,0,0,.177-.016.69.69,0,0,0,.025-.176,6.207,6.207,0,0,1,.475-1.961l.019-.047a3.234,3.234,0,0,0-.806.968A2.668,2.668,0,0,0,72.691,60.072Zm5.441.188H76.582v-3.3l.136.043a2.12,2.12,0,0,1,1.022,1.257,4.73,4.73,0,0,1,.4,1.9Zm-1.34-.209h1.137a4.713,4.713,0,0,0-.381-1.711,2.383,2.383,0,0,0-.756-1.075Z" transform="translate(-67.455 -52.761)" fill="#3b85c1"/>
    <path id="Path_71853" data-name="Path 71853" d="M32.063,34.241c0-.279,0-.558,0-.837A1.368,1.368,0,0,1,33.491,32c.558-.012,1.116-.007,1.675,0a.494.494,0,0,1,.518.311.441.441,0,0,1-.46.574c-.486.009-.972,0-1.459,0-.081,0-.162,0-.243,0a.521.521,0,0,0-.583.586c-.007.522,0,1.044,0,1.567a1.571,1.571,0,0,1-.009.243.426.426,0,0,1-.434.365.385.385,0,0,1-.406-.353c-.021-.349-.006-.7-.006-1.052h-.018" transform="translate(-30.204 -30.136)" fill="#264787"/>
    <path id="Path_71853_-_Outline" data-name="Path 71853 - Outline" d="M32.208,35.564H32.2a.593.593,0,0,1-.613-.55c-.016-.253-.012-.508-.009-.755,0-.034,0-.068,0-.1h-.017v-.207q0-.13,0-.261c0-.189,0-.385,0-.578a1.614,1.614,0,0,1,.448-1.138A1.676,1.676,0,0,1,33.2,31.5c.226,0,.467-.007.736-.007.307,0,.61,0,.945.007a.7.7,0,0,1,.716.459.641.641,0,0,1-.087.568.707.707,0,0,1-.569.275c-.181,0-.379.005-.621.005h-1.08c-.283.008-.375.1-.379.38,0,.347,0,.7,0,1.044q0,.26,0,.52c0,.015,0,.029,0,.044a1.394,1.394,0,0,1-.012.231A.632.632,0,0,1,32.208,35.564Zm-.227-1.821H32v.207c0,.106,0,.212,0,.315,0,.239-.006.486.008.723a.181.181,0,0,0,.2.157h0a.216.216,0,0,0,.222-.189,1.049,1.049,0,0,0,.007-.163c0-.016,0-.031,0-.047q0-.259,0-.518c0-.344,0-.7,0-1.051a.724.724,0,0,1,.786-.792c.059,0,.117,0,.175,0h.916c.239,0,.434,0,.613-.005a.3.3,0,0,0,.239-.1.222.222,0,0,0,.025-.2c-.043-.143-.239-.161-.321-.162-.334,0-.635-.007-.941-.007-.267,0-.5,0-.727.007a1.156,1.156,0,0,0-1.223,1.2c0,.191,0,.386,0,.574Q31.981,33.715,31.981,33.742Z" transform="translate(-29.912 -29.845)" fill="#264787"/>
    <path id="Path_71854" data-name="Path 71854" d="M34.213,306.9c-.3,0-.6.011-.892,0a1.287,1.287,0,0,1-1.26-1.211c-.035-.647-.025-1.3-.016-1.946a.41.41,0,0,1,.445-.462c.262.007.417.181.42.49.005.532,0,1.064,0,1.6,0,.49.177.668.668.672.541,0,1.082,0,1.623.005a.416.416,0,0,1,.467.385.4.4,0,0,1-.4.47c-.351.014-.7,0-1.055,0h0" transform="translate(-30.179 -285.692)" fill="#264787"/>
    <path id="Path_71854_-_Outline" data-name="Path 71854 - Outline" d="M34.557,306.822l-.319,0-.315,0h-.277l-.281,0c-.132,0-.241,0-.344-.007a1.553,1.553,0,0,1-1.005-.42,1.466,1.466,0,0,1-.454-.989c-.035-.654-.026-1.317-.017-1.959a.618.618,0,0,1,.636-.67h.024a.63.63,0,0,1,.623.7c0,.31,0,.626,0,.93,0,.219,0,.445,0,.667,0,.374.088.461.46.464l.493,0h.466c.2,0,.43,0,.666,0a.621.621,0,0,1,.673.576.653.653,0,0,1-.15.493.628.628,0,0,1-.453.2C34.858,306.819,34.722,306.822,34.557,306.822Zm-.426-.421h.11l.315,0c.16,0,.29,0,.412-.007a.211.211,0,0,0,.157-.062.243.243,0,0,0,.047-.182c0-.057-.015-.189-.262-.193s-.465,0-.66,0h-.466l-.5,0c-.6-.005-.872-.277-.875-.88,0-.223,0-.45,0-.669,0-.3,0-.618,0-.926,0-.277-.153-.282-.217-.283h-.012c-.106,0-.215.03-.219.256-.009.636-.018,1.292.016,1.932a1.074,1.074,0,0,0,1.06,1.013c.1,0,.2.006.326.006l.277,0,.281,0h.209Z" transform="translate(-29.888 -285.401)" fill="#264787"/>
  </g>
</svg>
