<svg xmlns="http://www.w3.org/2000/svg" width="114" height="114" viewBox="0 0 114 114">
  <g id="Group_55139" data-name="Group 55139" transform="translate(-1442 -1857)">
    <g id="Layer_2" data-name="Layer 2" transform="translate(1442 1857)">
      <g id="invisible_box" data-name="invisible box" transform="translate(0 0)">
        <rect id="Rectangle_22639" data-name="Rectangle 22639" width="114" height="114" transform="translate(0 0)" fill="none"/>
      </g>
      <g id="icons_Q2" data-name="icons Q2" transform="translate(4.75 14.25)">
        <path id="Path_79008" data-name="Path 79008" d="M27.375,48.75A21.375,21.375,0,1,0,6,27.375,21.375,21.375,0,0,0,27.375,48.75Zm0-33.25A11.875,11.875,0,1,1,15.5,27.375,11.875,11.875,0,0,1,27.375,15.5Z" transform="translate(3.5 -6)" fill="#3b85c1"/>
        <path id="Path_79009" data-name="Path 79009" d="M44.625,43.25A16.625,16.625,0,1,0,28,26.625,16.625,16.625,0,0,0,44.625,43.25Zm0-23.75A7.125,7.125,0,1,1,37.5,26.625,6.887,6.887,0,0,1,44.625,19.5Z" transform="translate(33.75 -0.5)" fill="#3b85c1"/>
        <path id="Path_79010" data-name="Path 79010" d="M106.5,34.079l-2.138-1.425a46.55,46.55,0,0,0-47.975,0l-1.9,1.425A58.425,58.425,0,0,0,35.25,30.754,55.575,55.575,0,0,0,4.138,40.016L2,41.441V59.254A4.75,4.75,0,0,0,6.75,64h57a4.75,4.75,0,0,0,4.75-4.75V54.5h33.25a4.75,4.75,0,0,0,4.75-4.75ZM59,54.5H11.5V46.666a46.313,46.313,0,0,1,23.75-6.413A46.313,46.313,0,0,1,59,46.666ZM97,45H68.5V41.441l-2.137-1.425-1.425-.95A36.337,36.337,0,0,1,97,39.541Z" transform="translate(-2 21.496)" fill="#3b85c1"/>
      </g>
    </g>
  </g>
</svg>
