<svg xmlns="http://www.w3.org/2000/svg" width="104" height="104" viewBox="0 0 104 104">
  <g id="Group_55136" data-name="Group 55136" transform="translate(-656 -1858)">
    <g id="Layer_2" data-name="Layer 2" transform="translate(656.025 1858.102)">
      <g id="invisible_box" data-name="invisible box">
        <rect id="Rectangle_22614" data-name="Rectangle 22614" width="104" height="104" transform="translate(-0.025 -0.102)" fill="none"/>
        <rect id="Rectangle_22615" data-name="Rectangle 22615" width="104" height="104" transform="translate(-0.025 -0.102)" fill="none"/>
      </g>
      <g id="icons_Q2" data-name="icons Q2" transform="translate(17.313 4.263)">
        <path id="Path_78992" data-name="Path 78992" d="M25.956,36.443,17.3,28a4.546,4.546,0,0,1-.433-5.844,4.113,4.113,0,0,1,6.494-.433l5.628,5.628L43.272,13.066a4.329,4.329,0,0,1,6.061,6.061L32.016,36.443a4.113,4.113,0,0,1-6.061,0Z" transform="translate(1.321 9.944)" fill="#3b85c1"/>
        <path id="Path_78993" data-name="Path 78993" d="M77.267,36.668A34.633,34.633,0,1,0,23.154,65.24V92.73a4.546,4.546,0,0,0,4.329,4.546,3.247,3.247,0,0,0,2.381-.866l12.771-9.957L55.405,96.41a3.247,3.247,0,0,0,2.381.866,4.546,4.546,0,0,0,4.329-4.546V65.24A34.633,34.633,0,0,0,77.267,36.668Zm-60.607,0A25.975,25.975,0,1,1,42.635,62.643,25.975,25.975,0,0,1,16.66,36.668Zm36.8,47.187L43.933,76.5a1.948,1.948,0,0,0-2.6,0l-9.524,7.359V69.569A36.581,36.581,0,0,0,42.635,71.3a36.581,36.581,0,0,0,10.823-1.732Z" transform="translate(-7.998 -1.97)" fill="#3b85c1"/>
      </g>
    </g>
  </g>
</svg>
