<svg xmlns="http://www.w3.org/2000/svg" width="104" height="104" viewBox="0 0 104 104">
  <g id="Layer_2" data-name="Layer 2" transform="translate(0 0.102)">
    <g id="invisible_box" data-name="invisible box">
      <rect id="Rectangle_22616" data-name="Rectangle 22616" width="104" height="104" transform="translate(0 -0.102)" fill="none"/>
    </g>
    <g id="icons_Q2" data-name="icons Q2" transform="translate(8.625 8.625)">
      <g id="Group_55082" data-name="Group 55082">
        <path id="Path_78994" data-name="Path 78994" d="M89.3,5.317a4.113,4.113,0,0,0-6.061,0L60.3,28.261a32.9,32.9,0,0,0-11.256-2.6L63.327,11.377a4.113,4.113,0,0,0,0-6.061,4.113,4.113,0,0,0-6.061,0l-8.875,8.875L39.517,5.317a4.113,4.113,0,0,0-6.061,0,4.113,4.113,0,0,0,0,6.061l8.875,8.875-8.009,8.009L11.377,5.317a4.113,4.113,0,0,0-6.061,0,4.113,4.113,0,0,0,0,6.061L26.529,32.59a34.633,34.633,0,1,0,41.559,0L89.3,11.377a4.113,4.113,0,0,0,0-6.061ZM73.284,60.3A25.975,25.975,0,1,1,47.309,34.322,25.975,25.975,0,0,1,73.284,60.3Z" transform="translate(-3.985 -3.985)" fill="#3b85c1"/>
        <path id="Path_78995" data-name="Path 78995" d="M41.994,32.4l-6.277-.866L32.9,25.257a2.165,2.165,0,0,0-3.9,0l-2.814,6.277-6.277.866a2.381,2.381,0,0,0-1.3,3.9l4.546,4.329-1.082,6.71a2.381,2.381,0,0,0,3.247,2.381L30.954,45.6l5.628,4.113a2.381,2.381,0,0,0,3.247-2.381l-1.082-6.71L43.292,36.3a2.381,2.381,0,0,0-1.3-3.9Z" transform="translate(12.37 19.366)" fill="#3b85c1"/>
      </g>
    </g>
  </g>
</svg>
