<svg xmlns="http://www.w3.org/2000/svg" width="104" height="104" viewBox="0 0 104 104">
  <g id="Group_55138" data-name="Group 55138" transform="translate(-1446 -1858)">
    <g id="Layer_2" data-name="Layer 2" transform="translate(1446.352 1858.102)">
      <g id="invisible_box" data-name="invisible box">
        <rect id="Rectangle_22617" data-name="Rectangle 22617" width="104" height="104" transform="translate(-0.352 -0.102)" fill="none"/>
      </g>
      <g id="icons_Q2" data-name="icons Q2" transform="translate(15.152 4.329)">
        <path id="Path_78996" data-name="Path 78996" d="M43.8,10.658c16.018,0,28.139,12.987,28.139,30.3S53.321,77.11,43.8,86.85C34.273,77.11,15.658,57.2,15.658,40.962s12.121-30.3,28.139-30.3M43.8,2C22.368,2,7,19.533,7,40.962s24.892,46.1,33.767,54.98a4.113,4.113,0,0,0,6.061,0c8.875-8.875,33.767-33.118,33.767-54.98S65.226,2,43.8,2Z" transform="translate(-7 -2)" fill="#3b85c1"/>
        <path id="Path_78997" data-name="Path 78997" d="M41.994,21.4l-6.277-.866L32.9,14.257a2.165,2.165,0,0,0-3.9,0l-2.814,6.277-6.277.866a2.381,2.381,0,0,0-1.3,3.9l4.546,4.329-1.082,6.71a2.381,2.381,0,0,0,3.247,2.381L30.954,34.6l5.628,4.113a2.381,2.381,0,0,0,3.247-2.381l-1.082-6.71L43.292,25.3a2.381,2.381,0,0,0-1.3-3.9Z" transform="translate(5.843 10.852)" fill="#3b85c1"/>
      </g>
    </g>
  </g>
</svg>
